<svg id="Ebene_1" data-name="Ebene 1" xmlns="http://www.w3.org/2000/svg" viewBox="0 0 1126 901"><defs><style>.cls-1{fill:#004570;fill-opacity:0.15;stroke:#0071aa;}.cls-1,.cls-2{stroke-miterlimit:10;stroke-width:1.5px;}.cls-2{fill:none;stroke:#005081;}.cls-3{fill:#005081;}</style></defs><title>0eg-plan</title><g id="Plan"><rect class="cls-1" x="103.4" y="19.83" width="126.5" height="425.8"/><rect class="cls-1" x="346.7" y="155.93" width="85.7" height="108.8"/><rect class="cls-1" x="346.7" y="2.53" width="152.1" height="108.6"/><rect class="cls-1" x="498.9" y="2.53" width="148.7" height="108.6"/><rect class="cls-1" x="432.5" y="155.93" width="88.5" height="108.8"/><polygon class="cls-1" points="647.5 2.53 647.5 111.13 718.2 111.13 718.2 2.93 647.5 2.53"/><polygon class="cls-1" points="521 155.93 521 264.73 614 264.73 614 155.73 521 155.93"/><rect class="cls-1" x="648.5" y="155.33" width="31.1" height="28.2"/><polygon class="cls-1" points="614 155.73 614 246.33 666.2 246.33 666.2 183.53 648.5 183.53 648.5 155.33 614 155.73"/><polygon class="cls-1" points="679.7 155.33 718.2 155.33 718.2 246.33 666.2 246.33 666.2 183.53 679.7 183.53 679.7 155.33"/><rect class="cls-1" x="836.2" y="2.53" width="60.8" height="102.7"/><rect class="cls-1" x="836.2" y="105.23" width="60.8" height="91.7"/><rect class="cls-1" x="836.2" y="196.93" width="60.8" height="80.7"/><rect class="cls-1" x="614" y="264.73" width="69.8" height="93.6"/><rect class="cls-1" x="614" y="358.33" width="104.1" height="154.2"/><rect class="cls-1" x="765.5" y="380.53" width="131.4" height="131.9"/><rect class="cls-1" x="897" y="277.63" width="229" height="234.8"/><rect class="cls-1" x="765.5" y="277.63" width="78" height="103"/><rect class="cls-1" x="843.5" y="277.63" width="53.4" height="103"/><rect class="cls-1" x="813.7" y="246.33" width="22.5" height="31.3"/><rect class="cls-1" x="765.5" y="246.33" width="48.2" height="31.3"/><rect class="cls-1" x="683.9" y="298.03" width="34.3" height="60.2"/><rect class="cls-1" x="683.9" y="279.83" width="34.3" height="18.3"/><rect class="cls-1" x="683.9" y="264.73" width="34.3" height="15.1"/><rect class="cls-1" x="614" y="246.33" width="104.1" height="18.4"/><polygon class="cls-1" points="103.4 776.83 206.7 776.83 206.7 791.03 230 791.03 230 879.83 103.4 879.83 103.4 776.83"/><rect class="cls-1" x="346.7" y="791.03" width="152.5" height="109.9"/><rect class="cls-1" x="499.2" y="791.03" width="109.8" height="109.9"/><rect class="cls-1" x="609" y="791.03" width="107.7" height="109.9"/><rect class="cls-1" x="716.7" y="791.03" width="180.3" height="109.9"/><rect class="cls-1" x="840.9" y="652.63" width="56.1" height="93"/><rect class="cls-1" x="719.7" y="652.63" width="53.1" height="93"/><rect class="cls-1" x="632.2" y="652.63" width="87.4" height="93"/><rect class="cls-1" x="578.2" y="652.63" width="54" height="93"/><rect class="cls-1" x="526.4" y="652.63" width="51.9" height="93"/><rect class="cls-1" x="498.2" y="652.63" width="28.1" height="93"/><rect class="cls-1" x="458.9" y="652.63" width="39.4" height="93"/><polygon class="cls-1" points="458.9 652.63 458.9 745.63 425.7 745.63 425.7 717.73 413.2 717.73 413.2 652.63 458.9 652.63"/><rect class="cls-1" x="390.4" y="717.73" width="35.3" height="28"/><polygon class="cls-1" points="346.7 652.63 346.7 745.63 390.4 745.63 390.4 717.73 413.2 717.73 413.2 652.63 346.7 652.63"/><rect class="cls-1" x="230" y="656.23" width="3.6" height="89.4"/><rect class="cls-1" x="103.4" y="445.53" width="89.6" height="65.9"/><polygon class="cls-1" points="230 511.43 193.1 511.43 193.1 445.53 229.8 445.53 230 511.43"/><rect class="cls-1" x="193.2" y="547.93" width="26.6" height="71.8"/><rect class="cls-1" x="772.7" y="652.63" width="68" height="93"/><line class="cls-2" x1="777.7" y1="696.53" x2="811" y2="696.53"/><line class="cls-2" x1="835.7" y1="696.53" x2="811" y2="696.53"/><line class="cls-2" x1="777.7" y1="700.76" x2="811" y2="700.76"/><line class="cls-2" x1="835.7" y1="700.76" x2="811" y2="700.76"/><line class="cls-2" x1="777.7" y1="704.99" x2="811" y2="704.99"/><line class="cls-2" x1="835.7" y1="704.99" x2="811" y2="704.99"/><line class="cls-2" x1="777.7" y1="709.22" x2="811" y2="709.22"/><line class="cls-2" x1="835.7" y1="709.22" x2="811" y2="709.22"/><line class="cls-2" x1="777.7" y1="713.44" x2="811" y2="713.44"/><line class="cls-2" x1="835.7" y1="713.44" x2="811" y2="713.44"/><line class="cls-2" x1="777.7" y1="717.67" x2="811" y2="717.67"/><line class="cls-2" x1="835.7" y1="717.67" x2="811" y2="717.67"/><line class="cls-2" x1="777.7" y1="721.9" x2="811" y2="721.9"/><line class="cls-2" x1="835.7" y1="721.9" x2="811" y2="721.9"/><line class="cls-2" x1="777.7" y1="726.12" x2="811" y2="726.12"/><line class="cls-2" x1="835.7" y1="726.12" x2="811" y2="726.12"/><line class="cls-2" x1="777.7" y1="730.35" x2="811" y2="730.35"/><line class="cls-2" x1="835.7" y1="730.35" x2="811" y2="730.35"/><line class="cls-2" x1="777.7" y1="734.58" x2="811" y2="734.58"/><line class="cls-2" x1="835.7" y1="734.58" x2="811" y2="734.58"/><line class="cls-2" x1="777.7" y1="738.81" x2="811" y2="738.81"/><line class="cls-2" x1="835.7" y1="738.81" x2="811" y2="738.81"/><line class="cls-2" x1="777.7" y1="743.03" x2="811" y2="743.03"/><line class="cls-2" x1="835.7" y1="743.03" x2="811" y2="743.03"/><rect class="cls-1" x="278.7" y="652.63" width="68" height="93"/><line class="cls-2" x1="283.7" y1="696.53" x2="317" y2="696.53"/><line class="cls-2" x1="341.7" y1="696.53" x2="317" y2="696.53"/><line class="cls-2" x1="283.7" y1="700.76" x2="317" y2="700.76"/><line class="cls-2" x1="341.7" y1="700.76" x2="317" y2="700.76"/><line class="cls-2" x1="283.7" y1="704.99" x2="317" y2="704.99"/><line class="cls-2" x1="341.7" y1="704.99" x2="317" y2="704.99"/><line class="cls-2" x1="283.7" y1="709.22" x2="317" y2="709.22"/><line class="cls-2" x1="341.7" y1="709.22" x2="317" y2="709.22"/><line class="cls-2" x1="283.7" y1="713.44" x2="317" y2="713.44"/><line class="cls-2" x1="341.7" y1="713.44" x2="317" y2="713.44"/><line class="cls-2" x1="283.7" y1="717.67" x2="317" y2="717.67"/><line class="cls-2" x1="341.7" y1="717.67" x2="317" y2="717.67"/><line class="cls-2" x1="283.7" y1="721.9" x2="317" y2="721.9"/><line class="cls-2" x1="341.7" y1="721.9" x2="317" y2="721.9"/><line class="cls-2" x1="283.7" y1="726.12" x2="317" y2="726.12"/><line class="cls-2" x1="341.7" y1="726.12" x2="317" y2="726.12"/><line class="cls-2" x1="283.7" y1="730.35" x2="317" y2="730.35"/><line class="cls-2" x1="341.7" y1="730.35" x2="317" y2="730.35"/><line class="cls-2" x1="283.7" y1="734.58" x2="317" y2="734.58"/><line class="cls-2" x1="341.7" y1="734.58" x2="317" y2="734.58"/><line class="cls-2" x1="283.7" y1="738.81" x2="317" y2="738.81"/><line class="cls-2" x1="341.7" y1="738.81" x2="317" y2="738.81"/><line class="cls-2" x1="283.7" y1="743.03" x2="317" y2="743.03"/><line class="cls-2" x1="341.7" y1="743.03" x2="317" y2="743.03"/><rect class="cls-3" x="716.9" y="385.83" width="2.6" height="14.3"/><rect class="cls-3" x="716.9" y="329.03" width="2.6" height="14.3"/><rect class="cls-3" x="682.5" y="329.03" width="2.6" height="14.3"/><rect class="cls-3" x="764.2" y="415.83" width="2.6" height="14.3"/><rect class="cls-3" x="764.2" y="328.53" width="2.6" height="14.3"/><rect class="cls-3" x="764.2" y="249.33" width="2.6" height="14.3"/><rect class="cls-3" x="834.9" y="67.33" width="2.6" height="14.3"/><rect class="cls-3" x="834.9" y="127.13" width="2.6" height="14.3"/><rect class="cls-3" x="834.9" y="254.83" width="2.6" height="14.3"/><rect class="cls-3" x="842.2" y="337.53" width="2.6" height="14.3"/><rect class="cls-3" x="727.5" y="511.13" width="28.6" height="2.6"/><rect class="cls-3" x="916" y="511.13" width="28.6" height="2.6"/><rect class="cls-3" x="775.3" y="1.33" width="28.6" height="2.6"/><rect class="cls-3" x="235" y="101.33" width="33.4" height="2.6"/><rect class="cls-3" x="374.6" y="154.63" width="14.3" height="2.6"/><rect class="cls-3" x="273.1" y="278.73" width="2.6" height="14.3"/><rect class="cls-3" x="373.6" y="109.93" width="14.3" height="2.6"/><rect class="cls-3" x="464.8" y="154.63" width="14.3" height="2.6"/><rect class="cls-3" x="555" y="154.63" width="14.3" height="2.6"/><rect class="cls-3" x="620.3" y="154.63" width="14.3" height="2.6"/><rect class="cls-3" x="627.4" y="263.43" width="14.3" height="2.6"/><rect class="cls-3" x="686.8" y="296.83" width="14.3" height="2.6"/><rect class="cls-3" x="686.7" y="278.53" width="14.3" height="2.6"/><rect class="cls-3" x="651.1" y="154.63" width="14.3" height="2.6"/><rect class="cls-3" x="699.8" y="154.63" width="14.3" height="2.6"/><rect class="cls-3" x="688.2" y="109.83" width="14.3" height="2.6"/><rect class="cls-3" x="555" y="109.93" width="14.3" height="2.6"/><rect class="cls-3" x="228.6" y="405.03" width="2.6" height="33.4"/><rect class="cls-3" x="218.4" y="549.83" width="2.6" height="32"/><rect class="cls-3" x="218.4" y="585.33" width="2.6" height="32"/><rect class="cls-3" x="345.5" y="549.83" width="2.6" height="32"/><rect class="cls-3" x="345.5" y="585.33" width="2.6" height="32"/><rect class="cls-3" x="191.7" y="549.83" width="2.6" height="32"/><rect class="cls-3" x="191.7" y="585.33" width="2.6" height="32"/><rect class="cls-3" x="191.9" y="458.63" width="2.6" height="14.3"/><rect class="cls-3" x="156.7" y="444.33" width="14.3" height="2.6"/><rect class="cls-3" x="120.7" y="510.13" width="14.3" height="2.6"/><rect class="cls-3" x="120.7" y="651.43" width="14.3" height="2.6"/><rect class="cls-3" x="210.5" y="789.73" width="14.3" height="2.6"/><rect class="cls-3" x="375.3" y="789.73" width="14.3" height="2.6"/><rect class="cls-3" x="554.1" y="789.73" width="14.3" height="2.6"/><rect class="cls-3" x="643.8" y="789.73" width="14.3" height="2.6"/><rect class="cls-3" x="824.3" y="789.73" width="14.3" height="2.6"/><rect class="cls-3" x="369" y="744.43" width="14.3" height="2.6"/><rect class="cls-3" x="392.5" y="744.43" width="14.3" height="2.6"/><rect class="cls-3" x="430.7" y="744.43" width="14.3" height="2.6"/><rect class="cls-3" x="467.5" y="744.43" width="14.3" height="2.6"/><rect class="cls-3" x="504.4" y="744.33" width="14.3" height="2.6"/><rect class="cls-3" x="552.3" y="744.43" width="14.3" height="2.6"/><rect class="cls-3" x="599" y="744.33" width="14.3" height="2.6"/><rect class="cls-3" x="734" y="744.33" width="14.3" height="2.6"/><rect class="cls-3" x="868.5" y="744.33" width="14.3" height="2.6"/><rect class="cls-3" x="687.5" y="744.33" width="14.3" height="2.6"/><rect class="cls-3" x="233.5" y="797.93" width="33.4" height="2.6"/><rect class="cls-3" x="895.7" y="752.33" width="2.6" height="32"/><rect class="cls-1" x="274.3" y="264.73" width="31.5" height="38.8"/><polygon class="cls-2" points="897 2.53 346.7 2.53 346.7 102.43 230 102.43 230 19.83 103.4 19.83 103.4 511.43 193.2 511.43 193.2 652.63 103.4 652.63 103.4 879.83 230 879.83 230 799.43 346.7 799.43 346.7 900.93 897 900.93 897 652.63 346.7 652.63 346.7 264.73 614 264.73 614 512.43 1126 512.43 1126 277.63 897 277.63 897 2.53"/><rect class="cls-1" x="278.7" y="155.63" width="68" height="108"/><line class="cls-2" x1="283.7" y1="158.53" x2="317" y2="158.53"/><line class="cls-2" x1="341.7" y1="158.53" x2="317" y2="158.53"/><line class="cls-2" x1="283.7" y1="162.76" x2="317" y2="162.76"/><line class="cls-2" x1="341.7" y1="162.76" x2="317" y2="162.76"/><line class="cls-2" x1="283.7" y1="166.99" x2="317" y2="166.99"/><line class="cls-2" x1="341.7" y1="166.99" x2="317" y2="166.99"/><line class="cls-2" x1="283.7" y1="171.22" x2="317" y2="171.22"/><line class="cls-2" x1="341.7" y1="171.22" x2="317" y2="171.22"/><line class="cls-2" x1="283.7" y1="175.44" x2="317" y2="175.44"/><line class="cls-2" x1="341.7" y1="175.44" x2="317" y2="175.44"/><line class="cls-2" x1="283.7" y1="179.67" x2="317" y2="179.67"/><line class="cls-2" x1="341.7" y1="179.67" x2="317" y2="179.67"/><line class="cls-2" x1="283.7" y1="183.9" x2="317" y2="183.9"/><line class="cls-2" x1="341.7" y1="183.9" x2="317" y2="183.9"/><line class="cls-2" x1="283.7" y1="188.12" x2="317" y2="188.12"/><line class="cls-2" x1="341.7" y1="188.12" x2="317" y2="188.12"/><line class="cls-2" x1="283.7" y1="192.35" x2="317" y2="192.35"/><line class="cls-2" x1="341.7" y1="192.35" x2="317" y2="192.35"/><line class="cls-2" x1="283.7" y1="196.58" x2="317" y2="196.58"/><line class="cls-2" x1="341.7" y1="196.58" x2="317" y2="196.58"/><line class="cls-2" x1="283.7" y1="200.81" x2="317" y2="200.81"/><line class="cls-2" x1="341.7" y1="200.81" x2="317" y2="200.81"/><line class="cls-2" x1="283.7" y1="205.03" x2="317" y2="205.03"/><line class="cls-2" x1="341.7" y1="205.03" x2="317" y2="205.03"/><rect class="cls-1" x="765.5" y="153.18" width="70.2" height="93"/><line class="cls-2" x1="770.66" y1="156.08" x2="805.04" y2="156.08"/><line class="cls-2" x1="830.54" y1="156.08" x2="805.04" y2="156.08"/><line class="cls-2" x1="770.66" y1="160.31" x2="805.04" y2="160.31"/><line class="cls-2" x1="830.54" y1="160.31" x2="805.04" y2="160.31"/><line class="cls-2" x1="770.66" y1="164.54" x2="805.04" y2="164.54"/><line class="cls-2" x1="830.54" y1="164.54" x2="805.04" y2="164.54"/><line class="cls-2" x1="770.66" y1="168.77" x2="805.04" y2="168.77"/><line class="cls-2" x1="830.54" y1="168.77" x2="805.04" y2="168.77"/><line class="cls-2" x1="770.66" y1="172.99" x2="805.04" y2="172.99"/><line class="cls-2" x1="830.54" y1="172.99" x2="805.04" y2="172.99"/><line class="cls-2" x1="770.66" y1="177.22" x2="805.04" y2="177.22"/><line class="cls-2" x1="830.54" y1="177.22" x2="805.04" y2="177.22"/><line class="cls-2" x1="770.66" y1="181.45" x2="805.04" y2="181.45"/><line class="cls-2" x1="830.54" y1="181.45" x2="805.04" y2="181.45"/><line class="cls-2" x1="770.66" y1="185.67" x2="805.04" y2="185.67"/><line class="cls-2" x1="830.54" y1="185.67" x2="805.04" y2="185.67"/><line class="cls-2" x1="770.66" y1="189.9" x2="805.04" y2="189.9"/><line class="cls-2" x1="830.54" y1="189.9" x2="805.04" y2="189.9"/><line class="cls-2" x1="770.66" y1="194.13" x2="805.04" y2="194.13"/><line class="cls-2" x1="830.54" y1="194.13" x2="805.04" y2="194.13"/><line class="cls-2" x1="770.66" y1="198.36" x2="805.04" y2="198.36"/><line class="cls-2" x1="830.54" y1="198.36" x2="805.04" y2="198.36"/><line class="cls-2" x1="770.66" y1="202.58" x2="805.04" y2="202.58"/><line class="cls-2" x1="830.54" y1="202.58" x2="805.04" y2="202.58"/></g><g id="Label"><path class="cls-3" d="M425.9,601.33H397.8v-51.4h28.1v3.3H401.4v19.4h23.1v3.3H401.4v22h24.5Z"/><path class="cls-3" d="M457.7,575.43h18.9v23.4a43,43,0,0,1-16.8,3.2c-8.1,0-14.3-2.3-18.7-6.9s-6.5-11.1-6.5-19.5a29.68,29.68,0,0,1,3.2-13.9,22.53,22.53,0,0,1,9.2-9.4,28.17,28.17,0,0,1,13.8-3.3,35.16,35.16,0,0,1,15.1,3.1l-1.4,3.2a32.36,32.36,0,0,0-13.9-3.1c-6.8,0-12.1,2.1-16.1,6.3s-6,9.8-6,16.9c0,7.7,1.9,13.6,5.7,17.5s9.3,5.9,16.6,5.9a33.3,33.3,0,0,0,12.1-2v-18.1H457.6l.1-3.3Z"/><path class="cls-3" d="M387.8,56.83h-7V44h7v.8h-6.1v4.9h5.8v.8h-5.8V56h6.1Z"/><path class="cls-3" d="M390.3,56.13c0-.6.2-.9.7-.9s.7.3.7.9-.2.9-.7.9S390.3,56.73,390.3,56.13Z"/><path class="cls-3" d="M404.3,56.83h-.9v-6.3h-7.5v6.3H395V44h.9v5.7h7.5V44h.9Z"/><path class="cls-3" d="M413.1,50.43h4.7v5.9a10.84,10.84,0,0,1-4.2.8,6.43,6.43,0,0,1-4.7-1.7,6.74,6.74,0,0,1-1.6-4.9,7.84,7.84,0,0,1,.8-3.5,5.12,5.12,0,0,1,2.3-2.3,7.42,7.42,0,0,1,3.4-.8,9.21,9.21,0,0,1,3.8.8l-.4.8a8.53,8.53,0,0,0-3.5-.8,5.06,5.06,0,0,0-4,1.6,6,6,0,0,0-1.5,4.2,6.45,6.45,0,0,0,1.4,4.4,5.38,5.38,0,0,0,4.2,1.5,8.53,8.53,0,0,0,3-.5v-4.5H413l.1-1Z"/><path class="cls-3" d="M420.6,56.13c0-.6.2-.9.7-.9s.7.3.7.9-.2.9-.7.9S420.6,56.73,420.6,56.13Z"/><path class="cls-3" d="M432.7,50.43a9.36,9.36,0,0,1-1,5,3.37,3.37,0,0,1-3.1,1.6,3.56,3.56,0,0,1-3.1-1.7,9.6,9.6,0,0,1-1-5,9.6,9.6,0,0,1,1-5,3.37,3.37,0,0,1,3.1-1.6,3.45,3.45,0,0,1,3.1,1.7A9.6,9.6,0,0,1,432.7,50.43Zm-7.3,0a9.55,9.55,0,0,0,.8,4.4,2.59,2.59,0,0,0,2.4,1.4,2.51,2.51,0,0,0,2.4-1.5,9.85,9.85,0,0,0,.8-4.4A9.67,9.67,0,0,0,431,46a2.67,2.67,0,0,0-4.8,0A10.16,10.16,0,0,0,425.4,50.43Z"/><path class="cls-3" d="M443,50.43a9.36,9.36,0,0,1-1,5,3.37,3.37,0,0,1-3.1,1.6,3.56,3.56,0,0,1-3.1-1.7,9.6,9.6,0,0,1-1-5,9.6,9.6,0,0,1,1-5,3.37,3.37,0,0,1,3.1-1.6,3.45,3.45,0,0,1,3.1,1.7A9.6,9.6,0,0,1,443,50.43Zm-7.3,0a9.55,9.55,0,0,0,.8,4.4,2.59,2.59,0,0,0,2.4,1.4,2.51,2.51,0,0,0,2.4-1.5,9.85,9.85,0,0,0,.8-4.4,9.67,9.67,0,0,0-.8-4.3,2.67,2.67,0,0,0-4.8,0A10.16,10.16,0,0,0,435.7,50.43Z"/><path class="cls-3" d="M454,53.63h-2.2v3.3H451v-3.3h-6.6V53l6.4-9.1h1.1v8.9h2.2v.8Zm-3-.8v-3.7c0-1.8,0-3.3.1-4.5H451c-.1.2-.5.8-1.1,1.7l-4.5,6.5Z"/><path class="cls-3" d="M394.4,239.53v7H381.6v-7h.8v6.1h4.9v-5.8h.8v5.8h5.5v-6.1Z"/><path class="cls-3" d="M393.7,237c-.6,0-.9-.2-.9-.7s.3-.7.9-.7.9.2.9.7S394.3,237,393.7,237Z"/><path class="cls-3" d="M394.4,223v.9h-6.2v7.5h6.3v.9H381.7v-.9h5.7v-7.5h-5.7V223Z"/><path class="cls-3" d="M388.1,214.33v-4.7H394a10.84,10.84,0,0,1,.8,4.2,6.43,6.43,0,0,1-1.7,4.7,6.74,6.74,0,0,1-4.9,1.6,7.85,7.85,0,0,1-3.5-.8,5.12,5.12,0,0,1-2.3-2.3,7.42,7.42,0,0,1-.8-3.4,9.21,9.21,0,0,1,.8-3.8l.8.4a8.53,8.53,0,0,0-.8,3.5,5.06,5.06,0,0,0,1.6,4,6,6,0,0,0,4.2,1.5,6.45,6.45,0,0,0,4.4-1.4,5.38,5.38,0,0,0,1.5-4.2,8.53,8.53,0,0,0-.5-3h-4.5v3.8h-1Z"/><path class="cls-3" d="M393.7,206.83c-.6,0-.9-.2-.9-.7s.3-.7.9-.7.9.2.9.7S394.3,206.83,393.7,206.83Z"/><path class="cls-3" d="M394.4,198.43v.9H385a23.48,23.48,0,0,1-2.6-.1l.3.3q.15.15,2.1,2.7l-.6.5-2.6-3.5v-.8Z"/><path class="cls-3" d="M386.7,189.43a4.4,4.4,0,0,1,1-3.2,3.78,3.78,0,0,1,2.7-1.2,4.14,4.14,0,0,1,3.1,1.2,4.66,4.66,0,0,1,1.1,3.4,11,11,0,0,1-.2,1.8,3.75,3.75,0,0,1-.5,1.4H393c.3-.6.5-1.2.7-1.7a4.14,4.14,0,0,0,.2-1.6,4,4,0,0,0-.9-2.7,3,3,0,0,0-2.4-1,2.46,2.46,0,0,0-2.2,1,4.55,4.55,0,0,0-.8,2.7,9.86,9.86,0,0,0,.3,2.4l-.3.5-5.9-.5v-6.2h.8v5.4l4.5.4A10.39,10.39,0,0,1,386.7,189.43Z"/><path class="cls-3" d="M394.7,178.43a3.94,3.94,0,0,1-1.3,3.2,5.22,5.22,0,0,1-3.6,1.2,5.31,5.31,0,0,1-3.7-1.2,4.16,4.16,0,0,1-1.3-3.3,6.72,6.72,0,0,1,.4-2.4l.8.2a6,6,0,0,0-.4,2.2,3.39,3.39,0,0,0,1.1,2.7,4.77,4.77,0,0,0,3.1.9,4.48,4.48,0,0,0,3-.9,3.1,3.1,0,0,0,1.1-2.5,6,6,0,0,0-.5-2.4h.8A3.75,3.75,0,0,1,394.7,178.43Z"/><path class="cls-3" d="M870.2,83.63v7H857.4v-7h.8v6.1h4.9v-5.8h.8v5.8h5.5v-6.1Z"/><path class="cls-3" d="M869.5,81.13c-.6,0-.9-.2-.9-.7s.3-.7.9-.7.9.2.9.7S870.2,81.13,869.5,81.13Z"/><path class="cls-3" d="M870.2,67.13V68h-6.3v7.5h6.3v.9H857.4v-.9h5.7V68h-5.7v-.9Z"/><path class="cls-3" d="M863.7,58.43v-4.7h5.9a10.84,10.84,0,0,1,.8,4.2,6.43,6.43,0,0,1-1.7,4.7,6.74,6.74,0,0,1-4.9,1.6,7.85,7.85,0,0,1-3.5-.8,5.12,5.12,0,0,1-2.3-2.3,7.42,7.42,0,0,1-.8-3.4,9.21,9.21,0,0,1,.8-3.8l.8.4a8.53,8.53,0,0,0-.8,3.5,5.06,5.06,0,0,0,1.6,4,5.84,5.84,0,0,0,4.2,1.5,6.45,6.45,0,0,0,4.4-1.4,5.38,5.38,0,0,0,1.5-4.2,8.53,8.53,0,0,0-.5-3h-4.5v3.8l-1-.1Z"/><path class="cls-3" d="M869.5,50.93c-.6,0-.9-.2-.9-.7s.3-.7.9-.7.9.2.9.7S870.2,50.93,869.5,50.93Z"/><path class="cls-3" d="M863.7,38.73a9.36,9.36,0,0,1,5,1,3.37,3.37,0,0,1,1.6,3.1,3.56,3.56,0,0,1-1.7,3.1,13,13,0,0,1-10,0,3.37,3.37,0,0,1-1.6-3.1,3.45,3.45,0,0,1,1.7-3.1A10.09,10.09,0,0,1,863.7,38.73Zm0,7.3a9.55,9.55,0,0,0,4.4-.8,2.59,2.59,0,0,0,1.4-2.4,2.51,2.51,0,0,0-1.5-2.4,9.85,9.85,0,0,0-4.4-.8,9.67,9.67,0,0,0-4.3.8,2.67,2.67,0,0,0,0,4.8A10.48,10.48,0,0,0,863.7,46Z"/><path class="cls-3" d="M863.7,28.53a9.36,9.36,0,0,1,5,1,3.37,3.37,0,0,1,1.6,3.1,3.56,3.56,0,0,1-1.7,3.1,13,13,0,0,1-10,0,3.37,3.37,0,0,1-1.6-3.1,3.45,3.45,0,0,1,1.7-3.1A10.09,10.09,0,0,1,863.7,28.53Zm0,7.3a9.55,9.55,0,0,0,4.4-.8,2.59,2.59,0,0,0,1.4-2.4,2.51,2.51,0,0,0-1.5-2.4,9.85,9.85,0,0,0-4.4-.8,9.67,9.67,0,0,0-4.3.8,2.67,2.67,0,0,0,0,4.8A10.48,10.48,0,0,0,863.7,35.83Z"/><path class="cls-3" d="M870.2,24.53l-12-5.3v7.3h-.8v-8.3h.6l12.2,5.3Z"/><path class="cls-3" d="M870.2,181.33v7H857.4v-7h.8v6.1h4.9v-5.8h.8v5.8h5.5v-6.1Z"/><path class="cls-3" d="M869.5,178.73c-.6,0-.9-.2-.9-.7s.3-.7.9-.7.9.2.9.7S870.2,178.73,869.5,178.73Z"/><path class="cls-3" d="M870.2,164.83v.9h-6.3v7.5h6.3v.9H857.4v-.9h5.7v-7.5h-5.7v-.9Z"/><path class="cls-3" d="M863.7,156.13v-4.7h5.9a10.84,10.84,0,0,1,.8,4.2,6.43,6.43,0,0,1-1.7,4.7,6.74,6.74,0,0,1-4.9,1.6,7.85,7.85,0,0,1-3.5-.8,5.12,5.12,0,0,1-2.3-2.3,7.42,7.42,0,0,1-.8-3.4,9.21,9.21,0,0,1,.8-3.8l.8.4a8.53,8.53,0,0,0-.8,3.5,5.06,5.06,0,0,0,1.6,4,5.84,5.84,0,0,0,4.2,1.5,6.45,6.45,0,0,0,4.4-1.4,5.38,5.38,0,0,0,1.5-4.2,8.53,8.53,0,0,0-.5-3h-4.5v3.8h-1Z"/><path class="cls-3" d="M869.5,148.53c-.6,0-.9-.2-.9-.7s.3-.7.9-.7.9.2.9.7S870.2,148.53,869.5,148.53Z"/><path class="cls-3" d="M863.7,136.43a9.36,9.36,0,0,1,5,1,3.37,3.37,0,0,1,1.6,3.1,3.56,3.56,0,0,1-1.7,3.1,13,13,0,0,1-10,0,3.37,3.37,0,0,1-1.6-3.1,3.45,3.45,0,0,1,1.7-3.1A10.09,10.09,0,0,1,863.7,136.43Zm0,7.3a9.55,9.55,0,0,0,4.4-.8,2.59,2.59,0,0,0,1.4-2.4,2.51,2.51,0,0,0-1.5-2.4,9.85,9.85,0,0,0-4.4-.8,9.67,9.67,0,0,0-4.3.8,2.67,2.67,0,0,0,0,4.8A10.48,10.48,0,0,0,863.7,143.73Z"/><path class="cls-3" d="M863.7,126.13a9.36,9.36,0,0,1,5,1,3.37,3.37,0,0,1,1.6,3.1,3.56,3.56,0,0,1-1.7,3.1,13,13,0,0,1-10,0,3.37,3.37,0,0,1-1.6-3.1,3.45,3.45,0,0,1,1.7-3.1A10.09,10.09,0,0,1,863.7,126.13Zm0,7.3a9.55,9.55,0,0,0,4.4-.8,2.59,2.59,0,0,0,1.4-2.4,2.51,2.51,0,0,0-1.5-2.4,9.85,9.85,0,0,0-4.4-.8,9.67,9.67,0,0,0-4.3.8,2.67,2.67,0,0,0,0,4.8A10.48,10.48,0,0,0,863.7,133.43Z"/><path class="cls-3" d="M857.2,120a4,4,0,0,1,.8-2.6,2.76,2.76,0,0,1,2.3-1,2.52,2.52,0,0,1,1.7.6,5.4,5.4,0,0,1,1.4,2,8.31,8.31,0,0,1,1.5-2.4,2.72,2.72,0,0,1,2-.7,3.1,3.1,0,0,1,2.5,1.1,5.45,5.45,0,0,1,0,6,3.25,3.25,0,0,1-2.6,1,2.88,2.88,0,0,1-2-.7,5.11,5.11,0,0,1-1.5-2.3,5.4,5.4,0,0,1-1.4,2,2.91,2.91,0,0,1-3.4.1,3.61,3.61,0,0,1-1.1-1.3A5,5,0,0,1,857.2,120Zm.8,0a3.17,3.17,0,0,0,.6,2,2.14,2.14,0,0,0,1.7.8,2,2,0,0,0,1.1-.3,6.47,6.47,0,0,0,.9-.8,4.88,4.88,0,0,0,.9-1.8,7.77,7.77,0,0,0-1.2-2.1,1.91,1.91,0,0,0-1.6-.6,2.06,2.06,0,0,0-1.7.7A3.3,3.3,0,0,0,858,120Zm9,3.1a2.56,2.56,0,0,0,1.9-.8,3.17,3.17,0,0,0,.7-2.3,3.33,3.33,0,0,0-.7-2.3,2.32,2.32,0,0,0-1.9-.9,2.41,2.41,0,0,0-1.8.7,7.24,7.24,0,0,0-1.4,2.7,6.06,6.06,0,0,0,1.4,2.3A2.47,2.47,0,0,0,867,123.13Z"/><path class="cls-3" d="M870.2,266.13v7H857.4v-7h.8v6.1h4.9v-5.8h.8v5.8h5.5v-6.1Z"/><path class="cls-3" d="M869.5,263.63c-.6,0-.9-.2-.9-.7s.3-.7.9-.7.9.2.9.7S870.2,263.63,869.5,263.63Z"/><path class="cls-3" d="M870.2,249.63v.9h-6.3V258h6.3v.9H857.4V258h5.7v-7.5h-5.7v-.9Z"/><path class="cls-3" d="M863.7,240.93v-4.7h5.9a10.84,10.84,0,0,1,.8,4.2,6.43,6.43,0,0,1-1.7,4.7,6.74,6.74,0,0,1-4.9,1.6,7.85,7.85,0,0,1-3.5-.8,5.12,5.12,0,0,1-2.3-2.3,7.42,7.42,0,0,1-.8-3.4,9.21,9.21,0,0,1,.8-3.8l.8.4a8.53,8.53,0,0,0-.8,3.5,5.06,5.06,0,0,0,1.6,4,5.84,5.84,0,0,0,4.2,1.5,6.45,6.45,0,0,0,4.4-1.4,5.38,5.38,0,0,0,1.5-4.2,8.53,8.53,0,0,0-.5-3h-4.5V241h-1Z"/><path class="cls-3" d="M869.5,233.33c-.6,0-.9-.2-.9-.7s.3-.7.9-.7.9.2.9.7S870.2,233.33,869.5,233.33Z"/><path class="cls-3" d="M863.7,221.23a9.36,9.36,0,0,1,5,1,3.37,3.37,0,0,1,1.6,3.1,3.56,3.56,0,0,1-1.7,3.1,13,13,0,0,1-10,0,3.37,3.37,0,0,1-1.6-3.1,3.45,3.45,0,0,1,1.7-3.1A10.09,10.09,0,0,1,863.7,221.23Zm0,7.3a9.55,9.55,0,0,0,4.4-.8,2.59,2.59,0,0,0,1.4-2.4,2.51,2.51,0,0,0-1.5-2.4,9.85,9.85,0,0,0-4.4-.8,9.67,9.67,0,0,0-4.3.8,2.67,2.67,0,0,0,0,4.8A10.48,10.48,0,0,0,863.7,228.53Z"/><path class="cls-3" d="M863.7,210.93a9.36,9.36,0,0,1,5,1,3.37,3.37,0,0,1,1.6,3.1,3.56,3.56,0,0,1-1.7,3.1,13,13,0,0,1-10,0A3.37,3.37,0,0,1,857,215a3.45,3.45,0,0,1,1.7-3.1A10.09,10.09,0,0,1,863.7,210.93Zm0,7.3a9.55,9.55,0,0,0,4.4-.8,2.59,2.59,0,0,0,1.4-2.4,2.51,2.51,0,0,0-1.5-2.4,9.85,9.85,0,0,0-4.4-.8,9.67,9.67,0,0,0-4.3.8,2.67,2.67,0,0,0,0,4.8A10.48,10.48,0,0,0,863.7,218.23Z"/><path class="cls-3" d="M862.9,200.83a10.24,10.24,0,0,1,4.2.7,5.55,5.55,0,0,1,2.5,1.9,5.94,5.94,0,0,1,.8,3.1,8.8,8.8,0,0,1-.2,1.7h-.7c.1-.3.1-.6.2-.9a2.48,2.48,0,0,0,.1-.8,4,4,0,0,0-1.6-3.4,8.36,8.36,0,0,0-4.6-1.4v.1a3.74,3.74,0,0,1,1.3,1.5,4.14,4.14,0,0,1,.5,1.9,3.47,3.47,0,0,1-3.8,3.8,4.5,4.5,0,0,1-3.1-1.1,3.63,3.63,0,0,1-1.2-2.8,3.41,3.41,0,0,1,.7-2.2,5.75,5.75,0,0,1,1.9-1.5A6.68,6.68,0,0,1,862.9,200.83ZM858,205a2.79,2.79,0,0,0,.9,2.2,4,4,0,0,0,2.6.8,3.2,3.2,0,0,0,2.3-.8,3,3,0,0,0,.8-2.2,3.53,3.53,0,0,0-.4-1.7,3.18,3.18,0,0,0-1.1-1.2,2.66,2.66,0,0,0-1.3-.5,4.1,4.1,0,0,0-3.3,1.5A4.89,4.89,0,0,0,858,205Z"/><path class="cls-3" d="M658.2,342.53v7H645.4v-7h.8v6.1h4.9v-5.8h.8v5.8h5.5v-6.1Z"/><path class="cls-3" d="M657.7,340c-.6,0-.9-.2-.9-.7s.3-.7.9-.7.9.2.9.7C658.4,339.83,658.2,340,657.7,340Z"/><path class="cls-3" d="M658.2,326v.9h-6.3v7.5h6.3v.9H645.4v-.9h5.7v-7.5h-5.7V326Z"/><path class="cls-3" d="M651.9,317.33v-4.7h5.9a10.84,10.84,0,0,1,.8,4.2,6.43,6.43,0,0,1-1.7,4.7,6.74,6.74,0,0,1-4.9,1.6,7.85,7.85,0,0,1-3.5-.8,5.12,5.12,0,0,1-2.3-2.3,7.42,7.42,0,0,1-.8-3.4,9.21,9.21,0,0,1,.8-3.8l.8.4a8.53,8.53,0,0,0-.8,3.5,5.06,5.06,0,0,0,1.6,4,5.84,5.84,0,0,0,4.2,1.5,6.45,6.45,0,0,0,4.4-1.4,5.38,5.38,0,0,0,1.5-4.2,8.53,8.53,0,0,0-.5-3h-4.5v3.8h-1Z"/><path class="cls-3" d="M657.7,309.83c-.6,0-.9-.2-.9-.7s.3-.7.9-.7.9.2.9.7C658.4,309.53,658.2,309.83,657.7,309.83Z"/><path class="cls-3" d="M651.9,297.63a9.36,9.36,0,0,1,5,1,3.37,3.37,0,0,1,1.6,3.1,3.56,3.56,0,0,1-1.7,3.1,13,13,0,0,1-10,0,3.37,3.37,0,0,1-1.6-3.1,3.45,3.45,0,0,1,1.7-3.1A9.6,9.6,0,0,1,651.9,297.63Zm0,7.3a9.55,9.55,0,0,0,4.4-.8,2.59,2.59,0,0,0,1.4-2.4,2.51,2.51,0,0,0-1.5-2.4,9.85,9.85,0,0,0-4.4-.8,9.67,9.67,0,0,0-4.3.8,2.67,2.67,0,0,0,0,4.8A10.15,10.15,0,0,0,651.9,304.93Z"/><path class="cls-3" d="M658.2,290.63v.9h-9.4a23.48,23.48,0,0,1-2.6-.1l.3.3q.15.15,2.1,2.7l-.6.5-2.6-3.5v-.8Z"/><path class="cls-3" d="M655,276.33v2.2h3.3v.8H655v6.6h-.6l-9.1-6.4v-1.1h8.9v-2.2h.8v.1Zm-.8,3.1h-3.7c-1.8,0-3.3,0-4.5-.1v.1c.2.1.8.5,1.7,1.1l6.5,4.5Z"/><path class="cls-3" d="M636.4,451.63h-7v-12.8h7v.8h-6.1v4.9h5.8v.8h-5.8v5.5h6.1Z"/><path class="cls-3" d="M638.9,450.93c0-.6.2-.9.7-.9s.7.3.7.9-.2.9-.7.9S638.9,451.53,638.9,450.93Z"/><path class="cls-3" d="M652.9,451.63H652v-6.3h-7.5v6.3h-.9v-12.8h.9v5.7H652v-5.7h.9Z"/><path class="cls-3" d="M661.5,445.13h4.7V451a10.84,10.84,0,0,1-4.2.8,6.43,6.43,0,0,1-4.7-1.7,6.74,6.74,0,0,1-1.6-4.9,7.85,7.85,0,0,1,.8-3.5,5.12,5.12,0,0,1,2.3-2.3,7.42,7.42,0,0,1,3.4-.8,9.21,9.21,0,0,1,3.8.8l-.4.8a8.52,8.52,0,0,0-3.5-.8,5.06,5.06,0,0,0-4,1.6,5.84,5.84,0,0,0-1.5,4.2,6.45,6.45,0,0,0,1.4,4.4,5.38,5.38,0,0,0,4.2,1.5,8.53,8.53,0,0,0,3-.5v-4.5h-3.8l.1-1Z"/><path class="cls-3" d="M669.2,450.93c0-.6.2-.9.7-.9s.7.3.7.9-.2.9-.7.9S669.2,451.53,669.2,450.93Z"/><path class="cls-3" d="M681.2,445.13a9.36,9.36,0,0,1-1,5,3.37,3.37,0,0,1-3.1,1.6A3.56,3.56,0,0,1,674,450a13,13,0,0,1,0-10,3.37,3.37,0,0,1,3.1-1.6,3.45,3.45,0,0,1,3.1,1.7A9.84,9.84,0,0,1,681.2,445.13Zm-7.2,0a9.55,9.55,0,0,0,.8,4.4,2.59,2.59,0,0,0,2.4,1.4,2.51,2.51,0,0,0,2.4-1.5,9.85,9.85,0,0,0,.8-4.4,9.67,9.67,0,0,0-.8-4.3,2.67,2.67,0,0,0-4.8,0A10.16,10.16,0,0,0,674,445.13Z"/><path class="cls-3" d="M688.2,451.63h-.9v-9.4a23.49,23.49,0,0,1,.1-2.6l-.3.3q-.15.15-2.7,2.1l-.5-.6,3.5-2.6h.8v12.8Z"/><path class="cls-3" d="M701.2,441.83a2.79,2.79,0,0,1-.8,2,3.48,3.48,0,0,1-2,1v.1a4.39,4.39,0,0,1,2.4,1,2.52,2.52,0,0,1,.8,2.1,3.49,3.49,0,0,1-1.2,2.8,5.22,5.22,0,0,1-3.5,1,7.39,7.39,0,0,1-3.4-.7v-.9a4.28,4.28,0,0,0,1.7.6,12.76,12.76,0,0,0,1.7.2,4.56,4.56,0,0,0,2.9-.8,2.87,2.87,0,0,0,1-2.2,2.33,2.33,0,0,0-1-2,4.79,4.79,0,0,0-2.9-.7h-1.4v-.8h1.4a3.74,3.74,0,0,0,2.5-.8,2.58,2.58,0,0,0,.9-2.1,2.14,2.14,0,0,0-.8-1.7,3.17,3.17,0,0,0-2-.6,4.67,4.67,0,0,0-1.7.3,15,15,0,0,0-1.8.9l-.4-.6a7.68,7.68,0,0,1,1.8-1,5.22,5.22,0,0,1,2.1-.4,4.14,4.14,0,0,1,2.7.8A3.38,3.38,0,0,1,701.2,441.83Z"/><path class="cls-3" d="M124.6,719.13a4,4,0,0,1-1.6,3.4,6.78,6.78,0,0,1-4.2,1.3,12.15,12.15,0,0,1-4.8-.7v-1.2a12.42,12.42,0,0,0,4.7.8,4.83,4.83,0,0,0,3.3-1,3.17,3.17,0,0,0,1.2-2.5,2.73,2.73,0,0,0-.4-1.6,5.12,5.12,0,0,0-1.3-1.2,12.3,12.3,0,0,0-2.7-1.1,8.29,8.29,0,0,1-3.6-2,4.14,4.14,0,0,1-1-2.8,3.75,3.75,0,0,1,1.5-3.1,6.05,6.05,0,0,1,3.9-1.2,11.3,11.3,0,0,1,4.5.9l-.4,1a10.49,10.49,0,0,0-4.1-.9,4.48,4.48,0,0,0-3,.9,3,3,0,0,0-1.1,2.4,3.81,3.81,0,0,0,.3,1.6,2.89,2.89,0,0,0,1.1,1.1,19.63,19.63,0,0,0,2.7,1.2,23.86,23.86,0,0,1,3,1.3,3.61,3.61,0,0,1,1.5,1.5A4.14,4.14,0,0,1,124.6,719.13Z"/><path class="cls-3" d="M133.1,723.83a5.49,5.49,0,0,1-4.3-1.7,6.93,6.93,0,0,1-1.6-4.8,7.54,7.54,0,0,1,1.5-4.9,4.9,4.9,0,0,1,4-1.8,4.38,4.38,0,0,1,3.6,1.6,6.49,6.49,0,0,1,1.3,4.3v.9h-9.2a5.8,5.8,0,0,0,1.2,4,4.29,4.29,0,0,0,3.4,1.4,9.53,9.53,0,0,0,4-.9V723a8.93,8.93,0,0,1-2,.6A11.08,11.08,0,0,1,133.1,723.83Zm-.3-12.2a4.07,4.07,0,0,0-3,1.2,5.3,5.3,0,0,0-1.3,3.5h7.9a5.4,5.4,0,0,0-1-3.5A3.07,3.07,0,0,0,132.8,711.63Z"/><path class="cls-3" d="M146.1,710.63a11.13,11.13,0,0,1,1.7.2l-.2,1.1a8.81,8.81,0,0,0-1.7-.2,3.32,3.32,0,0,0-2.7,1.4,5.58,5.58,0,0,0-1,3.5v7H141v-12.7h1l.1,2.3h.1a5.77,5.77,0,0,1,1.7-2A4,4,0,0,1,146.1,710.63Z"/><path class="cls-3" d="M152.8,723.63l-4.9-12.7h1.2l3.3,8.7c.4,1.1.8,2.1,1,2.9h.1a19.64,19.64,0,0,1,1-2.9l3.3-8.6H159l-4.9,12.7h-1.3v-.1Z"/><path class="cls-3" d="M160.8,707.33c0-.8.2-1.1.7-1.1a.86.86,0,0,1,.6.3,1.08,1.08,0,0,1,.2.8,1.55,1.55,0,0,1-.2.8.6.6,0,0,1-.6.3C161.1,708.43,160.8,708,160.8,707.33Zm1.3,16.3h-1.2v-12.7h1.2Z"/><path class="cls-3" d="M171.4,723.83a5.8,5.8,0,0,1-4.3-1.7,6.6,6.6,0,0,1-1.5-4.8,6.74,6.74,0,0,1,1.6-4.9,5.94,5.94,0,0,1,4.4-1.8,8.66,8.66,0,0,1,3.2.6l-.3,1a8.82,8.82,0,0,0-2.9-.6A4.74,4.74,0,0,0,168,713c-.9.9-1.2,2.4-1.2,4.2a6,6,0,0,0,1.2,4,4.36,4.36,0,0,0,3.4,1.5,8.29,8.29,0,0,0,3.2-.6v1.1A7.31,7.31,0,0,1,171.4,723.83Z"/><path class="cls-3" d="M183,723.83a5.49,5.49,0,0,1-4.3-1.7,6.93,6.93,0,0,1-1.6-4.8,7.54,7.54,0,0,1,1.5-4.9,4.9,4.9,0,0,1,4-1.8,4.38,4.38,0,0,1,3.6,1.6,6.49,6.49,0,0,1,1.3,4.3v.9h-9.3a5.8,5.8,0,0,0,1.2,4,4.29,4.29,0,0,0,3.4,1.4,9.53,9.53,0,0,0,4-.9V723a8.93,8.93,0,0,1-2,.6A9.91,9.91,0,0,1,183,723.83Zm-.4-12.2a4.07,4.07,0,0,0-3,1.2,5.3,5.3,0,0,0-1.3,3.5h7.9a5.4,5.4,0,0,0-1-3.5A3,3,0,0,0,182.6,711.63Z"/><path class="cls-3" d="M122.4,736.13a6.64,6.64,0,0,0-5.1,2.1,7.93,7.93,0,0,0-1.9,5.6,9,9,0,0,0,1.7,5.7c1.1,1.4,2.8,2,5,2a12.9,12.9,0,0,0,4-.6V752a12.46,12.46,0,0,1-4.2.6,7.45,7.45,0,0,1-5.7-2.3,9.24,9.24,0,0,1-2.1-6.5,9.74,9.74,0,0,1,1-4.6,7.66,7.66,0,0,1,2.8-3.1,8.58,8.58,0,0,1,4.3-1.1,10.63,10.63,0,0,1,4.5.9l-.5,1.1A7.9,7.9,0,0,0,122.4,736.13Z"/><path class="cls-3" d="M134.8,752.63a5.49,5.49,0,0,1-4.3-1.7,6.93,6.93,0,0,1-1.6-4.8,7.54,7.54,0,0,1,1.5-4.9,4.9,4.9,0,0,1,4-1.8A4.38,4.38,0,0,1,138,741a6.49,6.49,0,0,1,1.3,4.3v.9h-9.2a5.8,5.8,0,0,0,1.2,4,4.29,4.29,0,0,0,3.4,1.4,9.53,9.53,0,0,0,4-.9v1.1a8.93,8.93,0,0,1-2,.6A10.08,10.08,0,0,1,134.8,752.63Zm-.2-12.2a4.07,4.07,0,0,0-3,1.2,5.3,5.3,0,0,0-1.3,3.5h7.9a5.4,5.4,0,0,0-1-3.5A3.07,3.07,0,0,0,134.6,740.43Z"/><path class="cls-3" d="M151.8,752.43v-8.3a4.25,4.25,0,0,0-.8-2.8,3.18,3.18,0,0,0-2.5-.9,4.16,4.16,0,0,0-3.3,1.2,5.45,5.45,0,0,0-1.1,3.7v7h-1.2v-12.7h1l.2,1.7h.1c.8-1.3,2.3-2,4.4-2,2.9,0,4.3,1.6,4.3,4.7v8.3l-1.1.1Z"/><path class="cls-3" d="M160.4,751.63a10.07,10.07,0,0,0,1.9-.2v.9a5.82,5.82,0,0,1-1.9.3,3.18,3.18,0,0,1-2.5-.9,4.25,4.25,0,0,1-.8-2.8v-8.3h-1.9v-.7l1.9-.5.6-2.9h.6v3.1H162v1h-3.7v8.1a4.2,4.2,0,0,0,.5,2.2A1.86,1.86,0,0,0,160.4,751.63Z"/><path class="cls-3" d="M170.2,752.63a5.49,5.49,0,0,1-4.3-1.7,6.93,6.93,0,0,1-1.6-4.8,7.54,7.54,0,0,1,1.5-4.9,4.9,4.9,0,0,1,4-1.8,4.38,4.38,0,0,1,3.6,1.6,6.49,6.49,0,0,1,1.3,4.3v.9h-9.2a5.8,5.8,0,0,0,1.2,4,4.29,4.29,0,0,0,3.4,1.4,9.53,9.53,0,0,0,4-.9v1.1a8.93,8.93,0,0,1-2,.6A10.08,10.08,0,0,1,170.2,752.63Zm-.2-12.2a4.07,4.07,0,0,0-3,1.2,5.3,5.3,0,0,0-1.3,3.5h7.9a5.4,5.4,0,0,0-1-3.5A3,3,0,0,0,170,740.43Z"/><path class="cls-3" d="M183.3,739.43a11.13,11.13,0,0,1,1.7.2l-.2,1.1a8.81,8.81,0,0,0-1.7-.2,3.32,3.32,0,0,0-2.7,1.4,5.58,5.58,0,0,0-1,3.5v7h-1.2v-12.8h1l.1,2.3h.1a5.77,5.77,0,0,1,1.7-2A3.79,3.79,0,0,1,183.3,739.43Z"/><path class="cls-3" d="M121.6,696.93h-7v-12.8h7v.8h-6.1v4.9h5.8v.8h-5.8v5.5h6.1Z"/><path class="cls-3" d="M124.1,696.23c0-.6.2-.9.7-.9s.7.3.7.9-.2.9-.7.9S124.1,696.83,124.1,696.23Z"/><path class="cls-3" d="M138.1,696.93h-.9v-6.3h-7.5v6.3h-.9v-12.8h.9v5.7h7.5v-5.7h.9Z"/><path class="cls-3" d="M146.8,690.53h4.7v5.9a10.84,10.84,0,0,1-4.2.8,6.43,6.43,0,0,1-4.7-1.7,6.74,6.74,0,0,1-1.6-4.9,7.85,7.85,0,0,1,.8-3.5,5.12,5.12,0,0,1,2.3-2.3,7.42,7.42,0,0,1,3.4-.8,9.21,9.21,0,0,1,3.8.8l-.4.8a8.53,8.53,0,0,0-3.5-.8,5.06,5.06,0,0,0-4,1.6,5.84,5.84,0,0,0-1.5,4.2,6.45,6.45,0,0,0,1.4,4.4,5.38,5.38,0,0,0,4.2,1.5,8.53,8.53,0,0,0,3-.5v-4.5h-3.8v-1Z"/><path class="cls-3" d="M154.3,696.23c0-.6.2-.9.7-.9s.7.3.7.9-.2.9-.7.9S154.3,696.83,154.3,696.23Z"/><path class="cls-3" d="M166.4,690.53a9.36,9.36,0,0,1-1,5,3.37,3.37,0,0,1-3.1,1.6,3.56,3.56,0,0,1-3.1-1.7,13,13,0,0,1,0-10,3.37,3.37,0,0,1,3.1-1.6,3.45,3.45,0,0,1,3.1,1.7A9.84,9.84,0,0,1,166.4,690.53Zm-7.3,0a9.55,9.55,0,0,0,.8,4.4,2.59,2.59,0,0,0,2.4,1.4,2.51,2.51,0,0,0,2.4-1.5,9.85,9.85,0,0,0,.8-4.4,9.67,9.67,0,0,0-.8-4.3,2.67,2.67,0,0,0-4.8,0A10.15,10.15,0,0,0,159.1,690.53Z"/><path class="cls-3" d="M176.4,696.93h-8v-.8l3.4-3.6a24,24,0,0,0,2-2.3,6,6,0,0,0,.9-1.5,4,4,0,0,0,.3-1.5,2.56,2.56,0,0,0-.8-1.9,2.72,2.72,0,0,0-2-.7,4.85,4.85,0,0,0-3.1,1.2l-.5-.6a5.62,5.62,0,0,1,3.6-1.4,3.57,3.57,0,0,1,2.6.9,3.38,3.38,0,0,1,1,2.5,5.73,5.73,0,0,1-.6,2.5,11,11,0,0,1-2.4,2.9l-3.3,3.4h6.9v.9Z"/><path class="cls-3" d="M182.4,689.23a4.4,4.4,0,0,1,3.2,1,3.78,3.78,0,0,1,1.2,2.7,4.14,4.14,0,0,1-1.2,3.1,4.66,4.66,0,0,1-3.4,1.1,11,11,0,0,1-1.8-.2,3.75,3.75,0,0,1-1.4-.5v-.9c.6.3,1.2.5,1.7.7a7.77,7.77,0,0,0,1.6.2,4,4,0,0,0,2.7-.9,3,3,0,0,0,1-2.4,2.46,2.46,0,0,0-1-2.2,4.55,4.55,0,0,0-2.7-.8,9.86,9.86,0,0,0-2.4.3l-.5-.3.5-5.9h6.2v.8h-5.4l-.4,4.5A11.41,11.41,0,0,1,182.4,689.23Z"/><path class="cls-3" d="M136.6,841.73h-7v-12.8h7v.8h-6.1v4.9h5.8v.8h-5.8v5.5h6.1Z"/><path class="cls-3" d="M139.1,841.13c0-.6.2-.9.7-.9s.7.3.7.9-.2.9-.7.9A.8.8,0,0,1,139.1,841.13Z"/><path class="cls-3" d="M153,841.73h-.9v-6.3h-7.5v6.3h-.9v-12.8h.9v5.7h7.5v-5.7h.9Z"/><path class="cls-3" d="M161.6,835.33h4.7v5.9a10.84,10.84,0,0,1-4.2.8,6.43,6.43,0,0,1-4.7-1.7,6.74,6.74,0,0,1-1.6-4.9,7.85,7.85,0,0,1,.8-3.5,5.12,5.12,0,0,1,2.3-2.3,7.42,7.42,0,0,1,3.4-.8,9.21,9.21,0,0,1,3.8.8l-.4.8a8.53,8.53,0,0,0-3.5-.8,5.06,5.06,0,0,0-4,1.6,5.84,5.84,0,0,0-1.5,4.2,6.45,6.45,0,0,0,1.4,4.4,5.38,5.38,0,0,0,4.2,1.5,8.53,8.53,0,0,0,3-.5v-4.5h-3.8v-1Z"/><path class="cls-3" d="M169.2,841.13c0-.6.2-.9.7-.9s.7.3.7.9-.2.9-.7.9A.8.8,0,0,1,169.2,841.13Z"/><path class="cls-3" d="M181.3,835.33a9.36,9.36,0,0,1-1,5,3.37,3.37,0,0,1-3.1,1.6,3.56,3.56,0,0,1-3.1-1.7,13,13,0,0,1,0-10,3.37,3.37,0,0,1,3.1-1.6,3.45,3.45,0,0,1,3.1,1.7C181.1,831.53,181.3,833.13,181.3,835.33Zm-7.2,0a9.55,9.55,0,0,0,.8,4.4,2.59,2.59,0,0,0,2.4,1.4,2.51,2.51,0,0,0,2.4-1.5,9.85,9.85,0,0,0,.8-4.4,9.67,9.67,0,0,0-.8-4.3,2.67,2.67,0,0,0-4.8,0A10.15,10.15,0,0,0,174.1,835.33Z"/><path class="cls-3" d="M191.4,841.73h-8v-.8l3.4-3.6a24,24,0,0,0,2-2.3,6,6,0,0,0,.9-1.5,4,4,0,0,0,.3-1.5,2.56,2.56,0,0,0-.8-1.9,2.72,2.72,0,0,0-2-.7,4.85,4.85,0,0,0-3.1,1.2l-.5-.6a5.62,5.62,0,0,1,3.6-1.4,3.57,3.57,0,0,1,2.6.9,3.38,3.38,0,0,1,1,2.5,5.73,5.73,0,0,1-.6,2.5,11,11,0,0,1-2.4,2.9l-3.3,3.4h6.9v.9Z"/><path class="cls-3" d="M202.7,838.53h-2.2v3.3h-.8v-3.3h-6.6v-.6l6.4-9.1h1.1v8.9h2.2l-.1.8Zm-3-.8V834c0-1.8,0-3.3.1-4.5h-.1c-.1.2-.5.8-1.1,1.7l-4.5,6.5Z"/><path class="cls-3" d="M486.7,734v7H473.9v-7h.8v6.1h4.9v-5.8h.8v5.8h5.5V734Z"/><path class="cls-3" d="M486,731.53c-.6,0-.9-.2-.9-.7s.3-.7.9-.7.9.2.9.7S486.7,731.53,486,731.53Z"/><path class="cls-3" d="M486.7,717.53v.9h-6.3v7.5h6.3v.9H473.9v-.9h5.7v-7.5h-5.7v-.9Z"/><path class="cls-3" d="M480.2,708.83v-4.7h5.9a10.84,10.84,0,0,1,.8,4.2,6.43,6.43,0,0,1-1.7,4.7,6.74,6.74,0,0,1-4.9,1.6,7.85,7.85,0,0,1-3.5-.8,5.12,5.12,0,0,1-2.3-2.3,7.42,7.42,0,0,1-.8-3.4,9.21,9.21,0,0,1,.8-3.8l.8.4a8.52,8.52,0,0,0-.8,3.5,5.06,5.06,0,0,0,1.6,4,5.84,5.84,0,0,0,4.2,1.5,6.45,6.45,0,0,0,4.4-1.4,5.38,5.38,0,0,0,1.5-4.2,8.53,8.53,0,0,0-.5-3h-4.5v3.8l-1-.1Z"/><path class="cls-3" d="M486,701.33c-.6,0-.9-.2-.9-.7s.3-.7.9-.7.9.2.9.7S486.7,701.33,486,701.33Z"/><path class="cls-3" d="M480.4,689.13a9.36,9.36,0,0,1,5,1,3.37,3.37,0,0,1,1.6,3.1,3.56,3.56,0,0,1-1.7,3.1,13,13,0,0,1-10,0,3.37,3.37,0,0,1-1.6-3.1,3.45,3.45,0,0,1,1.7-3.1A10.72,10.72,0,0,1,480.4,689.13Zm0,7.3a9.55,9.55,0,0,0,4.4-.8,2.59,2.59,0,0,0,1.4-2.4,2.51,2.51,0,0,0-1.5-2.4,9.85,9.85,0,0,0-4.4-.8,9.67,9.67,0,0,0-4.3.8,2.67,2.67,0,0,0,0,4.8A9.85,9.85,0,0,0,480.4,696.43Z"/><path class="cls-3" d="M486.7,682.13v.9h-9.3a23.49,23.49,0,0,1-2.6-.1l.3.3q.15.15,2.1,2.7l-.6.5-2.6-3.5v-.8Z"/><path class="cls-3" d="M481.2,676.73a10.24,10.24,0,0,1-4.2-.7,5.55,5.55,0,0,1-2.5-1.9,4.82,4.82,0,0,1-.8-3,6.05,6.05,0,0,1,.2-1.5h.8a3.42,3.42,0,0,0-.2,1.5,4,4,0,0,0,1.6,3.4,8.1,8.1,0,0,0,4.6,1.4v-.1a4.54,4.54,0,0,1-1.3-1.5,3.66,3.66,0,0,1-.4-1.8,3.47,3.47,0,0,1,3.8-3.8,4.51,4.51,0,0,1,3.1,1.1,3.63,3.63,0,0,1,1.1,2.9,3.75,3.75,0,0,1-1.5,3.1A10.19,10.19,0,0,1,481.2,676.73Zm5-4.2a2.66,2.66,0,0,0-.9-2.2,4,4,0,0,0-2.6-.8,3.2,3.2,0,0,0-2.3.8,3,3,0,0,0-.8,2.2,3.29,3.29,0,0,0,.4,1.7,3.18,3.18,0,0,0,1.1,1.2,2.67,2.67,0,0,0,1.3.5,4.06,4.06,0,0,0,1.9-.4,3.33,3.33,0,0,0,1.4-1.2A4.46,4.46,0,0,0,486.2,672.53Z"/><path class="cls-3" d="M518.2,733.13v7H505.4v-7h.8v6.1h4.9v-5.8h.8v5.8h5.5v-6.1Z"/><path class="cls-3" d="M517.4,730.63c-.6,0-.9-.2-.9-.7s.3-.7.9-.7.9.2.9.7S518,730.63,517.4,730.63Z"/><path class="cls-3" d="M518.2,716.63v.9h-6.3V725h6.3v.9H505.4V725h5.7v-7.5h-5.7v-.9Z"/><path class="cls-3" d="M511.7,707.93v-4.7h5.9a10.84,10.84,0,0,1,.8,4.2,6.43,6.43,0,0,1-1.7,4.7,6.74,6.74,0,0,1-4.9,1.6,7.85,7.85,0,0,1-3.5-.8,5.12,5.12,0,0,1-2.3-2.3,7.42,7.42,0,0,1-.8-3.4,9.21,9.21,0,0,1,.8-3.8l.8.4a8.52,8.52,0,0,0-.8,3.5,5.06,5.06,0,0,0,1.6,4,5.84,5.84,0,0,0,4.2,1.5,6.45,6.45,0,0,0,4.4-1.4,5.38,5.38,0,0,0,1.5-4.2,8.53,8.53,0,0,0-.5-3h-4.7V708l-.8-.1Z"/><path class="cls-3" d="M517.4,700.43c-.6,0-.9-.2-.9-.7s.3-.7.9-.7.9.2.9.7A.81.81,0,0,1,517.4,700.43Z"/><path class="cls-3" d="M511.7,688.23a9.36,9.36,0,0,1,5,1,3.37,3.37,0,0,1,1.6,3.1,3.56,3.56,0,0,1-1.7,3.1,13,13,0,0,1-10,0,3.37,3.37,0,0,1-1.6-3.1,3.45,3.45,0,0,1,1.7-3.1A10.72,10.72,0,0,1,511.7,688.23Zm0,7.3a9.55,9.55,0,0,0,4.4-.8,2.59,2.59,0,0,0,1.4-2.4,2.51,2.51,0,0,0-1.5-2.4,9.85,9.85,0,0,0-4.4-.8,9.67,9.67,0,0,0-4.3.8,2.67,2.67,0,0,0,0,4.8A9.85,9.85,0,0,0,511.7,695.53Z"/><path class="cls-3" d="M518.2,681.23v.9h-9.4a23.49,23.49,0,0,1-2.6-.1l.3.3q.15.15,2.1,2.7l-.6.5-2.6-3.5v-.8Z"/><path class="cls-3" d="M518.2,674l-12-5.3V676h-.8v-8.3h.6l12.2,5.3Z"/><path class="cls-3" d="M518.2,659.33l-1.5.2v.1a4.36,4.36,0,0,1,1.3,1.5,3.42,3.42,0,0,1,.4,1.8,3.07,3.07,0,0,1-.7,2.2,2.63,2.63,0,0,1-2,.8,2.51,2.51,0,0,1-2.2-1.2,6.32,6.32,0,0,1-.8-3.4l-.1-1.8H512a3.28,3.28,0,0,0-2.1.6,2.14,2.14,0,0,0-.7,1.8,6.09,6.09,0,0,0,.7,2.8l-.8.3a7,7,0,0,1-.7-3.1,3.65,3.65,0,0,1,.8-2.4,3.56,3.56,0,0,1,2.5-.8h6.4l.1.6Zm-.8,3.5a3.1,3.1,0,0,0-3.3-3.3h-.9l.1,1.7a8.49,8.49,0,0,0,.6,2.9,1.85,1.85,0,0,0,1.7.9,2,2,0,0,0,1.4-.5A2.41,2.41,0,0,0,517.4,662.83Z"/><path class="cls-3" d="M559.4,733.13v7H546.6v-7h.8v6.1h4.9v-5.8h.8v5.8h5.5v-6.1Z"/><path class="cls-3" d="M558.7,730.63c-.6,0-.9-.2-.9-.7s.3-.7.9-.7.9.2.9.7S559.4,730.63,558.7,730.63Z"/><path class="cls-3" d="M559.4,716.63v.9h-6.2V725h6.3v.9H546.7V725h5.7v-7.5h-5.7v-.9Z"/><path class="cls-3" d="M553,707.93v-4.7h5.9a10.84,10.84,0,0,1,.8,4.2,6.43,6.43,0,0,1-1.7,4.7,6.74,6.74,0,0,1-4.9,1.6,7.85,7.85,0,0,1-3.5-.8,5.12,5.12,0,0,1-2.3-2.3,7.42,7.42,0,0,1-.8-3.4,9.21,9.21,0,0,1,.8-3.8l.8.4a8.52,8.52,0,0,0-.8,3.5,5.06,5.06,0,0,0,1.6,4,5.84,5.84,0,0,0,4.2,1.5,6.45,6.45,0,0,0,4.4-1.4,5.38,5.38,0,0,0,1.5-4.2,8.53,8.53,0,0,0-.5-3H554V708l-1-.1Z"/><path class="cls-3" d="M558.7,700.43c-.6,0-.9-.2-.9-.7s.3-.7.9-.7.9.2.9.7S559.4,700.43,558.7,700.43Z"/><path class="cls-3" d="M553,688.23a9.36,9.36,0,0,1,5,1,3.37,3.37,0,0,1,1.6,3.1,3.56,3.56,0,0,1-1.7,3.1,13,13,0,0,1-10,0,3.37,3.37,0,0,1-1.6-3.1,3.45,3.45,0,0,1,1.7-3.1A11.33,11.33,0,0,1,553,688.23Zm0,7.3a9.55,9.55,0,0,0,4.4-.8,2.59,2.59,0,0,0,1.4-2.4,2.51,2.51,0,0,0-1.5-2.4,9.85,9.85,0,0,0-4.4-.8,9.67,9.67,0,0,0-4.3.8,2.67,2.67,0,0,0,0,4.8A9.85,9.85,0,0,0,553,695.53Z"/><path class="cls-3" d="M559.4,681.23v.9H550a23.49,23.49,0,0,1-2.6-.1l.3.3q.15.15,2.1,2.7l-.6.5-2.6-3.5v-.8Z"/><path class="cls-3" d="M559.4,674l-12-5.3V676h-.8v-8.3h.6l12.2,5.3Z"/><path class="cls-3" d="M549.7,661a3.54,3.54,0,0,1,1.3-3,5.63,5.63,0,0,1,3.7-1,5.82,5.82,0,0,1,3.7,1.1,3.54,3.54,0,0,1,1.3,3,3.42,3.42,0,0,1-.4,1.8,3.74,3.74,0,0,1-1.2,1.3v.1l1.4.2v.5H545.8v-.9h5.5V664a4,4,0,0,1-1.3-1.3A2.89,2.89,0,0,1,549.7,661Zm.7.1a2.72,2.72,0,0,0,1,2.4,5.42,5.42,0,0,0,3.2.7h.1a5,5,0,0,0,3.1-.8,3,3,0,0,0,.9-2.4,3,3,0,0,0-1.1-2.4,5.45,5.45,0,0,0-3.1-.8C551.9,657.93,550.4,659,550.4,661.13Z"/><path class="cls-3" d="M611.4,729.23v7H598.5v-7h.8v6.1h4.9v-5.8h.8v5.8h5.5v-6.1Z"/><path class="cls-3" d="M610.7,726.63c-.6,0-.9-.2-.9-.7s.3-.7.9-.7.9.2.9.7A.8.8,0,0,1,610.7,726.63Z"/><path class="cls-3" d="M611.4,712.73v.9h-6.3v7.5h6.3v.9H598.5v-.9h5.7v-7.5h-5.7v-.9Z"/><path class="cls-3" d="M604.9,704v-4.7h5.9a10.84,10.84,0,0,1,.8,4.2,6.43,6.43,0,0,1-1.7,4.7,6.74,6.74,0,0,1-4.9,1.6,7.85,7.85,0,0,1-3.5-.8,5.12,5.12,0,0,1-2.3-2.3,7.42,7.42,0,0,1-.8-3.4,9.21,9.21,0,0,1,.8-3.8l.8.4a8.52,8.52,0,0,0-.8,3.5,5.06,5.06,0,0,0,1.6,4,5.84,5.84,0,0,0,4.2,1.5,6.45,6.45,0,0,0,4.4-1.4,5.38,5.38,0,0,0,1.5-4.2,8.53,8.53,0,0,0-.5-3h-4.5v3.8l-1-.1Z"/><path class="cls-3" d="M610.7,696.43c-.6,0-.9-.2-.9-.7s.3-.7.9-.7.9.2.9.7A.8.8,0,0,1,610.7,696.43Z"/><path class="cls-3" d="M604.9,684.33a9.36,9.36,0,0,1,5,1,3.37,3.37,0,0,1,1.6,3.1,3.56,3.56,0,0,1-1.7,3.1,13,13,0,0,1-10,0,3.37,3.37,0,0,1-1.6-3.1,3.45,3.45,0,0,1,1.7-3.1A9.6,9.6,0,0,1,604.9,684.33Zm0,7.3a9.55,9.55,0,0,0,4.4-.8,2.59,2.59,0,0,0,1.4-2.4,2.51,2.51,0,0,0-1.5-2.4,9.85,9.85,0,0,0-4.4-.8,9.67,9.67,0,0,0-4.3.8,2.67,2.67,0,0,0,0,4.8A10.15,10.15,0,0,0,604.9,691.63Z"/><path class="cls-3" d="M611.4,677.33v.9H602a23.49,23.49,0,0,1-2.6-.1l.3.3q.15.15,2.1,2.7l-.6.5-2.6-3.5v-.8Z"/><path class="cls-3" d="M611.4,670.13l-12-5.3v7.3h-.9v-8.3h.6l12.2,5.3v1Z"/><path class="cls-3" d="M611.5,657.33a3.94,3.94,0,0,1-1.3,3.2,5.22,5.22,0,0,1-3.6,1.2,5.31,5.31,0,0,1-3.7-1.2,4.16,4.16,0,0,1-1.3-3.3,6.72,6.72,0,0,1,.4-2.4l.8.2a6,6,0,0,0-.4,2.2,3.39,3.39,0,0,0,1.1,2.7,4.77,4.77,0,0,0,3.1.9,4.48,4.48,0,0,0,3-.9,3.1,3.1,0,0,0,1.1-2.5,6,6,0,0,0-.5-2.4h.8A3.75,3.75,0,0,1,611.5,657.33Z"/><path class="cls-3" d="M683.9,731.63v7H671.1v-7h.8v6.1h4.9v-5.8h.8v5.8h5.5v-6.1Z"/><path class="cls-3" d="M683.2,729c-.6,0-.9-.2-.9-.7s.3-.7.9-.7.9.2.9.7A.8.8,0,0,1,683.2,729Z"/><path class="cls-3" d="M683.9,715.13v.9h-6.3v7.5h6.3v.9H671.1v-.9h5.7V716h-5.7v-.9Z"/><path class="cls-3" d="M677.4,706.43v-4.8h5.9a10.84,10.84,0,0,1,.8,4.2,6.43,6.43,0,0,1-1.7,4.7,6.74,6.74,0,0,1-4.9,1.6,7.85,7.85,0,0,1-3.5-.8,5.12,5.12,0,0,1-2.3-2.3,7.42,7.42,0,0,1-.8-3.4,9.21,9.21,0,0,1,.8-3.8l.8.4a8.52,8.52,0,0,0-.8,3.5,5.06,5.06,0,0,0,1.6,4,5.84,5.84,0,0,0,4.2,1.5,6.45,6.45,0,0,0,4.4-1.4,5.38,5.38,0,0,0,1.5-4.2,8.53,8.53,0,0,0-.5-3h-4.5v3.8Z"/><path class="cls-3" d="M683.2,698.83c-.6,0-.9-.2-.9-.7s.3-.7.9-.7.9.2.9.7A.8.8,0,0,1,683.2,698.83Z"/><path class="cls-3" d="M677.4,686.73a9.36,9.36,0,0,1,5,1,3.37,3.37,0,0,1,1.6,3.1,3.56,3.56,0,0,1-1.7,3.1,13,13,0,0,1-10,0,3.37,3.37,0,0,1-1.6-3.1,3.45,3.45,0,0,1,1.7-3.1A10.09,10.09,0,0,1,677.4,686.73Zm0,7.3a9.55,9.55,0,0,0,4.4-.8,2.59,2.59,0,0,0,1.4-2.4,2.51,2.51,0,0,0-1.5-2.4,9.85,9.85,0,0,0-4.4-.8,9.67,9.67,0,0,0-4.3.8,2.67,2.67,0,0,0,0,4.8A10.15,10.15,0,0,0,677.4,694Z"/><path class="cls-3" d="M683.9,679.73v.9h-9.4a23.49,23.49,0,0,1-2.6-.1l.3.3q.15.15,2.1,2.7l-.6.5-2.6-3.5v-.8Z"/><path class="cls-3" d="M670.7,670.33a4,4,0,0,1,.8-2.6,2.76,2.76,0,0,1,2.3-1,2.52,2.52,0,0,1,1.7.6,5.4,5.4,0,0,1,1.4,2,8.31,8.31,0,0,1,1.5-2.4,2.72,2.72,0,0,1,2-.7,3.1,3.1,0,0,1,2.5,1.1,5.45,5.45,0,0,1,0,6,3.25,3.25,0,0,1-2.6,1,2.88,2.88,0,0,1-2-.7,5.11,5.11,0,0,1-1.5-2.3,5.4,5.4,0,0,1-1.4,2,2.91,2.91,0,0,1-3.4.1,2.85,2.85,0,0,1-1.1-1.3A14.07,14.07,0,0,0,670.7,670.33Zm.8,0a3.17,3.17,0,0,0,.6,2,2.14,2.14,0,0,0,1.7.8,2,2,0,0,0,1.1-.3,6.47,6.47,0,0,0,.9-.8,4.89,4.89,0,0,0,.9-1.8,7.77,7.77,0,0,0-1.2-2.1,1.91,1.91,0,0,0-1.6-.6,2.06,2.06,0,0,0-1.7.7A3.3,3.3,0,0,0,671.5,670.33Zm9.2,3.1a2.56,2.56,0,0,0,1.9-.8,3.17,3.17,0,0,0,.7-2.3,3.33,3.33,0,0,0-.7-2.3,2.32,2.32,0,0,0-1.9-.9,2.41,2.41,0,0,0-1.8.7,7.24,7.24,0,0,0-1.4,2.7,6.06,6.06,0,0,0,1.4,2.3A2.33,2.33,0,0,0,680.7,673.43Z"/><path class="cls-3" d="M683.9,657.73l-1.5.2v.1a4.36,4.36,0,0,1,1.3,1.5,3.42,3.42,0,0,1,.4,1.8,3.07,3.07,0,0,1-.7,2.2,2.63,2.63,0,0,1-2,.8,2.51,2.51,0,0,1-2.2-1.2,6.32,6.32,0,0,1-.8-3.4l-.1-1.8h-.6a3.28,3.28,0,0,0-2.1.6,2.14,2.14,0,0,0-.7,1.8,6.09,6.09,0,0,0,.7,2.8l-.8.3a7,7,0,0,1-.7-3.1,3.65,3.65,0,0,1,.8-2.4,3.56,3.56,0,0,1,2.5-.8h6.4l.1.6Zm-.7,3.5a3.1,3.1,0,0,0-3.3-3.3H679l.1,1.7a8.49,8.49,0,0,0,.6,2.9,1.85,1.85,0,0,0,1.7.9,2,2,0,0,0,1.4-.5A4.25,4.25,0,0,0,683.2,661.23Z"/><path class="cls-3" d="M752.7,731.63v7H739.9v-7h.8v6.1h4.9v-5.8h.8v5.8h5.5v-6.1Z"/><path class="cls-3" d="M752,729c-.6,0-.9-.2-.9-.7s.3-.7.9-.7.9.2.9.7S752.5,729,752,729Z"/><path class="cls-3" d="M752.7,715.13v.9h-6.3v7.5h6.3v.9H739.9v-.9h5.7V716h-5.7v-.9Z"/><path class="cls-3" d="M746.2,706.43v-4.8h5.9a10.84,10.84,0,0,1,.8,4.2,6.43,6.43,0,0,1-1.7,4.7,6.74,6.74,0,0,1-4.9,1.6,7.85,7.85,0,0,1-3.5-.8,5.12,5.12,0,0,1-2.3-2.3,7.42,7.42,0,0,1-.8-3.4,9.21,9.21,0,0,1,.8-3.8l.8.4a8.52,8.52,0,0,0-.8,3.5,5.06,5.06,0,0,0,1.6,4,5.84,5.84,0,0,0,4.2,1.5,6.45,6.45,0,0,0,4.4-1.4,5.38,5.38,0,0,0,1.5-4.2,8.53,8.53,0,0,0-.5-3h-4.5v3.8Z"/><path class="cls-3" d="M752,698.83c-.6,0-.9-.2-.9-.7s.3-.7.9-.7.9.2.9.7S752.5,698.83,752,698.83Z"/><path class="cls-3" d="M746.2,686.73a9.36,9.36,0,0,1,5,1,3.37,3.37,0,0,1,1.6,3.1,3.56,3.56,0,0,1-1.7,3.1,13,13,0,0,1-10,0,3.37,3.37,0,0,1-1.6-3.1,3.45,3.45,0,0,1,1.7-3.1A9.84,9.84,0,0,1,746.2,686.73Zm0,7.3a9.55,9.55,0,0,0,4.4-.8,2.59,2.59,0,0,0,1.4-2.4,2.51,2.51,0,0,0-1.5-2.4,9.85,9.85,0,0,0-4.4-.8,9.67,9.67,0,0,0-4.3.8,2.67,2.67,0,0,0,0,4.8A10.48,10.48,0,0,0,746.2,694Z"/><path class="cls-3" d="M752.7,679.73v.9h-9.5a23.49,23.49,0,0,1-2.6-.1l.3.3q.15.15,2.1,2.7l-.6.5-2.6-3.5v-.8Z"/><path class="cls-3" d="M739.5,670.33a4,4,0,0,1,.8-2.6,2.76,2.76,0,0,1,2.3-1,2.52,2.52,0,0,1,1.7.6,5.4,5.4,0,0,1,1.4,2,8.31,8.31,0,0,1,1.5-2.4,2.72,2.72,0,0,1,2-.7,3.1,3.1,0,0,1,2.5,1.1,5.45,5.45,0,0,1,0,6,3.25,3.25,0,0,1-2.6,1,2.88,2.88,0,0,1-2-.7,5.11,5.11,0,0,1-1.5-2.3,5.4,5.4,0,0,1-1.4,2,2.91,2.91,0,0,1-3.4.1,2.85,2.85,0,0,1-1.1-1.3C739.7,671.63,739.5,671,739.5,670.33Zm.9,0a3.17,3.17,0,0,0,.6,2,2.14,2.14,0,0,0,1.7.8,2,2,0,0,0,1.1-.3,6.47,6.47,0,0,0,.9-.8,4.89,4.89,0,0,0,.9-1.8,7.77,7.77,0,0,0-1.2-2.1,1.91,1.91,0,0,0-1.6-.6,2.06,2.06,0,0,0-1.7.7A3.3,3.3,0,0,0,740.4,670.33Zm9.1,3.1a2.56,2.56,0,0,0,1.9-.8,3.17,3.17,0,0,0,.7-2.3,3.33,3.33,0,0,0-.7-2.3,2.32,2.32,0,0,0-1.9-.9,2.41,2.41,0,0,0-1.8.7,7.24,7.24,0,0,0-1.4,2.7,6.06,6.06,0,0,0,1.4,2.3A2.21,2.21,0,0,0,749.5,673.43Z"/><path class="cls-3" d="M743,659.53a3.54,3.54,0,0,1,1.3-3,5.63,5.63,0,0,1,3.7-1,5.82,5.82,0,0,1,3.7,1.1,3.54,3.54,0,0,1,1.3,3,3.42,3.42,0,0,1-.4,1.8,3.74,3.74,0,0,1-1.2,1.3v.1l1.4.2v.5H739.1v-.9h5.5v-.1a4,4,0,0,1-1.3-1.3A3.06,3.06,0,0,1,743,659.53Zm.7,0a2.72,2.72,0,0,0,1,2.4,5.42,5.42,0,0,0,3.2.7h.1a5,5,0,0,0,3.1-.8,3,3,0,0,0,.9-2.4,3,3,0,0,0-1.1-2.4,5.45,5.45,0,0,0-3.1-.8C745,656.43,743.7,657.43,743.7,659.53Z"/><path class="cls-3" d="M868.9,730.53v7H856.1v-7h.8v6.1h4.9v-5.8h.8v5.8h5.5v-6.1Z"/><path class="cls-3" d="M868.2,728c-.6,0-.9-.2-.9-.7s.3-.7.9-.7.9.2.9.7A.8.8,0,0,1,868.2,728Z"/><path class="cls-3" d="M868.9,714v.9h-6.3v7.5h6.3v.9H856.1v-.9h5.7v-7.5h-5.7V714Z"/><path class="cls-3" d="M862.4,705.33v-4.7h5.9a10.84,10.84,0,0,1,.8,4.2,6.43,6.43,0,0,1-1.7,4.7,6.74,6.74,0,0,1-4.9,1.6,7.85,7.85,0,0,1-3.5-.8,5.12,5.12,0,0,1-2.3-2.3,7.42,7.42,0,0,1-.8-3.4,9.21,9.21,0,0,1,.8-3.8l.8.4a8.52,8.52,0,0,0-.8,3.5,5.06,5.06,0,0,0,1.6,4,5.84,5.84,0,0,0,4.2,1.5,6.45,6.45,0,0,0,4.4-1.4,5.38,5.38,0,0,0,1.5-4.2,8.53,8.53,0,0,0-.5-3h-4.5v3.8l-1-.1Z"/><path class="cls-3" d="M868.2,697.83c-.6,0-.9-.2-.9-.7s.3-.7.9-.7.9.2.9.7A.88.88,0,0,1,868.2,697.83Z"/><path class="cls-3" d="M862.4,685.63a9.36,9.36,0,0,1,5,1,3.37,3.37,0,0,1,1.6,3.1,3.56,3.56,0,0,1-1.7,3.1,13,13,0,0,1-10,0,3.37,3.37,0,0,1-1.6-3.1,3.45,3.45,0,0,1,1.7-3.1A11.34,11.34,0,0,1,862.4,685.63Zm0,7.3a9.55,9.55,0,0,0,4.4-.8,2.59,2.59,0,0,0,1.4-2.4,2.51,2.51,0,0,0-1.5-2.4,9.85,9.85,0,0,0-4.4-.8,9.67,9.67,0,0,0-4.3.8,2.67,2.67,0,0,0,0,4.8A10.15,10.15,0,0,0,862.4,692.93Z"/><path class="cls-3" d="M868.9,678.63v.9h-9.4a23.49,23.49,0,0,1-2.6-.1l.3.3q.15.15,2.1,2.7l-.6.5-2.6-3.5v-.8Z"/><path class="cls-3" d="M861.4,665.33a10.24,10.24,0,0,1,4.2.7,5.55,5.55,0,0,1,2.5,1.9,5.94,5.94,0,0,1,.8,3.1,8.8,8.8,0,0,1-.2,1.7h-.8c.1-.3.1-.6.2-.9s.1-.6.1-.8a4,4,0,0,0-1.6-3.4,8.1,8.1,0,0,0-4.6-1.4v.1a3.74,3.74,0,0,1,1.3,1.5,4.14,4.14,0,0,1,.5,1.9,3.47,3.47,0,0,1-3.8,3.8,4.5,4.5,0,0,1-3.1-1.1,3.63,3.63,0,0,1-1.2-2.8,3.41,3.41,0,0,1,.7-2.2,4.89,4.89,0,0,1,1.9-1.5A6.61,6.61,0,0,1,861.4,665.33Zm-4.7,4.1a2.79,2.79,0,0,0,.9,2.2,3.54,3.54,0,0,0,2.6.8,3.2,3.2,0,0,0,2.3-.8,3,3,0,0,0,.8-2.2,3.53,3.53,0,0,0-.4-1.7,3.18,3.18,0,0,0-1.1-1.2,2.35,2.35,0,0,0-1.3-.5,4.1,4.1,0,0,0-3.3,1.5A2.88,2.88,0,0,0,856.7,669.43Z"/><path class="cls-3" d="M280.7,542.43h-7l-2.4,6H270l6.9-17.2h.8l6.8,17.2h-1.3Zm-6.6-1.1h6.1l-2.3-6.2c-.2-.5-.4-1.2-.7-2a9.33,9.33,0,0,1-.7,2Z"/><path class="cls-3" d="M287.4,535.73v8.2a4.25,4.25,0,0,0,.8,2.8,3.18,3.18,0,0,0,2.5.9,4.52,4.52,0,0,0,3.3-1.1,5.27,5.27,0,0,0,1.1-3.7v-7h1.1v12.7h-1l-.2-1.8h-.1c-.8,1.3-2.3,2-4.4,2-2.9,0-4.3-1.6-4.3-4.7v-8.3Z"/><path class="cls-3" d="M301.8,548.53h-1.2v-18.2h1.2Z"/><path class="cls-3" d="M313.8,548.53l-.3-2h-.1a5.21,5.21,0,0,1-2,1.7,6,6,0,0,1-2.4.5,4,4,0,0,1-2.9-1,3.47,3.47,0,0,1-1-2.7,3.26,3.26,0,0,1,1.6-2.9,8.07,8.07,0,0,1,4.5-1.1l2.4-.1v-.8a4.15,4.15,0,0,0-.7-2.7,3,3,0,0,0-2.4-.9,7.64,7.64,0,0,0-3.7,1l-.4-1a9.15,9.15,0,0,1,4.1-1,4.17,4.17,0,0,1,3.1,1.1,4.77,4.77,0,0,1,1,3.4v8.5Zm-4.6-.8a4.22,4.22,0,0,0,3.2-1.2,4.38,4.38,0,0,0,1.2-3.2V542l-2.2.1a9.4,9.4,0,0,0-3.8.8,2.41,2.41,0,0,0-1.1,2.2,2.49,2.49,0,0,0,.7,1.9A2.44,2.44,0,0,0,309.2,547.73Z"/><path class="cls-3" d="M278.7,291.83V279h.9v12h6.1v.8Z"/><path class="cls-3" d="M287.6,279.63c0-.6.2-.8.6-.8a.52.52,0,0,1,.4.2,1.07,1.07,0,0,1,.2.6.85.85,0,0,1-.2.6.52.52,0,0,1-.4.2C287.7,280.53,287.6,280.23,287.6,279.63Zm1,12.2h-.9v-9.6h.9Z"/><path class="cls-3" d="M295.3,283h-2.2v8.8h-.9V283h-1.8v-.5l1.8-.3v-.7a4.54,4.54,0,0,1,.6-2.6,2.29,2.29,0,0,1,2.1-.8,8.75,8.75,0,0,1,1.6.2l-.2.8a6.75,6.75,0,0,0-1.4-.2c-.7,0-1.2.2-1.4.6a4.64,4.64,0,0,0-.4,2v.9h2.2v.6Z"/><path class="cls-3" d="M299.7,291.23a5.72,5.72,0,0,0,1.4-.1v.7a6.05,6.05,0,0,1-1.5.2,2.35,2.35,0,0,1-1.9-.7,3.28,3.28,0,0,1-.6-2.1V283h-1.4v-.5l1.4-.4.4-2.2h.4v2.3h2.8v.8h-2.8v6a2.36,2.36,0,0,0,.4,1.6A2.25,2.25,0,0,0,299.7,291.23Z"/><path class="cls-3" d="M805.2,451.63h-7v-12.8h7v.8h-6.1v4.9h5.8v.8h-5.8v5.5h6.1Z"/><path class="cls-3" d="M807.7,450.93c0-.6.2-.9.7-.9s.7.3.7.9-.2.9-.7.9S807.7,451.53,807.7,450.93Z"/><path class="cls-3" d="M821.7,451.63h-.9v-6.3h-7.6v6.3h-.9v-12.8h.9v5.7h7.5v-5.7h.9l.1,12.8Z"/><path class="cls-3" d="M830.4,445.13h4.7V451a10.84,10.84,0,0,1-4.2.8,6.43,6.43,0,0,1-4.7-1.7,6.74,6.74,0,0,1-1.6-4.9,7.85,7.85,0,0,1,.8-3.5,5.12,5.12,0,0,1,2.3-2.3,7.42,7.42,0,0,1,3.4-.8,9.21,9.21,0,0,1,3.8.8l-.4.8a8.52,8.52,0,0,0-3.5-.8,5.06,5.06,0,0,0-4,1.6,5.84,5.84,0,0,0-1.5,4.2,6.45,6.45,0,0,0,1.4,4.4,5.38,5.38,0,0,0,4.2,1.5,8.53,8.53,0,0,0,3-.5v-4.5h-3.8l.1-1Z"/><path class="cls-3" d="M838,450.93c0-.6.2-.9.7-.9s.7.3.7.9-.2.9-.7.9S838,451.53,838,450.93Z"/><path class="cls-3" d="M850,445.13a9.36,9.36,0,0,1-1,5,3.37,3.37,0,0,1-3.1,1.6,3.56,3.56,0,0,1-3.1-1.7,13,13,0,0,1,0-10,3.37,3.37,0,0,1,3.1-1.6,3.45,3.45,0,0,1,3.1,1.7A9.84,9.84,0,0,1,850,445.13Zm-7.3,0a9.55,9.55,0,0,0,.8,4.4,2.59,2.59,0,0,0,2.4,1.4,2.51,2.51,0,0,0,2.4-1.5,9.85,9.85,0,0,0,.8-4.4,9.67,9.67,0,0,0-.8-4.3,2.67,2.67,0,0,0-4.8,0A10.16,10.16,0,0,0,842.7,445.13Z"/><path class="cls-3" d="M857,451.63h-.9v-9.4a23.49,23.49,0,0,1,.1-2.6l-.3.3q-.15.15-2.7,2.1l-.5-.6,3.5-2.6h.8v12.8Z"/><path class="cls-3" d="M870.4,451.63h-8v-.8l3.4-3.6a24,24,0,0,0,2-2.3,6,6,0,0,0,.9-1.5,4,4,0,0,0,.3-1.5,2.56,2.56,0,0,0-.8-1.9,2.72,2.72,0,0,0-2-.7,4.85,4.85,0,0,0-3.1,1.2l-.5-.6a5.62,5.62,0,0,1,3.6-1.4,3.57,3.57,0,0,1,2.6.9,3.38,3.38,0,0,1,1,2.5,5.73,5.73,0,0,1-.6,2.5,11,11,0,0,1-2.4,2.9l-3.3,3.4h6.9v.9Z"/><path class="cls-3" d="M811.1,358.53v7H798.3v-7h.8v6.1H804v-5.8h.8v5.8h5.5v-6.1Z"/><path class="cls-3" d="M810.4,356c-.6,0-.9-.2-.9-.7s.3-.7.9-.7.9.2.9.7S811,356,810.4,356Z"/><path class="cls-3" d="M811.1,342v.9h-6.3v7.6h6.3v.9H798.3v-.9H804V343h-5.7v-.9l12.8-.1Z"/><path class="cls-3" d="M804.6,333.33v-4.7h5.9a10.84,10.84,0,0,1,.8,4.2,6.43,6.43,0,0,1-1.7,4.7,6.74,6.74,0,0,1-4.9,1.6,7.85,7.85,0,0,1-3.5-.8,5.12,5.12,0,0,1-2.3-2.3,7.42,7.42,0,0,1-.8-3.4,9.21,9.21,0,0,1,.8-3.8l.8.4a8.52,8.52,0,0,0-.8,3.5,5.06,5.06,0,0,0,1.6,4,5.84,5.84,0,0,0,4.2,1.5,6.45,6.45,0,0,0,4.4-1.4,5.38,5.38,0,0,0,1.5-4.2,8.53,8.53,0,0,0-.5-3h-4.5v3.8l-1-.1Z"/><path class="cls-3" d="M810.4,325.73c-.6,0-.9-.2-.9-.7s.3-.7.9-.7.9.2.9.7S811,325.73,810.4,325.73Z"/><path class="cls-3" d="M804.6,313.73a9.36,9.36,0,0,1,5,1,3.37,3.37,0,0,1,1.6,3.1,3.56,3.56,0,0,1-1.7,3.1,13,13,0,0,1-10,0,3.37,3.37,0,0,1-1.6-3.1,3.45,3.45,0,0,1,1.7-3.1A9.84,9.84,0,0,1,804.6,313.73Zm0,7.3a9.55,9.55,0,0,0,4.4-.8,2.59,2.59,0,0,0,1.4-2.4,2.51,2.51,0,0,0-1.5-2.4,9.85,9.85,0,0,0-4.4-.8,9.67,9.67,0,0,0-4.3.8,2.67,2.67,0,0,0,0,4.8A10.16,10.16,0,0,0,804.6,321Z"/><path class="cls-3" d="M804.6,292.73a9.36,9.36,0,0,1,5,1,3.37,3.37,0,0,1,1.6,3.1,3.56,3.56,0,0,1-1.7,3.1,13,13,0,0,1-10,0,3.37,3.37,0,0,1-1.6-3.1,3.45,3.45,0,0,1,1.7-3.1A9.84,9.84,0,0,1,804.6,292.73Zm0,7.3a9.55,9.55,0,0,0,4.4-.8,2.59,2.59,0,0,0,1.4-2.4,2.51,2.51,0,0,0-1.5-2.4,9.85,9.85,0,0,0-4.4-.8,9.67,9.67,0,0,0-4.3.8,2.67,2.67,0,0,0,0,4.8A10.16,10.16,0,0,0,804.6,300Z"/><path class="cls-3" d="M811.1,306.73v.9h-9.4a23.49,23.49,0,0,1-2.6-.1l.3.3q.15.15,2.1,2.7l-.6.5-2.6-3.5v-.8Z"/><path class="cls-3" d="M994.8,405l-6.4-15.8h-.1c.1,1,.1,2,.1,3V405h-1.1v-17.1h1.9l6.1,15.1h.1l6.1-15.1h1.8V405h-1.2V392a27.16,27.16,0,0,1,.1-2.8h-.1L995.7,405Z"/><path class="cls-3" d="M1012.9,405.33a5.49,5.49,0,0,1-4.3-1.7,6.93,6.93,0,0,1-1.6-4.8,7.54,7.54,0,0,1,1.5-4.9,4.9,4.9,0,0,1,4-1.8,4.38,4.38,0,0,1,3.6,1.6,6.49,6.49,0,0,1,1.3,4.3v.9h-9.2a5.8,5.8,0,0,0,1.2,4,4.29,4.29,0,0,0,3.4,1.4,9.53,9.53,0,0,0,4-.9v1.1a8.93,8.93,0,0,1-2,.6A12.25,12.25,0,0,1,1012.9,405.33Zm-.5-12.2a4.07,4.07,0,0,0-3,1.2,5.3,5.3,0,0,0-1.3,3.5h7.9a5.4,5.4,0,0,0-1-3.5A2.85,2.85,0,0,0,1012.4,393.13Z"/><path class="cls-3" d="M1029.8,405v-8.3a4.25,4.25,0,0,0-.8-2.8,3.18,3.18,0,0,0-2.5-.9,4.16,4.16,0,0,0-3.3,1.2,5.45,5.45,0,0,0-1.1,3.7v7h-1.2v-12.7h1l.2,1.7h.1c.8-1.3,2.3-2,4.4-2,2.9,0,4.3,1.6,4.3,4.7v8.3l-1.1.1Z"/><path class="cls-3" d="M1042.9,401.73a2.93,2.93,0,0,1-1.3,2.6,6.53,6.53,0,0,1-3.7.9,9.32,9.32,0,0,1-4.1-.8v-1.3a9.54,9.54,0,0,0,4.1,1,5.7,5.7,0,0,0,2.9-.6,1.86,1.86,0,0,0,1-1.7,2.09,2.09,0,0,0-.8-1.6,8.83,8.83,0,0,0-2.6-1.3,19.62,19.62,0,0,1-2.7-1.2,4.26,4.26,0,0,1-1.2-1.1,2.41,2.41,0,0,1-.4-1.5,2.68,2.68,0,0,1,1.2-2.3,5.53,5.53,0,0,1,3.4-.8,10.07,10.07,0,0,1,3.9.8l-.4,1.1a9.31,9.31,0,0,0-3.5-.8,5.83,5.83,0,0,0-2.5.5,1.51,1.51,0,0,0-.9,1.4,1.86,1.86,0,0,0,.7,1.6,10.6,10.6,0,0,0,2.8,1.3,16.16,16.16,0,0,1,2.5,1.1,4.26,4.26,0,0,1,1.2,1.1A2.93,2.93,0,0,1,1042.9,401.73Z"/><path class="cls-3" d="M1054,405l-.3-2h-.1a5.21,5.21,0,0,1-2,1.7,6,6,0,0,1-2.4.5,4,4,0,0,1-2.9-1,3.47,3.47,0,0,1-1-2.7,3.26,3.26,0,0,1,1.6-2.9,8.07,8.07,0,0,1,4.5-1.1l2.4-.1v-.8a4.15,4.15,0,0,0-.7-2.7,3,3,0,0,0-2.4-.9,7.64,7.64,0,0,0-3.7,1l-.4-1a9.15,9.15,0,0,1,4.1-1,4.17,4.17,0,0,1,3.1,1.1,4.77,4.77,0,0,1,1,3.4V405Zm-4.7-.8a4.22,4.22,0,0,0,3.2-1.2,4.38,4.38,0,0,0,1.2-3.2v-1.2l-2.2.1a9.4,9.4,0,0,0-3.8.8,2.41,2.41,0,0,0-1.1,2.2,2.49,2.49,0,0,0,.7,1.9A2.54,2.54,0,0,0,1049.3,404.23Z"/><path class="cls-3" d="M542.4,56.83h-7V44h7v.8h-6.1v4.9h5.8v.8h-5.8V56h6.1Z"/><path class="cls-3" d="M545,56.13c0-.6.2-.9.7-.9s.7.3.7.9-.2.9-.7.9S545,56.73,545,56.13Z"/><path class="cls-3" d="M559,56.83h-.9v-6.3h-7.6v6.3h-.9V44h.9v5.7H558V44h.9l.1,12.8Z"/><path class="cls-3" d="M567.7,50.43h4.7v5.9a10.84,10.84,0,0,1-4.2.8,6.43,6.43,0,0,1-4.7-1.7,6.74,6.74,0,0,1-1.6-4.9,7.84,7.84,0,0,1,.8-3.5,5.12,5.12,0,0,1,2.3-2.3,7.42,7.42,0,0,1,3.4-.8,9.21,9.21,0,0,1,3.8.8l-.4.8a8.52,8.52,0,0,0-3.5-.8,5.06,5.06,0,0,0-4,1.6,6,6,0,0,0-1.5,4.2,6.45,6.45,0,0,0,1.4,4.4,5.38,5.38,0,0,0,4.2,1.5,8.53,8.53,0,0,0,3-.5v-4.5h-3.8l.1-1Z"/><path class="cls-3" d="M575.2,56.13c0-.6.2-.9.7-.9s.7.3.7.9-.2.9-.7.9S575.2,56.73,575.2,56.13Z"/><path class="cls-3" d="M587.2,50.43a9.36,9.36,0,0,1-1,5,3.37,3.37,0,0,1-3.1,1.6,3.56,3.56,0,0,1-3.1-1.7,9.6,9.6,0,0,1-1-5,9.6,9.6,0,0,1,1-5,3.37,3.37,0,0,1,3.1-1.6,3.45,3.45,0,0,1,3.1,1.7A9.6,9.6,0,0,1,587.2,50.43Zm-7.2,0a9.55,9.55,0,0,0,.8,4.4,2.59,2.59,0,0,0,2.4,1.4,2.51,2.51,0,0,0,2.4-1.5,9.85,9.85,0,0,0,.8-4.4,9.67,9.67,0,0,0-.8-4.3,2.67,2.67,0,0,0-4.8,0A10.16,10.16,0,0,0,580,50.43Z"/><path class="cls-3" d="M597.5,50.43a9.36,9.36,0,0,1-1,5,3.37,3.37,0,0,1-3.1,1.6,3.56,3.56,0,0,1-3.1-1.7,9.6,9.6,0,0,1-1-5,9.6,9.6,0,0,1,1-5,3.37,3.37,0,0,1,3.1-1.6,3.45,3.45,0,0,1,3.1,1.7A9.6,9.6,0,0,1,597.5,50.43Zm-7.3,0a9.55,9.55,0,0,0,.8,4.4,2.59,2.59,0,0,0,2.4,1.4,2.51,2.51,0,0,0,2.4-1.5,9.85,9.85,0,0,0,.8-4.4,9.67,9.67,0,0,0-.8-4.3,2.67,2.67,0,0,0-4.8,0A10.16,10.16,0,0,0,590.2,50.43Z"/><path class="cls-3" d="M603.2,49.13a4.4,4.4,0,0,1,3.2,1,3.78,3.78,0,0,1,1.2,2.7,4.14,4.14,0,0,1-1.2,3.1A4.66,4.66,0,0,1,603,57a11,11,0,0,1-1.8-.2,3.76,3.76,0,0,1-1.4-.5v-.9c.6.3,1.2.5,1.7.7a4.14,4.14,0,0,0,1.6.2,4,4,0,0,0,2.7-.9,3,3,0,0,0,1-2.4,2.46,2.46,0,0,0-1-2.2,4.55,4.55,0,0,0-2.7-.8,9.86,9.86,0,0,0-2.4.3l-.5-.3.5-5.9h6.2v.8h-5.4l-.4,4.5A10.4,10.4,0,0,1,603.2,49.13Z"/><path class="cls-3" d="M575.9,240v7H563.1v-7h.8v6.1h4.9v-5.8h.8v5.8h5.5V240Z"/><path class="cls-3" d="M575.2,237.53c-.6,0-.9-.2-.9-.7s.3-.7.9-.7.9.2.9.7A.8.8,0,0,1,575.2,237.53Z"/><path class="cls-3" d="M575.9,223.53v.9h-6.3v7.5h6.3v.9H563.1v-.9h5.7v-7.5h-5.7v-.9Z"/><path class="cls-3" d="M569.4,214.83v-4.7h5.9a10.84,10.84,0,0,1,.8,4.2,6.43,6.43,0,0,1-1.7,4.7,6.74,6.74,0,0,1-4.9,1.6,7.85,7.85,0,0,1-3.5-.8,5.12,5.12,0,0,1-2.3-2.3,7.42,7.42,0,0,1-.8-3.4,9.21,9.21,0,0,1,.8-3.8l.8.4a8.53,8.53,0,0,0-.8,3.5,5.06,5.06,0,0,0,1.6,4,6,6,0,0,0,4.2,1.5,6.45,6.45,0,0,0,4.4-1.4,5.38,5.38,0,0,0,1.5-4.2,8.53,8.53,0,0,0-.5-3h-4.5v3.8h-1Z"/><path class="cls-3" d="M575.2,207.33c-.6,0-.9-.2-.9-.7s.3-.7.9-.7.9.2.9.7A.88.88,0,0,1,575.2,207.33Z"/><path class="cls-3" d="M575.9,198.93v.9h-9.4a23.48,23.48,0,0,1-2.6-.1l.3.3q.15.15,2.1,2.7l-.6.5-2.6-3.5v-.8Z"/><path class="cls-3" d="M568.2,189.93a4.4,4.4,0,0,1,1-3.2,3.78,3.78,0,0,1,2.7-1.2,4.14,4.14,0,0,1,3.1,1.2,4.66,4.66,0,0,1,1.1,3.4,11,11,0,0,1-.2,1.8,3.75,3.75,0,0,1-.5,1.4h-.9c.3-.6.5-1.2.7-1.7a4.14,4.14,0,0,0,.2-1.6,4,4,0,0,0-.9-2.7,3,3,0,0,0-2.4-1,2.46,2.46,0,0,0-2.2,1,4.55,4.55,0,0,0-.8,2.7,9.86,9.86,0,0,0,.3,2.4l-.3.5-5.9-.5v-6.2h.8v5.4l4.5.4A6.14,6.14,0,0,1,568.2,189.93Z"/><path class="cls-3" d="M575.9,176.93l-1.5.2v.1a5.8,5.8,0,0,1,1.3,1.5,3.42,3.42,0,0,1,.4,1.8,3.07,3.07,0,0,1-.7,2.2,2.63,2.63,0,0,1-2,.8,2.51,2.51,0,0,1-2.2-1.2,6.32,6.32,0,0,1-.8-3.4l-.1-1.8h-.6a3.28,3.28,0,0,0-2.1.6,2.14,2.14,0,0,0-.7,1.8,6.09,6.09,0,0,0,.7,2.8l-.8.3a7,7,0,0,1-.7-3.1,3.65,3.65,0,0,1,.8-2.4,3.15,3.15,0,0,1,2.5-.8h6.4l.1.6Zm-.7,3.5a3.1,3.1,0,0,0-3.3-3.3H571l.1,1.7a8.49,8.49,0,0,0,.6,2.9,1.75,1.75,0,0,0,1.7.9,2,2,0,0,0,1.4-.5A2.67,2.67,0,0,0,575.2,180.43Z"/><path class="cls-3" d="M481.4,240.63v7H468.6v-7h.8v6.1h4.9v-5.8h.8v5.8h5.5v-6.1Z"/><path class="cls-3" d="M480.9,238.13c-.6,0-.9-.2-.9-.7s.3-.7.9-.7.9.2.9.7A.8.8,0,0,1,480.9,238.13Z"/><path class="cls-3" d="M481.4,224.13v.9h-6.2v7.5h6.3v.9H468.7v-.9h5.7V225h-5.7v-.9Z"/><path class="cls-3" d="M475,215.43v-4.7h5.9a10.84,10.84,0,0,1,.8,4.2,6.43,6.43,0,0,1-1.7,4.7,6.74,6.74,0,0,1-4.9,1.6,7.85,7.85,0,0,1-3.5-.8,5.12,5.12,0,0,1-2.3-2.3,7.42,7.42,0,0,1-.8-3.4,9.21,9.21,0,0,1,.8-3.8l.8.4a8.53,8.53,0,0,0-.8,3.5,5.06,5.06,0,0,0,1.6,4,6,6,0,0,0,4.2,1.5,6.45,6.45,0,0,0,4.4-1.4,5.38,5.38,0,0,0,1.5-4.2,8.53,8.53,0,0,0-.5-3H476v3.8h-1v-.1Z"/><path class="cls-3" d="M480.9,207.93c-.6,0-.9-.2-.9-.7s.3-.7.9-.7.9.2.9.7A.88.88,0,0,1,480.9,207.93Z"/><path class="cls-3" d="M481.4,199.53v.9H472a23.48,23.48,0,0,1-2.6-.1l.3.3q.15.15,2.1,2.7l-.6.5-2.6-3.5v-.8Z"/><path class="cls-3" d="M473.7,190.53a4.4,4.4,0,0,1,1-3.2,3.78,3.78,0,0,1,2.7-1.2,4.14,4.14,0,0,1,3.1,1.2,4.66,4.66,0,0,1,1.1,3.4,11,11,0,0,1-.2,1.8,3.75,3.75,0,0,1-.5,1.4H480c.3-.6.5-1.2.7-1.7a4.14,4.14,0,0,0,.2-1.6,4,4,0,0,0-.9-2.7,3,3,0,0,0-2.4-1,2.46,2.46,0,0,0-2.2,1,4.55,4.55,0,0,0-.8,2.7,9.86,9.86,0,0,0,.3,2.4l-.3.5-5.9-.5v-6.2h.8v5.4l4.5.4C473.9,191.73,473.7,191,473.7,190.53Z"/><path class="cls-3" d="M471.7,179.33a3.54,3.54,0,0,1,1.3-3,7,7,0,0,1,7.4.1,3.54,3.54,0,0,1,1.3,3,3.42,3.42,0,0,1-.4,1.8,3.74,3.74,0,0,1-1.2,1.3v.1l1.4.2v.5H467.8v-.9h5.5v-.1A4,4,0,0,1,472,181,3.06,3.06,0,0,1,471.7,179.33Zm.8,0a2.72,2.72,0,0,0,1,2.4,5.42,5.42,0,0,0,3.2.7h.1a5,5,0,0,0,3.1-.8,3,3,0,0,0,.9-2.4,3,3,0,0,0-1.1-2.4,4.77,4.77,0,0,0-3.1-.8C474,176.23,472.5,177.23,472.5,179.33Z"/><path class="cls-3" d="M639.5,217.13h-.7l-2.8-9.9c-.2-.8-.4-1.5-.5-2-.1.5-.2,1.1-.4,1.8s-1.1,4-2.8,10.2h-.8l-3.5-12.8h.9l2.2,8.3a2.92,2.92,0,0,1,.2.9,1.88,1.88,0,0,0,.2.8c.1.2.1.5.2.7a1.7,1.7,0,0,1,.1.7,23,23,0,0,1,.9-3.6l2.2-7.8h1l2.6,8.9a21.45,21.45,0,0,1,.6,2.5c.1-.4.2-.9.3-1.3s1-3.8,2.7-10.1h.9Z"/><path class="cls-3" d="M650.5,204.93a4.9,4.9,0,0,0-3.8,1.5,6.08,6.08,0,0,0-1.4,4.2,6.32,6.32,0,0,0,1.3,4.3,4.68,4.68,0,0,0,3.7,1.5,9.48,9.48,0,0,0,3-.4v.8a9.6,9.6,0,0,1-3.2.4,5.8,5.8,0,0,1-4.3-1.7,6.74,6.74,0,0,1-1.6-4.9,7.82,7.82,0,0,1,.7-3.5,5.23,5.23,0,0,1,2.1-2.3,6.6,6.6,0,0,1,3.2-.8,7.39,7.39,0,0,1,3.4.7l-.2.9A5.92,5.92,0,0,0,650.5,204.93Z"/><path class="cls-3" d="M688.5,217.13h-.7l-2.8-9.9c-.2-.8-.4-1.5-.5-2-.1.5-.2,1.1-.4,1.8s-1.1,4-2.8,10.2h-.8l-3.5-12.8h.9l2.2,8.3a2.92,2.92,0,0,1,.2.9,1.88,1.88,0,0,0,.2.8c.1.2.1.5.2.7a1.7,1.7,0,0,1,.1.7,23,23,0,0,1,.9-3.6l2.2-7.8h1l2.6,8.9a21.45,21.45,0,0,1,.6,2.5c.1-.4.2-.9.3-1.3s1-3.8,2.7-10.1h.9Z"/><path class="cls-3" d="M699.5,204.93a4.9,4.9,0,0,0-3.8,1.5,6.08,6.08,0,0,0-1.4,4.2,6.32,6.32,0,0,0,1.3,4.3,4.68,4.68,0,0,0,3.7,1.5,9.48,9.48,0,0,0,3-.4v.8a9.6,9.6,0,0,1-3.2.4,5.8,5.8,0,0,1-4.3-1.7,6.74,6.74,0,0,1-1.6-4.9,7.82,7.82,0,0,1,.7-3.5,5.23,5.23,0,0,1,2.1-2.3,6.6,6.6,0,0,1,3.2-.8,7.39,7.39,0,0,1,3.4.7l-.2.9A5.92,5.92,0,0,0,699.5,204.93Z"/><path class="cls-3" d="M781.5,852.93h-7v-12.8h7v.8h-6.1v4.9h5.8v.8h-5.8v5.5h6.1Z"/><path class="cls-3" d="M784.2,852.23c0-.6.2-.9.7-.9s.7.3.7.9-.2.9-.7.9S784.2,852.83,784.2,852.23Z"/><path class="cls-3" d="M798,852.93h-.9v-6.3h-7.5v6.3h-.9v-12.8h.9v5.7h7.5v-5.7h.9Z"/><path class="cls-3" d="M806.7,846.43h4.7v5.9a10.84,10.84,0,0,1-4.2.8,6.43,6.43,0,0,1-4.7-1.7,6.74,6.74,0,0,1-1.6-4.9,7.85,7.85,0,0,1,.8-3.5,5.12,5.12,0,0,1,2.3-2.3,6.35,6.35,0,0,1,3.4-.8,9.21,9.21,0,0,1,3.8.8l-.4.8a8.52,8.52,0,0,0-3.5-.8,5.06,5.06,0,0,0-4,1.6,5.84,5.84,0,0,0-1.5,4.2,6.45,6.45,0,0,0,1.4,4.4,5.38,5.38,0,0,0,4.2,1.5,8.53,8.53,0,0,0,3-.5v-4.5h-3.8l.1-1Z"/><path class="cls-3" d="M814.4,852.23c0-.6.2-.9.7-.9s.7.3.7.9-.2.9-.7.9S814.4,852.83,814.4,852.23Z"/><path class="cls-3" d="M826.4,846.43a9.36,9.36,0,0,1-1,5,3.37,3.37,0,0,1-3.1,1.6,3.56,3.56,0,0,1-3.1-1.7,13,13,0,0,1,0-10,3.37,3.37,0,0,1,3.1-1.6,3.45,3.45,0,0,1,3.1,1.7C826.2,842.63,826.4,844.33,826.4,846.43Zm-7.2,0a9.55,9.55,0,0,0,.8,4.4,2.59,2.59,0,0,0,2.4,1.4,2.51,2.51,0,0,0,2.4-1.5,9.85,9.85,0,0,0,.8-4.4,9.67,9.67,0,0,0-.8-4.3,2.67,2.67,0,0,0-4.8,0A10.16,10.16,0,0,0,819.2,846.43Z"/><path class="cls-3" d="M836.5,852.93h-8v-.8l3.4-3.6a24,24,0,0,0,2-2.3,6,6,0,0,0,.9-1.5,4,4,0,0,0,.3-1.5,2.56,2.56,0,0,0-.8-1.9,2.72,2.72,0,0,0-2-.7,4.85,4.85,0,0,0-3.1,1.2l-.5-.6a5.62,5.62,0,0,1,3.6-1.4,3.57,3.57,0,0,1,2.6.9,3.38,3.38,0,0,1,1,2.5,5.73,5.73,0,0,1-.6,2.5,11,11,0,0,1-2.4,2.9l-3.3,3.4h6.9v.9Z"/><path class="cls-3" d="M847,846.43a9.36,9.36,0,0,1-1,5,3.37,3.37,0,0,1-3.1,1.6,3.56,3.56,0,0,1-3.1-1.7,13,13,0,0,1,0-10,3.37,3.37,0,0,1,3.1-1.6,3.45,3.45,0,0,1,3.1,1.7A10.09,10.09,0,0,1,847,846.43Zm-7.3,0a9.55,9.55,0,0,0,.8,4.4,2.59,2.59,0,0,0,2.4,1.4,2.51,2.51,0,0,0,2.4-1.5,9.85,9.85,0,0,0,.8-4.4,9.67,9.67,0,0,0-.8-4.3,2.67,2.67,0,0,0-4.8,0A10.16,10.16,0,0,0,839.7,846.43Z"/><path class="cls-3" d="M636.4,852.93h-7v-12.8h7v.8h-6.1v4.9h5.8v.8h-5.8v5.5h6.1Z"/><path class="cls-3" d="M638.9,852.23c0-.6.2-.9.7-.9s.7.3.7.9-.2.9-.7.9S638.9,852.83,638.9,852.23Z"/><path class="cls-3" d="M652.9,852.93H652v-6.3h-7.5v6.3h-.9v-12.8h.9v5.7H652v-5.7h.9Z"/><path class="cls-3" d="M661.5,846.43h4.7v5.9a10.84,10.84,0,0,1-4.2.8,6.43,6.43,0,0,1-4.7-1.7,6.74,6.74,0,0,1-1.6-4.9,7.85,7.85,0,0,1,.8-3.5,5.12,5.12,0,0,1,2.3-2.3,6.35,6.35,0,0,1,3.4-.8,9.21,9.21,0,0,1,3.8.8l-.4.8a8.52,8.52,0,0,0-3.5-.8,5.06,5.06,0,0,0-4,1.6,5.84,5.84,0,0,0-1.5,4.2,6.45,6.45,0,0,0,1.4,4.4,5.38,5.38,0,0,0,4.2,1.5,8.53,8.53,0,0,0,3-.5v-4.5h-3.8l.1-1Z"/><path class="cls-3" d="M669.2,852.23c0-.6.2-.9.7-.9s.7.3.7.9-.2.9-.7.9S669.2,852.83,669.2,852.23Z"/><path class="cls-3" d="M681.2,846.43a9.36,9.36,0,0,1-1,5,3.37,3.37,0,0,1-3.1,1.6,3.56,3.56,0,0,1-3.1-1.7,13,13,0,0,1,0-10,3.37,3.37,0,0,1,3.1-1.6,3.45,3.45,0,0,1,3.1,1.7C681,842.63,681.2,844.33,681.2,846.43Zm-7.2,0a9.55,9.55,0,0,0,.8,4.4,2.59,2.59,0,0,0,2.4,1.4,2.51,2.51,0,0,0,2.4-1.5,9.85,9.85,0,0,0,.8-4.4,9.67,9.67,0,0,0-.8-4.3,2.67,2.67,0,0,0-4.8,0A10.16,10.16,0,0,0,674,846.43Z"/><path class="cls-3" d="M691.4,852.93h-8v-.8l3.4-3.6a24,24,0,0,0,2-2.3,6,6,0,0,0,.9-1.5,4,4,0,0,0,.3-1.5,2.56,2.56,0,0,0-.8-1.9,2.72,2.72,0,0,0-2-.7,4.85,4.85,0,0,0-3.1,1.2l-.5-.6a5.62,5.62,0,0,1,3.6-1.4,3.57,3.57,0,0,1,2.6.9,3.38,3.38,0,0,1,1,2.5,5.73,5.73,0,0,1-.6,2.5,11,11,0,0,1-2.4,2.9l-3.3,3.4h6.9v.9Z"/><path class="cls-3" d="M698.5,852.93h-.9v-9.4a23.49,23.49,0,0,1,.1-2.6l-.3.3q-.15.15-2.7,2.1l-.5-.6,3.5-2.6h.8v12.8Z"/><path class="cls-3" d="M525.4,852.93h-7v-12.8h7v.8h-6.1v4.9h5.8v.8h-5.8v5.5h6.1Z"/><path class="cls-3" d="M528,852.23c0-.6.2-.9.7-.9s.7.3.7.9-.2.9-.7.9S528,852.83,528,852.23Z"/><path class="cls-3" d="M542,852.93h-.9v-6.3h-7.5v6.3h-.9v-12.8h.9v5.7h7.5v-5.7h.9Z"/><path class="cls-3" d="M550.7,846.43h4.7v5.9a10.84,10.84,0,0,1-4.2.8,6.43,6.43,0,0,1-4.7-1.7,6.74,6.74,0,0,1-1.6-4.9,7.85,7.85,0,0,1,.8-3.5,5.12,5.12,0,0,1,2.3-2.3,7.42,7.42,0,0,1,3.4-.8,9.21,9.21,0,0,1,3.8.8l-.4.8a8.52,8.52,0,0,0-3.5-.8,5.06,5.06,0,0,0-4,1.6,5.84,5.84,0,0,0-1.5,4.2,6.45,6.45,0,0,0,1.4,4.4,5.38,5.38,0,0,0,4.2,1.5,8.53,8.53,0,0,0,3-.5v-4.5h-3.8l.1-1Z"/><path class="cls-3" d="M558.2,852.23c0-.6.2-.9.7-.9s.7.3.7.9-.2.9-.7.9S558.2,852.83,558.2,852.23Z"/><path class="cls-3" d="M570.4,846.43a9.36,9.36,0,0,1-1,5,3.37,3.37,0,0,1-3.1,1.6,3.56,3.56,0,0,1-3.1-1.7,13,13,0,0,1,0-10,3.37,3.37,0,0,1,3.1-1.6,3.45,3.45,0,0,1,3.1,1.7A11.34,11.34,0,0,1,570.4,846.43Zm-7.4,0a9.55,9.55,0,0,0,.8,4.4,2.59,2.59,0,0,0,2.4,1.4,2.51,2.51,0,0,0,2.4-1.5,9.85,9.85,0,0,0,.8-4.4,9.67,9.67,0,0,0-.8-4.3,2.67,2.67,0,0,0-4.8,0A10.16,10.16,0,0,0,563,846.43Z"/><path class="cls-3" d="M580.4,852.93h-8v-.8l3.4-3.6a24,24,0,0,0,2-2.3,6,6,0,0,0,.9-1.5,4,4,0,0,0,.3-1.5,2.56,2.56,0,0,0-.8-1.9,2.72,2.72,0,0,0-2-.7,4.85,4.85,0,0,0-3.1,1.2l-.5-.6a5.62,5.62,0,0,1,3.6-1.4,3.57,3.57,0,0,1,2.6.9,3.38,3.38,0,0,1,1,2.5,5.73,5.73,0,0,1-.6,2.5,11,11,0,0,1-2.4,2.9l-3.3,3.4h6.9v.9Z"/><path class="cls-3" d="M590.7,852.93h-8v-.8l3.4-3.6a24,24,0,0,0,2-2.3,6,6,0,0,0,.9-1.5,4,4,0,0,0,.3-1.5,2.56,2.56,0,0,0-.8-1.9,2.72,2.72,0,0,0-2-.7,4.85,4.85,0,0,0-3.1,1.2l-.5-.6a5.62,5.62,0,0,1,3.6-1.4,3.57,3.57,0,0,1,2.6.9,3.38,3.38,0,0,1,1,2.5,5.73,5.73,0,0,1-.6,2.5,11,11,0,0,1-2.4,2.9l-3.3,3.4h6.9v.9Z"/><path class="cls-3" d="M396.1,852.93h-7v-12.8h7v.8H390v4.9h5.8v.8H390v5.5h6.1Z"/><path class="cls-3" d="M398.7,852.23c0-.6.2-.9.7-.9s.7.3.7.9-.2.9-.7.9S398.7,852.83,398.7,852.23Z"/><path class="cls-3" d="M412.6,852.93h-.9v-6.3h-7.5v6.3h-.9v-12.8h.9v5.7h7.5v-5.7h.9Z"/><path class="cls-3" d="M421.2,846.43h4.7v5.9a10.84,10.84,0,0,1-4.2.8,6.43,6.43,0,0,1-4.7-1.7,6.74,6.74,0,0,1-1.6-4.9,7.85,7.85,0,0,1,.8-3.5,5.12,5.12,0,0,1,2.3-2.3,7.42,7.42,0,0,1,3.4-.8,9.21,9.21,0,0,1,3.8.8l-.4.8a8.53,8.53,0,0,0-3.5-.8,5.06,5.06,0,0,0-4,1.6,5.84,5.84,0,0,0-1.5,4.2,6.45,6.45,0,0,0,1.4,4.4,5.38,5.38,0,0,0,4.2,1.5,8.53,8.53,0,0,0,3-.5v-4.5h-3.8v-1Z"/><path class="cls-3" d="M428.9,852.23c0-.6.2-.9.7-.9s.7.3.7.9-.2.9-.7.9S428.9,852.83,428.9,852.23Z"/><path class="cls-3" d="M441,846.43a9.36,9.36,0,0,1-1,5,3.37,3.37,0,0,1-3.1,1.6,3.56,3.56,0,0,1-3.1-1.7,13,13,0,0,1,0-10,3.37,3.37,0,0,1,3.1-1.6,3.45,3.45,0,0,1,3.1,1.7A10.09,10.09,0,0,1,441,846.43Zm-7.3,0a9.55,9.55,0,0,0,.8,4.4,2.59,2.59,0,0,0,2.4,1.4,2.51,2.51,0,0,0,2.4-1.5,9.85,9.85,0,0,0,.8-4.4,9.67,9.67,0,0,0-.8-4.3,2.67,2.67,0,0,0-4.8,0A10.16,10.16,0,0,0,433.7,846.43Z"/><path class="cls-3" d="M451,852.93h-8v-.8l3.4-3.6a24,24,0,0,0,2-2.3,6,6,0,0,0,.9-1.5,4,4,0,0,0,.3-1.5,2.56,2.56,0,0,0-.8-1.9,2.72,2.72,0,0,0-2-.7,4.85,4.85,0,0,0-3.1,1.2l-.5-.6a5.62,5.62,0,0,1,3.6-1.4,3.57,3.57,0,0,1,2.6.9,3.38,3.38,0,0,1,1,2.5,5.73,5.73,0,0,1-.6,2.5,11,11,0,0,1-2.4,2.9l-3.3,3.4H451v.9Z"/><path class="cls-3" d="M460.9,843.13a2.79,2.79,0,0,1-.8,2,3.48,3.48,0,0,1-2,1v.1a4.39,4.39,0,0,1,2.4,1,2.52,2.52,0,0,1,.8,2.1,3.49,3.49,0,0,1-1.2,2.8,5.22,5.22,0,0,1-3.5,1,7.39,7.39,0,0,1-3.4-.7v-.9a4.28,4.28,0,0,0,1.7.6,12.77,12.77,0,0,0,1.7.2,4.56,4.56,0,0,0,2.9-.8,2.57,2.57,0,0,0,1-2.2,2.33,2.33,0,0,0-1-2,4.79,4.79,0,0,0-2.9-.7h-1.4v-.8h1.4a3.74,3.74,0,0,0,2.5-.8,2.58,2.58,0,0,0,.9-2.1,2.14,2.14,0,0,0-.8-1.7,3.17,3.17,0,0,0-2-.6,4.67,4.67,0,0,0-1.7.3,15,15,0,0,0-1.8.9l-.4-.6a7.68,7.68,0,0,1,1.8-1,7.79,7.79,0,0,1,2.1-.4,4.14,4.14,0,0,1,2.7.8A3.74,3.74,0,0,1,460.9,843.13Z"/><path class="cls-3" d="M380.2,702.83h-.7l-2.8-9.9c-.2-.8-.4-1.5-.5-2-.1.5-.2,1.1-.4,1.8s-1.1,4-2.8,10.2h-.8l-3.5-12.8h.9l2.2,8.3a2.92,2.92,0,0,1,.2.9,1.88,1.88,0,0,0,.2.8c.1.2.1.5.2.7a1.7,1.7,0,0,1,.1.7,23,23,0,0,1,.9-3.6l2.2-7.8h1l2.6,8.9a21.46,21.46,0,0,1,.6,2.5c.1-.4.2-.9.3-1.3s1-3.8,2.7-10.1h.9Z"/><path class="cls-3" d="M391.1,690.63a4.9,4.9,0,0,0-3.8,1.5,6.08,6.08,0,0,0-1.4,4.2,6.32,6.32,0,0,0,1.3,4.3,4.68,4.68,0,0,0,3.7,1.5,9.47,9.47,0,0,0,3-.4v.8a9.6,9.6,0,0,1-3.2.4,5.8,5.8,0,0,1-4.3-1.7,6.74,6.74,0,0,1-1.6-4.9,7.82,7.82,0,0,1,.7-3.5,5.23,5.23,0,0,1,2.1-2.3,6.6,6.6,0,0,1,3.2-.8,7.39,7.39,0,0,1,3.4.7l-.4.8A5.67,5.67,0,0,0,391.1,690.63Z"/><path class="cls-3" d="M434.2,702.43h-.7l-2.8-9.9c-.2-.8-.4-1.5-.5-2-.1.5-.2,1.1-.4,1.8s-1.1,4-2.8,10.2h-.8l-3.5-12.8h.9l2.2,8.3a2.92,2.92,0,0,1,.2.9,1.88,1.88,0,0,0,.2.8c.1.2.1.5.2.7a1.7,1.7,0,0,1,.1.7,23,23,0,0,1,.9-3.6l2.2-7.8h1l2.6,8.9a21.46,21.46,0,0,1,.6,2.5c.1-.4.2-.9.3-1.3s1-3.8,2.7-10.1h.9Z"/><path class="cls-3" d="M445,690.13a4.9,4.9,0,0,0-3.8,1.5,6.08,6.08,0,0,0-1.4,4.2,6.32,6.32,0,0,0,1.3,4.3,4.68,4.68,0,0,0,3.7,1.5,9.47,9.47,0,0,0,3-.4v.8a9.6,9.6,0,0,1-3.2.4,5.8,5.8,0,0,1-4.3-1.7,6.74,6.74,0,0,1-1.6-4.9,7.82,7.82,0,0,1,.7-3.5,5.23,5.23,0,0,1,2.1-2.3,6.6,6.6,0,0,1,3.2-.8,7.39,7.39,0,0,1,3.4.7l-.4.8A7.17,7.17,0,0,0,445,690.13Z"/><path class="cls-3" d="M219.7,497.23v7H206.9v-7h.8v6.1h4.9v-5.7h.8v5.8h5.5v-6.1l.8-.1Z"/><path class="cls-3" d="M219.1,494.73c-.6,0-.9-.2-.9-.7s.3-.7.9-.7.9.2.9.7S219.7,494.73,219.1,494.73Z"/><path class="cls-3" d="M219.7,480.73v.9h-6.3v7.5h6.3v.9H206.9v-.9h5.7v-7.5h-5.7v-.9Z"/><path class="cls-3" d="M213.2,472v-4.7h5.9a10.84,10.84,0,0,1,.8,4.2,6.43,6.43,0,0,1-1.7,4.7,6.74,6.74,0,0,1-4.9,1.6,7.84,7.84,0,0,1-3.5-.8,5.12,5.12,0,0,1-2.3-2.3,6.35,6.35,0,0,1-.8-3.4,9.21,9.21,0,0,1,.8-3.8l.8.4a8.53,8.53,0,0,0-.8,3.5,5.06,5.06,0,0,0,1.6,4,5.84,5.84,0,0,0,4.2,1.5,6.45,6.45,0,0,0,4.4-1.4,5.38,5.38,0,0,0,1.5-4.2,8.53,8.53,0,0,0-.5-3h-4.5v3.8l-1-.1Z"/><path class="cls-3" d="M219.1,464.53c-.6,0-.9-.2-.9-.7s.3-.7.9-.7.9.2.9.7S219.7,464.53,219.1,464.53Z"/><path class="cls-3" d="M213.2,452.33a9.36,9.36,0,0,1,5,1,3.37,3.37,0,0,1,1.6,3.1,3.56,3.56,0,0,1-1.7,3.1,13,13,0,0,1-10,0,3.37,3.37,0,0,1-1.6-3.1,3.45,3.45,0,0,1,1.7-3.1A11.66,11.66,0,0,1,213.2,452.33Zm0,7.4a9.55,9.55,0,0,0,4.4-.8,2.59,2.59,0,0,0,1.4-2.4,2.51,2.51,0,0,0-1.5-2.4,9.85,9.85,0,0,0-4.4-.8,9.67,9.67,0,0,0-4.3.8,2.67,2.67,0,0,0,0,4.8A10.16,10.16,0,0,0,213.2,459.73Z"/><path class="cls-3" d="M213.2,442.13a9.36,9.36,0,0,1,5,1,3.37,3.37,0,0,1,1.6,3.1,3.56,3.56,0,0,1-1.7,3.1,13,13,0,0,1-10,0,3.37,3.37,0,0,1-1.6-3.1,3.45,3.45,0,0,1,1.7-3.1A10.35,10.35,0,0,1,213.2,442.13Zm0,7.3a9.55,9.55,0,0,0,4.4-.8,2.59,2.59,0,0,0,1.4-2.4,2.51,2.51,0,0,0-1.5-2.4,9.85,9.85,0,0,0-4.4-.8,9.67,9.67,0,0,0-4.3.8,2.67,2.67,0,0,0,0,4.8A10.16,10.16,0,0,0,213.2,449.43Z"/><path class="cls-3" d="M219.7,435.13v.9h-9.4a23.48,23.48,0,0,1-2.6-.1l.3.3q.15.15,2.1,2.7l-.6.5-2.6-3.5v-.8Z"/><path class="cls-3" d="M121.6,478.43h-7v-12.8h7v.8h-6.1v4.9h5.8v.8h-5.8v5.5h6.1Z"/><path class="cls-3" d="M124.1,477.83c0-.6.2-.9.7-.9s.7.3.7.9-.2.9-.7.9A.8.8,0,0,1,124.1,477.83Z"/><path class="cls-3" d="M138.1,478.43h-.9v-6.3h-7.5v6.3h-.9v-12.8h.9v5.7h7.5v-5.7h.9Z"/><path class="cls-3" d="M146.8,472h4.7v5.9a10.84,10.84,0,0,1-4.2.8,6.43,6.43,0,0,1-4.7-1.7,6.74,6.74,0,0,1-1.6-4.9,7.85,7.85,0,0,1,.8-3.5,5.12,5.12,0,0,1,2.3-2.3,7.42,7.42,0,0,1,3.4-.8,9.21,9.21,0,0,1,3.8.8l-.4.8a8.53,8.53,0,0,0-3.5-.8,5.06,5.06,0,0,0-4,1.6,5.84,5.84,0,0,0-1.5,4.2,6.45,6.45,0,0,0,1.4,4.4,5.38,5.38,0,0,0,4.2,1.5,8.53,8.53,0,0,0,3-.5V473h-3.8v-1Z"/><path class="cls-3" d="M154.3,477.83c0-.6.2-.9.7-.9s.7.3.7.9-.2.9-.7.9A.88.88,0,0,1,154.3,477.83Z"/><path class="cls-3" d="M166.4,472a9.36,9.36,0,0,1-1,5,3.37,3.37,0,0,1-3.1,1.6,3.56,3.56,0,0,1-3.1-1.7,13,13,0,0,1,0-10,3.37,3.37,0,0,1,3.1-1.6,3.45,3.45,0,0,1,3.1,1.7A9.84,9.84,0,0,1,166.4,472Zm-7.3,0a9.55,9.55,0,0,0,.8,4.4,2.59,2.59,0,0,0,2.4,1.4,2.51,2.51,0,0,0,2.4-1.5,9.85,9.85,0,0,0,.8-4.4,9.67,9.67,0,0,0-.8-4.3,2.67,2.67,0,0,0-4.8,0A10.16,10.16,0,0,0,159.1,472Z"/><path class="cls-3" d="M176.7,472a9.36,9.36,0,0,1-1,5,3.37,3.37,0,0,1-3.1,1.6,3.56,3.56,0,0,1-3.1-1.7,13,13,0,0,1,0-10,3.37,3.37,0,0,1,3.1-1.6,3.45,3.45,0,0,1,3.1,1.7A11,11,0,0,1,176.7,472Zm-7.4,0a9.55,9.55,0,0,0,.8,4.4,2.59,2.59,0,0,0,2.4,1.4,2.51,2.51,0,0,0,2.4-1.5,9.85,9.85,0,0,0,.8-4.4,9.67,9.67,0,0,0-.8-4.3,2.67,2.67,0,0,0-4.8,0A10.16,10.16,0,0,0,169.3,472Z"/><path class="cls-3" d="M186.7,478.43h-8v-.8l3.4-3.6a24,24,0,0,0,2-2.3,6,6,0,0,0,.9-1.5,4,4,0,0,0,.3-1.5,2.56,2.56,0,0,0-.8-1.9,2.72,2.72,0,0,0-2-.7,4.85,4.85,0,0,0-3.1,1.2l-.5-.6a5.62,5.62,0,0,1,3.6-1.4,3.57,3.57,0,0,1,2.6.9,3.38,3.38,0,0,1,1,2.5,5.73,5.73,0,0,1-.6,2.5,11,11,0,0,1-2.4,2.9l-3.3,3.4h6.9v.9Z"/><path class="cls-3" d="M113.8,280.93h4.7a8.35,8.35,0,0,1,4.7,1.1,3.75,3.75,0,0,1,1.5,3.3,3.66,3.66,0,0,1-.9,2.5,4.32,4.32,0,0,1-2.7,1.3v.1a4.67,4.67,0,0,1,3,1.3,4.66,4.66,0,0,1-.6,6.4,7.3,7.3,0,0,1-4.5,1.3h-5.2Zm1.3,7.6h3.8a6.22,6.22,0,0,0,3.5-.8,3,3,0,0,0,1.1-2.5,2.79,2.79,0,0,0-1.2-2.5,7.26,7.26,0,0,0-3.7-.8h-3.5v6.6Zm0,1.1V297h4q4.8,0,4.8-3.9c0-2.4-1.7-3.5-5-3.5Z"/><path class="cls-3" d="M128.4,281.73c0-.8.2-1.1.7-1.1a.86.86,0,0,1,.6.3,1.08,1.08,0,0,1,.2.8,1.55,1.55,0,0,1-.2.8.6.6,0,0,1-.6.3C128.8,282.93,128.4,282.53,128.4,281.73Zm1.4,16.3h-1.2v-12.7h1.2Z"/><path class="cls-3" d="M139.6,285a4.85,4.85,0,0,1,4,1.7,9.28,9.28,0,0,1,0,9.8,5,5,0,0,1-4,1.7,4.75,4.75,0,0,1-2.4-.6,4.36,4.36,0,0,1-1.7-1.6h-.1l-.3,1.9h-.7v-18.2h1.2v7.5h.1a4.85,4.85,0,0,1,1.8-1.7A3.46,3.46,0,0,1,139.6,285Zm0,1.1a3.58,3.58,0,0,0-3.2,1.3,7.76,7.76,0,0,0-1,4.3v.2c0,1.9.3,3.3,1,4.1a4,4,0,0,0,3.2,1.3,3.5,3.5,0,0,0,3.1-1.5,7.23,7.23,0,0,0,1.1-4.2C143.6,287.93,142.3,286.13,139.6,286.13Z"/><path class="cls-3" d="M149.6,298h-1.1v-18.2h1.2l-.1,18.2Z"/><path class="cls-3" d="M153.6,281.73c0-.8.2-1.1.7-1.1a.86.86,0,0,1,.6.3,1.08,1.08,0,0,1,.2.8,1.55,1.55,0,0,1-.2.8.6.6,0,0,1-.6.3C154,282.93,153.6,282.53,153.6,281.73Zm1.5,16.3h-1.2v-12.7h1.2Z"/><path class="cls-3" d="M169.8,291.63a7.36,7.36,0,0,1-1.5,4.9,5.17,5.17,0,0,1-4.2,1.8,6.11,6.11,0,0,1-3-.8,5,5,0,0,1-2-2.3,7.82,7.82,0,0,1-.7-3.5,7.36,7.36,0,0,1,1.5-4.9,5,5,0,0,1,4.1-1.7,5,5,0,0,1,4.1,1.8A7.07,7.07,0,0,1,169.8,291.63Zm-10,0a6.26,6.26,0,0,0,1.2,4.1,4.38,4.38,0,0,0,6.6,0,7.6,7.6,0,0,0,0-8.2,4,4,0,0,0-3.3-1.5,4.22,4.22,0,0,0-3.3,1.4A6.56,6.56,0,0,0,159.8,291.63Z"/><path class="cls-3" d="M176.2,297.23a10.07,10.07,0,0,0,1.9-.2v.9a5.82,5.82,0,0,1-1.9.3,3.18,3.18,0,0,1-2.5-.9,4.25,4.25,0,0,1-.8-2.8v-8.2H171v-.7l1.9-.5.6-2.9h.6v3.1h3.7v1h-3.6v8.1a4.2,4.2,0,0,0,.5,2.2A1.62,1.62,0,0,0,176.2,297.23Z"/><path class="cls-3" d="M189.8,298v-8.3a4.25,4.25,0,0,0-.8-2.8,3.18,3.18,0,0,0-2.5-.9,4.16,4.16,0,0,0-3.3,1.2,5.45,5.45,0,0,0-1.1,3.7v7h-1.2v-18.2h1.2v5.8l-.1,1.6h.1a4.85,4.85,0,0,1,1.8-1.7,5.44,5.44,0,0,1,2.7-.5c2.9,0,4.3,1.6,4.3,4.7v8.3l-1.1.1Z"/><path class="cls-3" d="M200.3,298.23a5.49,5.49,0,0,1-4.3-1.7,6.93,6.93,0,0,1-1.6-4.8,7.54,7.54,0,0,1,1.5-4.9,4.9,4.9,0,0,1,4-1.8,4.38,4.38,0,0,1,3.6,1.6,6.49,6.49,0,0,1,1.3,4.3v.9h-9.2a5.8,5.8,0,0,0,1.2,4,4.29,4.29,0,0,0,3.4,1.4,9.53,9.53,0,0,0,4-.9v1.1a8.93,8.93,0,0,1-2,.6A10.07,10.07,0,0,1,200.3,298.23Zm-.3-12.1a4.07,4.07,0,0,0-3,1.2,5.3,5.3,0,0,0-1.3,3.5h7.9a5.4,5.4,0,0,0-1-3.5A3,3,0,0,0,200,286.13Z"/><path class="cls-3" d="M209.6,292.43l6.5-7.1h1.4l-5,5.4,5.4,7.3h-1.4l-4.8-6.4-2.1,1.9V298h-1.2v-18.2h1.2v12.6Z"/><path class="cls-3" d="M130.3,325.53h-7v-12.9h7v.8h-6.1v4.9H130v.8h-5.8v5.5h6.1Z"/><path class="cls-3" d="M132.8,324.83c0-.6.2-.9.7-.9s.7.3.7.9-.2.9-.7.9A.81.81,0,0,1,132.8,324.83Z"/><path class="cls-3" d="M146.8,325.53h-.9v-6.3h-7.5v6.3h-.9v-12.9h.9v5.7h7.5v-5.7h.9v12.9Z"/><path class="cls-3" d="M155.4,319h4.7v5.9a10.84,10.84,0,0,1-4.2.8,6.43,6.43,0,0,1-4.7-1.7,6.74,6.74,0,0,1-1.6-4.9,7.85,7.85,0,0,1,.8-3.5,5.12,5.12,0,0,1,2.3-2.3,7.42,7.42,0,0,1,3.4-.8,9.21,9.21,0,0,1,3.8.8l-.4.8a8.53,8.53,0,0,0-3.5-.8,5.06,5.06,0,0,0-4,1.6,6,6,0,0,0-1.5,4.2,6.45,6.45,0,0,0,1.4,4.4,5.38,5.38,0,0,0,4.2,1.5,8.53,8.53,0,0,0,3-.5V320h-3.7Z"/><path class="cls-3" d="M163.1,324.83c0-.6.2-.9.7-.9s.7.3.7.9-.2.9-.7.9S163.1,325.43,163.1,324.83Z"/><path class="cls-3" d="M174.7,319a9.36,9.36,0,0,1-1,5,3.37,3.37,0,0,1-3.1,1.6,3.56,3.56,0,0,1-3.1-1.7,13,13,0,0,1,0-10,3.37,3.37,0,0,1,3.1-1.6,3.45,3.45,0,0,1,3.1,1.7A9.6,9.6,0,0,1,174.7,319Zm-7.4,0a9.55,9.55,0,0,0,.8,4.4,2.59,2.59,0,0,0,2.4,1.4,2.51,2.51,0,0,0,2.4-1.5,9.85,9.85,0,0,0,.8-4.4,9.67,9.67,0,0,0-.8-4.3,2.67,2.67,0,0,0-4.8,0A10.16,10.16,0,0,0,167.3,319Z"/><path class="cls-3" d="M185,319a9.36,9.36,0,0,1-1,5,3.37,3.37,0,0,1-3.1,1.6,3.56,3.56,0,0,1-3.1-1.7,13,13,0,0,1,0-10,3.37,3.37,0,0,1,3.1-1.6A3.45,3.45,0,0,1,184,314,9.6,9.6,0,0,1,185,319Zm-7.3,0a9.55,9.55,0,0,0,.8,4.4,2.59,2.59,0,0,0,2.4,1.4,2.51,2.51,0,0,0,2.4-1.5,9.85,9.85,0,0,0,.8-4.4,9.67,9.67,0,0,0-.8-4.3,2.67,2.67,0,0,0-4.8,0A10.16,10.16,0,0,0,177.7,319Z"/><path class="cls-3" d="M194.6,315.63a2.79,2.79,0,0,1-.8,2,3.48,3.48,0,0,1-2,1v.1a4.39,4.39,0,0,1,2.4,1,2.52,2.52,0,0,1,.8,2.1,3.49,3.49,0,0,1-1.2,2.8,5.22,5.22,0,0,1-3.5,1,7.39,7.39,0,0,1-3.4-.7V324a4.28,4.28,0,0,0,1.7.6,12.76,12.76,0,0,0,1.7.2,4.56,4.56,0,0,0,2.9-.8,2.87,2.87,0,0,0,1-2.2,2.33,2.33,0,0,0-1-2,4.79,4.79,0,0,0-2.9-.7h-1.4v-.8h1.4a3.74,3.74,0,0,0,2.5-.8,2.58,2.58,0,0,0,.9-2.1,2.14,2.14,0,0,0-.8-1.7,3.17,3.17,0,0,0-2-.6,4.67,4.67,0,0,0-1.7.3,15,15,0,0,0-1.8.9l-.4-.6a7.68,7.68,0,0,1,1.8-1,5.22,5.22,0,0,1,2.1-.4,4.14,4.14,0,0,1,2.7.8A3.38,3.38,0,0,1,194.6,315.63Z"/></g></svg>