<svg id="Ebene_1" data-name="Ebene 1" xmlns="http://www.w3.org/2000/svg" viewBox="0 0 1126 901"><defs><style>.cls-1,.cls-2,.cls-9{fill:#d9e3ea;}.cls-2,.cls-3,.cls-4,.cls-5,.cls-9{stroke:#005081;stroke-miterlimit:10;}.cls-2,.cls-3{stroke-linecap:round;}.cls-3,.cls-4,.cls-5{fill:none;}.cls-4{stroke-width:3px;}.cls-6{font-size:13px;}.cls-10,.cls-11,.cls-12,.cls-13,.cls-6,.cls-7,.cls-8{fill:#005081;}.cls-10,.cls-11,.cls-12,.cls-6,.cls-7,.cls-8{font-family:OpenSans-Light, Open Sans;}.cls-7{font-size:22px;}.cls-8{font-size:18px;}.cls-10{font-size:15px;}.cls-11{font-size:10.42px;}.cls-12{font-size:8px;}.cls-13{font-size:37px;font-family:OpenSans, Open Sans;}</style></defs><title>pk_lab_eg</title><rect class="cls-1" x="891" y="194" width="153" height="155.42"/><rect class="cls-2" x="1" y="350" width="500" height="375.18"/><rect class="cls-2" x="396" y="537" width="105" height="187.59"/><rect class="cls-2" x="157" y="226" width="156" height="124.19"/><rect class="cls-2" x="1" y="226" width="155" height="124.19"/><line class="cls-3" x1="63" y1="226" x2="63" y2="350"/><line class="cls-3" x1="22" y1="288" x2="63" y2="288"/><line class="cls-4" x1="86" y1="350" x2="102" y2="350"/><line class="cls-4" x1="12" y1="350" x2="28" y2="350"/><line class="cls-4" x1="166" y1="350" x2="182" y2="350"/><line class="cls-4" x1="271" y1="350" x2="286" y2="350"/><line class="cls-4" x1="417" y1="537" x2="432" y2="537"/><line class="cls-4" x1="432" y1="537" x2="448" y2="537"/><line class="cls-4" x1="396" y1="651" x2="396" y2="663"/><line class="cls-4" x1="396" y1="663" x2="396" y2="675"/><line class="cls-5" x1="211" y1="226" x2="211" y2="350"/><text class="cls-6" transform="translate(15 253)">Laser</text><text class="cls-6" transform="translate(9 270)">L2.0.04</text><text class="cls-7" transform="translate(75 279)">Akustik</text><text class="cls-7" transform="translate(74 309)">L2.0.03</text><text class="cls-6" transform="translate(162 283)">Analytik</text><text class="cls-6" transform="translate(162 299)">L2.0.02</text><text class="cls-8" transform="translate(215 262)">Verfahrens-<tspan x="18" y="22">technik</tspan></text><text class="cls-7" transform="translate(226 316)">L2.0.01</text><text class="cls-7" transform="translate(140 520)">Laborhalle 2</text><text class="cls-7" transform="translate(167 554)">L2.0.06</text><text class="cls-7" transform="translate(412 613)">Lager 5</text><text class="cls-7" transform="translate(412 648)">L2.0.07</text><text class="cls-6" transform="translate(8 313)">Arbeitsr.</text><text class="cls-6" transform="translate(9 330)">L2.0.05</text><rect class="cls-9" x="502" y="350" width="436" height="312.65"/><line class="cls-5" x1="938" y1="600" x2="845" y2="600"/><line class="cls-5" x1="689" y1="662" x2="689" y2="600"/><line class="cls-5" x1="782" y1="600" x2="689" y2="600"/><rect class="cls-9" x="938" y="350" width="188" height="312.65"/><rect class="cls-9" x="1044" y="193" width="81" height="156.33"/><rect class="cls-5" x="626" y="193" width="419" height="156.33"/><rect class="cls-9" x="502" y="285" width="124" height="64.27"/><rect class="cls-9" x="502" y="221" width="124" height="64.27"/><line class="cls-5" x1="1125" y1="193" x2="1125" y2="136"/><line class="cls-5" x1="679" y1="136" x2="1125" y2="136"/><rect class="cls-9" x="786" y="307" width="104" height="42.56"/><rect class="cls-9" x="786" y="265" width="104" height="42.56"/><rect class="cls-9" x="751" y="294" width="36" height="55.58"/><rect class="cls-9" x="715" y="294" width="36" height="55.58"/><line class="cls-5" x1="715" y1="265" x2="786" y2="265"/><polygon class="cls-5" points="798 219 799 194 891 194 891 220 798 219"/><line class="cls-5" x1="890" y1="208" x2="798" y2="207"/><line class="cls-5" x1="880" y1="194" x2="880" y2="219"/><line class="cls-5" x1="866" y1="194" x2="867" y2="219"/><line class="cls-5" x1="855" y1="194" x2="855" y2="220"/><line class="cls-5" x1="843" y1="194" x2="844" y2="220"/><line class="cls-5" x1="833" y1="194" x2="833" y2="219"/><line class="cls-5" x1="823" y1="194" x2="823" y2="220"/><line class="cls-5" x1="811" y1="194" x2="811" y2="219"/><line class="cls-5" x1="499" y1="193" x2="541" y2="193"/><text class="cls-7" transform="translate(526 250)">Lager 3</text><text class="cls-7" transform="translate(527 276)">L1.0.11</text><text class="cls-10" transform="translate(812 283)">Lager 1</text><text class="cls-10" transform="translate(812 301)">L1.0.04</text><text class="cls-7" transform="translate(920 271)">Werkstatt</text><text class="cls-7" transform="translate(932 306)">L1.0.03</text><text class="cls-7" transform="translate(1055 249)">Hausl. <tspan x="2" y="26">Labor</tspan></text><text class="cls-7" transform="translate(1047 308)">L1.0.02</text><text class="cls-7" transform="translate(944 468)">Technik<tspan x="76" y="0">-</tspan><tspan x="4" y="26">bereich</tspan></text><text class="cls-7" transform="translate(948 529)">L1.0.14</text><text class="cls-10" transform="translate(812 326)">Lager 2</text><text class="cls-10" transform="translate(812 345)">L1.0.05</text><text class="cls-7" transform="translate(524 315)">Lager 4</text><text class="cls-7" transform="translate(525 340)">L1.0.12</text><text class="cls-11" transform="translate(719 318)">WC-D</text><text class="cls-12" transform="translate(720 335)">L1.0.09</text><text class="cls-11" transform="translate(756 318)">WC-H</text><text class="cls-12" transform="translate(755 335)">L1.0.08</text><text class="cls-7" transform="translate(654 488)">Laborhalle 1</text><text class="cls-7" transform="translate(680 516)">L1.0.13</text><line class="cls-5" x1="1033" y1="351" x2="1033" y2="494"/><line class="cls-5" x1="1033" y1="554" x2="1033" y2="663"/><line class="cls-5" x1="891" y1="220" x2="891" y2="265"/><line class="cls-4" x1="724" y1="294" x2="740" y2="294"/><line class="cls-4" x1="762" y1="294" x2="777" y2="294"/><line class="cls-4" x1="655" y1="350" x2="670" y2="350"/><line class="cls-4" x1="626" y1="327" x2="626" y2="311"/><line class="cls-4" x1="891" y1="335" x2="891" y2="320"/><line class="cls-4" x1="891" y1="293" x2="891" y2="277"/><line class="cls-4" x1="891" y1="249" x2="891" y2="233"/><line class="cls-4" x1="926" y1="193" x2="910" y2="193"/><line class="cls-4" x1="1080" y1="193" x2="1064" y2="193"/><line class="cls-4" x1="626" y1="254" x2="626" y2="239"/><line class="cls-4" x1="626" y1="216" x2="626" y2="200"/><line class="cls-4" x1="897" y1="350" x2="923" y2="350"/><line class="cls-4" x1="938" y1="419" x2="938" y2="445"/><line class="cls-4" x1="502" y1="476" x2="502" y2="515"/><text class="cls-13" transform="translate(123 124)">Labortrakt EG</text></svg>