<svg id="Ebene_1" data-name="Ebene 1" xmlns="http://www.w3.org/2000/svg" viewBox="0 0 1126 901"><defs><style>.cls-1,.cls-4{fill:#d9e3ea;}.cls-11,.cls-12,.cls-2,.cls-5,.cls-6,.cls-7,.cls-8{fill:#005081;}.cls-10,.cls-3,.cls-9{fill:none;}.cls-10,.cls-3,.cls-4,.cls-9{stroke:#005081;stroke-miterlimit:10;}.cls-5{font-size:21px;letter-spacing:0.04em;}.cls-11,.cls-5,.cls-6,.cls-7,.cls-8{font-family:OpenSans-Light, Open Sans;}.cls-6{font-size:22px;}.cls-6,.cls-8{letter-spacing:0.04em;}.cls-11,.cls-7{font-size:15px;}.cls-7{letter-spacing:0.04em;}.cls-8{font-size:11px;}.cls-9{stroke-dasharray:11.64 11.64;}.cls-10{stroke-width:3px;}.cls-12{font-size:37px;font-family:OpenSans, Open Sans;}</style></defs><title>pk_sem_eg</title><rect class="cls-1" x="983" y="61" width="142" height="141.93"/><path class="cls-2" d="M1124,61V202H983V61h141m1-1H982V203h143V60Z"/><rect class="cls-1" x="320" y="61" width="100" height="141.93"/><path class="cls-2" d="M419,61V202H320V61h99m1-1H319V203H420V60Z"/><rect class="cls-1" x="373" y="271" width="50" height="141.93"/><path class="cls-2" d="M422,271V412H374V271h49m1-1H373V413h51V270Z"/><rect class="cls-1" x="323" y="271" width="50" height="141.93"/><path class="cls-2" d="M372,271V412H323V271h49m1-1H322V413h51V270Z"/><rect class="cls-1" x="272" y="271" width="50" height="105.95"/><path class="cls-2" d="M321,271V376H273V271h49m1-1H272V377h51V270Z"/><rect class="cls-1" x="272" y="377" width="50" height="35.95"/><path class="cls-2" d="M321,377v35H273V377h49m1-1H272v37h51V376Z"/><rect class="cls-1" x="221" y="271" width="50" height="141.93"/><path class="cls-2" d="M271,271V412H222V271h49m1-1H221V413h51V270Z"/><rect class="cls-1" x="220" y="61" width="100" height="141.93"/><path class="cls-2" d="M319,61V202H220V61h99m1-1H219V203H320V60Z"/><rect class="cls-1" x="421" y="61" width="283" height="141.93"/><path class="cls-2" d="M703,61V202H421V61H703m1-1H420V203H704V60Z"/><rect class="cls-1" x="704" y="61" width="279" height="141.93"/><path class="cls-2" d="M982,61V202H704V61H982m1-1H703V203H983V60Z"/><rect class="cls-1" x="983" y="271" width="142" height="141.93"/><path class="cls-2" d="M1124,271V412H983V271h141m1-1H982V413h143V270Z"/><rect class="cls-1" x="704" y="271" width="279" height="141.93"/><path class="cls-2" d="M982,271V412H704V271H982m1-1H703V413H983V270Z"/><rect class="cls-1" x="424" y="271" width="279" height="141.93"/><path class="cls-2" d="M702,271V412H424V271H702m1-1H423V413H703V270Z"/><line class="cls-3" x1="221" y1="413" x2="221" y2="830"/><rect class="cls-4" x="2" y="621" width="144" height="209.04"/><line class="cls-3" x1="6" y1="480" x2="76" y2="480"/><line class="cls-3" x1="76" y1="621" x2="76" y2="480"/><line class="cls-3" x1="147" y1="480" x2="76" y2="480"/><line class="cls-3" x1="220" y1="480" x2="209" y2="480"/><path class="cls-3" d="M6,480c3-56,9-116,18-179A2122,2122,0,0,1,72,59"/><line class="cls-3" x1="72" y1="59" x2="72" y2="132"/><line class="cls-3" x1="147" y1="132" x2="72" y2="132"/><rect class="cls-4" x="147" y="87" width="73" height="44.73"/><rect class="cls-3" x="102" y="204" width="34" height="86.92" transform="translate(39 -15) rotate(9)"/><rect class="cls-3" x="86" y="305" width="34" height="86.92" transform="translate(55 -12) rotate(9)"/><line class="cls-3" x1="126" y1="205" x2="113" y2="290"/><line class="cls-3" x1="111" y1="306" x2="97" y2="392"/><line class="cls-3" x1="107" y1="212" x2="141" y2="217"/><line class="cls-3" x1="105" y1="224" x2="139" y2="229"/><line class="cls-3" x1="104" y1="235" x2="138" y2="240"/><line class="cls-3" x1="102" y1="246" x2="136" y2="251"/><line class="cls-3" x1="100" y1="255" x2="134" y2="260"/><line class="cls-3" x1="99" y1="265" x2="133" y2="270"/><line class="cls-3" x1="97" y1="276" x2="131" y2="281"/><line class="cls-3" x1="91" y1="314" x2="125" y2="319"/><line class="cls-3" x1="89" y1="326" x2="123" y2="331"/><line class="cls-3" x1="88" y1="337" x2="122" y2="342"/><line class="cls-3" x1="86" y1="348" x2="120" y2="353"/><line class="cls-3" x1="84" y1="358" x2="118" y2="362"/><line class="cls-3" x1="83" y1="367" x2="117" y2="372"/><line class="cls-3" x1="81" y1="378" x2="115" y2="383"/><text class="cls-5" transform="translate(222 105)">Lektoren-<tspan x="11" y="25">zimmer</tspan></text><text class="cls-6" transform="translate(231 162)">ST.2.04</text><text class="cls-6" transform="translate(347 130)">Büro</text><text class="cls-6" transform="translate(333 156)">ST.2.05</text><text class="cls-6" transform="translate(467 131)">Büro</text><text class="cls-6" transform="translate(452 156)">ST.2.06</text><text class="cls-6" transform="translate(607 131)">Büro</text><text class="cls-6" transform="translate(587 156)">ST.2.06a</text><text class="cls-6" transform="translate(808 131)">Sem. 5</text><text class="cls-6" transform="translate(803 156)">ST.2.07</text><text class="cls-6" transform="translate(1019 131)">Sem. 6</text><text class="cls-6" transform="translate(1017 156)">ST.2.08</text><text class="cls-6" transform="translate(1019 343)">Sem. 7</text><text class="cls-6" transform="translate(1015 369)">ST.2.09</text><text class="cls-6" transform="translate(809 346)">Sem. 8</text><text class="cls-6" transform="translate(806 371)">ST.2.10</text><text class="cls-6" transform="translate(528 343)">Sem. 9</text><text class="cls-6" transform="translate(525 369)">ST.2.11</text><text class="cls-6" transform="translate(32 716)">Bespr. 3</text><text class="cls-6" transform="translate(37 749)">ST.2.01</text><text class="cls-7" transform="translate(378 326)">WC-H</text><text class="cls-8" transform="translate(378 348)">ST.2.12</text><text class="cls-7" transform="translate(327 326)">WC-D</text><text class="cls-8" transform="translate(327 348)">ST.2.13</text><text class="cls-7" transform="translate(277 326)">Lager</text><text class="cls-8" transform="translate(277 348)">ST.2.15</text><line class="cls-3" x1="561" y1="62" x2="561" y2="68"/><line class="cls-9" x1="561" y1="80" x2="561" y2="190"/><line class="cls-3" x1="561" y1="196" x2="561" y2="202"/><line class="cls-10" x1="276" y1="203" x2="294" y2="203"/><line class="cls-10" x1="348" y1="203" x2="365" y2="203"/><line class="cls-10" x1="649" y1="203" x2="666" y2="203"/><line class="cls-10" x1="948" y1="203" x2="965" y2="203"/><line class="cls-10" x1="1022" y1="203" x2="1040" y2="203"/><line class="cls-10" x1="1026" y1="270" x2="1043" y2="270"/><line class="cls-10" x1="908" y1="270" x2="926" y2="270"/><line class="cls-10" x1="611" y1="270" x2="629" y2="270"/><line class="cls-10" x1="385" y1="270" x2="402" y2="270"/><line class="cls-10" x1="347" y1="270" x2="364" y2="270"/><line class="cls-10" x1="279" y1="270" x2="297" y2="270"/><line class="cls-10" x1="322" y1="403" x2="322" y2="386"/><line class="cls-10" x1="147" y1="777" x2="147" y2="760"/><line class="cls-10" x1="147" y1="667" x2="147" y2="650"/><line class="cls-10" x1="76" y1="570" x2="76" y2="532"/><text class="cls-11" transform="translate(2 553)">EINGANG</text><text class="cls-12" transform="translate(509 594)">Seminartrakt EG</text><line class="cls-3" x1="1125" y1="204" x2="1125" y2="271"/><line class="cls-3" x1="221" y1="830" x2="147" y2="830"/></svg>