<svg id="Ebene_1" data-name="Ebene 1" xmlns="http://www.w3.org/2000/svg" viewBox="0 0 1126 901"><defs><style>.cls-1,.cls-4{fill:#d9e3ea;}.cls-2{font-size:37.13px;font-family:OpenSans, Open Sans;}.cls-2,.cls-5,.cls-6,.cls-7{fill:#005081;}.cls-3,.cls-8{fill:none;}.cls-3,.cls-4,.cls-8{stroke:#005081;stroke-miterlimit:10;}.cls-5{font-size:22px;}.cls-5,.cls-6,.cls-7{font-family:OpenSans-Light, Open Sans;}.cls-6{font-size:9.8px;}.cls-7{font-size:16px;}.cls-8{stroke-width:3px;}</style></defs><title>pk_hauptg_og</title><rect class="cls-1" x="138" y="419" width="60" height="132.26"/><text class="cls-2" transform="translate(402 194)">Hauptgebäude DG</text><rect class="cls-3" x="1" y="340" width="198" height="339.64"/><polygon class="cls-3" points="1126 298 1126 594 787 594 787 340 732 340 732 298 1126 298"/><polygon class="cls-3" points="285 382 285 630 199 630 199 281 285 281 285 340 285 364 285 382"/><polygon class="cls-3" points="787 594 787 340 732 340 285 340 285 364 285 382 285 630 787 630 787 594"/><rect class="cls-4" x="16" y="340" width="135" height="115.12"/><rect class="cls-4" x="47" y="551" width="151" height="128.18"/><line class="cls-3" x1="138" y1="455" x2="138" y2="551"/><rect class="cls-4" x="70" y="523" width="29" height="28.58"/><rect class="cls-4" x="70" y="494" width="29" height="28.58"/><line class="cls-3" x1="1" y1="587" x2="47" y2="587"/><line class="cls-3" x1="151" y1="419" x2="198" y2="419"/><text class="cls-5" transform="translate(23 382)">Aufenthalts<tspan x="112" y="0">-</tspan><tspan x="23" y="20">bereich </tspan></text><text class="cls-5" transform="translate(47 428)">T2.2.03</text><text class="cls-5" transform="translate(94 607)">EDV 2</text><text class="cls-5" transform="translate(84 634)">T2.2.04</text><text class="cls-6" transform="translate(137 489)">Studierenden<tspan x="6" y="10">Vertretung</tspan></text><text class="cls-7" transform="translate(142 520)">T2.2.05</text><polygon class="cls-3" points="24 567 0 566 1 495 24 495 24 567"/><line class="cls-3" x1="13" y1="495" x2="12" y2="567"/><line class="cls-3" y1="503" x2="24" y2="503"/><line class="cls-3" y1="514" x2="24" y2="514"/><line class="cls-3" x1="1" y1="523" x2="25" y2="522"/><line class="cls-3" y1="532" x2="24" y2="531"/><line class="cls-3" y1="540" x2="24" y2="540"/><line class="cls-3" y1="548" x2="24" y2="548"/><line class="cls-3" y1="557" x2="24" y2="557"/><polygon class="cls-3" points="48 567 25 566 25 495 49 495 48 567"/><line class="cls-3" x1="37" y1="495" x2="37" y2="567"/><line class="cls-3" x1="25" y1="503" x2="49" y2="503"/><line class="cls-3" x1="25" y1="514" x2="49" y2="514"/><line class="cls-3" x1="25" y1="523" x2="49" y2="522"/><line class="cls-3" x1="25" y1="532" x2="49" y2="531"/><line class="cls-3" x1="24" y1="540" x2="48" y2="540"/><line class="cls-3" x1="25" y1="548" x2="49" y2="548"/><line class="cls-3" x1="25" y1="557" x2="49" y2="557"/><line class="cls-8" x1="88" y1="455" x2="102" y2="455"/><line class="cls-8" x1="121" y1="551" x2="135" y2="551"/><line class="cls-3" x1="79" y1="523" x2="94" y2="523"/><line class="cls-8" x1="138" y1="501" x2="138" y2="516"/><line class="cls-3" x1="98" y1="501" x2="98" y2="516"/><line class="cls-3" x1="16" y1="455" x2="1" y2="455"/></svg>