<svg id="Ebene_1" data-name="Ebene 1" xmlns="http://www.w3.org/2000/svg" viewBox="0 0 1126 901"><defs><style>.cls-1,.cls-2,.cls-6{fill:#d9e3ea;}.cls-1,.cls-2,.cls-3,.cls-4,.cls-7,.cls-9{stroke:#005081;}.cls-1,.cls-2,.cls-3,.cls-4,.cls-5,.cls-7,.cls-8,.cls-9{stroke-miterlimit:10;}.cls-1{stroke-width:0.5px;}.cls-3,.cls-4,.cls-5,.cls-9{fill:none;}.cls-4{stroke-width:1.5px;}.cls-5,.cls-8{stroke:#2e3192;}.cls-7,.cls-8{fill:#fff;}.cls-9{stroke-width:3px;}.cls-10{font-size:20px;}.cls-10,.cls-11,.cls-12,.cls-13,.cls-14,.cls-15,.cls-16,.cls-17,.cls-18,.cls-19,.cls-20,.cls-21,.cls-22,.cls-23,.cls-24,.cls-25,.cls-26,.cls-27,.cls-28,.cls-29,.cls-30,.cls-31,.cls-32{fill:#005081;}.cls-10,.cls-11,.cls-12,.cls-13,.cls-14,.cls-15,.cls-16,.cls-17,.cls-18,.cls-19,.cls-20,.cls-21,.cls-22,.cls-23,.cls-24,.cls-25,.cls-26,.cls-27,.cls-28,.cls-30,.cls-31,.cls-32{font-family:OpenSans-Light, Open Sans;}.cls-11{font-size:15px;}.cls-12{font-size:21.01px;}.cls-13{font-size:23.81px;}.cls-14{font-size:25.93px;}.cls-15{font-size:13.33px;}.cls-16{font-size:13.14px;}.cls-17{font-size:13.42px;}.cls-18{font-size:21.5px;}.cls-19{font-size:11.46px;}.cls-20{font-size:18.4px;}.cls-21{font-size:22.82px;}.cls-22{font-size:22.09px;}.cls-23{font-size:10.62px;}.cls-24{font-size:10.1px;}.cls-25{font-size:26.99px;}.cls-26{font-size:27.34px;}.cls-27{font-size:21.92px;}.cls-28{font-size:24.98px;}.cls-29{font-size:37.13px;font-family:OpenSans, Open Sans;}.cls-30{font-size:27.2px;}.cls-31{font-size:21.59px;}.cls-32{font-size:23.03px;}</style></defs><title>pk_hauptg_eg</title><rect class="cls-1" x="156" y="423" width="70" height="116.99"/><rect class="cls-2" x="731" y="394" width="190" height="170.67"/><polyline class="cls-3" points="788 285 1125 285 1125 566 731 566 731 339"/><polyline class="cls-3" points="788 284 788 285 731 339 730 339"/><rect class="cls-2" x="921" y="395" width="204" height="170.03"/><rect class="cls-2" x="972" y="341" width="154" height="54.6"/><rect class="cls-2" x="1024" y="284" width="102" height="56.16"/><rect class="cls-2" x="282" y="480" width="140" height="120.11"/><rect class="cls-2" x="226" y="480" width="56" height="120.11"/><rect class="cls-2" x="226" y="410" width="91" height="70.2"/><line class="cls-4" x1="577" y1="347" x2="226" y2="347"/><line class="cls-5" x1="226" y1="347" x2="226" y2="323"/><line class="cls-3" x1="226" y1="323" x2="58" y2="323"/><line class="cls-3" x1="58" y1="323" x2="58" y2="347"/><rect class="cls-6" x="156" y="648" width="70" height="0.09"/><polygon class="cls-6" points="156 540 156 540 226 540 226 540 226 648 156 648 156 550 156 540"/><polygon class="cls-6" points="156 550 156 648 58 648 58 508 129 508 129 550 156 550"/><path class="cls-6" d="M156,540v10H129V508h1a16,16,0,0,0,0,3,2,2,0,0,0,0,1c1,4,0,8,0,12h0c0,2,0,5,0,7h0c0,3,0,7,0,10h0a1,1,0,0,0,1,1h26q0-3,0-6c0-1-1-4,0-5a1,1,0,0,0,0-1h0v-2c0-3,0-6,0-9h0c0-1,0-3,0-4a1,1,0,0,0,0-1h0v-4c0-1,0-2,0-3a1,1,0,0,0,0-1,2,2,0,0,0,0-2,1,1,0,0,0,0-1h0v32Z"/><path class="cls-6" d="M129,510h0Z"/><rect class="cls-6" x="58" y="466" width="71" height="41.34"/><polygon class="cls-6" points="129 423 129 466 58 466 58 403 107 403 129 423"/><path class="cls-6" d="M129,423h0l-22-20h1l4,4h3l2,2h1l3,3,2,2h0a1,1,0,0,0,0,1h0l3,3Z"/><line class="cls-3" x1="226" y1="600" x2="226" y2="648"/><polyline class="cls-3" points="226 648 226 648 156 648"/><line class="cls-3" x1="156" y1="648" x2="58" y2="648"/><polyline class="cls-3" points="156 508 156 508 156 540"/><line class="cls-3" x1="58" y1="403" x2="58" y2="395"/><line class="cls-3" x1="58" y1="648" x2="58" y2="508"/><polyline class="cls-3" points="129 466 129 508 58 508 58 466"/><polyline class="cls-3" points="129 423 129 466 58 466 58 403 107 403"/><line class="cls-3" x1="107" y1="403" x2="129" y2="423"/><line class="cls-3" x1="129" y1="508" x2="129" y2="550"/><line class="cls-3" x1="129" y1="550" x2="156" y2="550"/><line class="cls-3" x1="156" y1="540" x2="168" y2="540"/><line class="cls-3" x1="226" y1="600" x2="226" y2="540"/><polyline class="cls-3" points="181 540 226 540 226 540"/><line class="cls-7" x1="156" y1="540" x2="156" y2="430"/><rect class="cls-2" x="156" y="403" width="28" height="58.5"/><rect class="cls-2" x="182" y="403" width="24" height="58.5"/><line class="cls-8" x1="226" y1="423" x2="206" y2="423"/><line class="cls-7" x1="129" y1="501" x2="156" y2="501"/><rect class="cls-3" x="358" y="480" width="65" height="26.52"/><rect class="cls-3" x="282" y="480" width="76" height="26.52"/><polygon class="cls-6" points="730 480 730 565 730 600 577 600 577 480 609 480 643 480 694 480 730 480"/><polygon class="cls-6" points="730 395 730 480 694 480 694 419 705 419 705 395 730 395"/><path class="cls-6" d="M707,378h0Z"/><rect class="cls-6" x="694" y="395" width="11" height="24.18"/><polygon class="cls-6" points="694 419 694 480 643 480 643 395 667 395 667 419 694 419"/><rect class="cls-6" x="667" y="395" width="27" height="24.18"/><polygon class="cls-6" points="643 395 643 480 609 480 609 437 609 395 643 395"/><path class="cls-6" d="M633,395h96a2,2,0,0,0,2-2h0a5,5,0,0,0,0-4,6,6,0,0,0,0-2,5,5,0,0,0,0-3,5,5,0,0,0,0-3h0a5,5,0,0,0,0-3h0c0-3,0-6,0-9v-2a5,5,0,0,0,0-2,5,5,0,0,0,1-3,36,36,0,0,0,0-6h0a2,2,0,0,0,0-1,2,2,0,0,0,0-2,1,1,0,0,0-1-1H578a1,1,0,0,0-1,2h0a6,6,0,0,0,0,3h0a6,6,0,0,0,0,2h0a5,5,0,0,0,0,3c1,3,0,6,0,9a5,5,0,0,0,1,4,10,10,0,0,0,0,4h0v3a2,2,0,0,0-2,3,27,27,0,0,1,0,5h0a6,6,0,0,0,0,3h0a1,1,0,0,0,0,1h0v2h0c0,1,0,2,0,3a1,1,0,0,0,1,1h55Zm97-54v55H577V341Z"/><rect class="cls-6" x="577" y="395" width="32" height="42.12"/><rect class="cls-6" x="423" y="480" width="154" height="120.11"/><polyline class="cls-3" points="730 395 921 395 921 565 730 565"/><polyline class="cls-3" points="730 480 730 395 730 341 577 341 577 395 577 437"/><polyline class="cls-3" points="694 480 730 480 730 565 730 600 577 600 577 480 609 480"/><rect class="cls-3" x="423" y="480" width="154" height="120.11"/><polyline class="cls-3" points="609 437 577 437 577 437 577 395 577 395 609 395"/><polyline class="cls-3" points="609 437 609 480 643 480"/><line class="cls-3" x1="643" y1="395" x2="609" y2="395"/><polyline class="cls-3" points="667 395 643 395 643 480 694 480 694 419"/><polygon class="cls-3" points="705 395 705 419 694 419 667 419 667 395 694 395 705 395"/><line class="cls-3" x1="730" y1="395" x2="705" y2="395"/><line class="cls-3" x1="2" y1="327" x2="57" y2="327"/><line class="cls-3" x1="2" y1="403" x2="58" y2="403"/><line class="cls-3" x1="58" y1="508" x2="2" y2="507"/><line class="cls-3" x1="310" y1="347" x2="310" y2="364"/><polygon class="cls-3" points="40 591 17 590 18 508 40 508 40 591"/><line class="cls-3" x1="29" y1="508" x2="29" y2="591"/><line class="cls-3" x1="17" y1="517" x2="40" y2="517"/><line class="cls-3" x1="17" y1="530" x2="40" y2="529"/><line class="cls-3" x1="18" y1="540" x2="41" y2="540"/><line class="cls-3" x1="17" y1="550" x2="40" y2="550"/><line class="cls-3" x1="17" y1="560" x2="40" y2="559"/><line class="cls-3" x1="17" y1="569" x2="40" y2="569"/><line class="cls-3" x1="17" y1="579" x2="40" y2="579"/><line class="cls-9" x1="209" y1="423" x2="223" y2="423"/><line class="cls-9" x1="188" y1="403" x2="202" y2="403"/><line class="cls-9" x1="164" y1="403" x2="178" y2="403"/><line class="cls-9" x1="23" y1="403" x2="37" y2="403"/><path class="cls-9" d="M114,409l9,9"/><line class="cls-9" x1="129" y1="478" x2="129" y2="492"/><line class="cls-9" x1="150" y1="501" x2="136" y2="501"/><line class="cls-9" x1="156" y1="563" x2="156" y2="577"/><line class="cls-9" x1="226" y1="563" x2="226" y2="577"/><line class="cls-9" x1="282" y1="487" x2="282" y2="501"/><line class="cls-9" x1="358" y1="487" x2="358" y2="501"/><line class="cls-9" x1="233" y1="410" x2="247" y2="410"/><line class="cls-9" x1="233" y1="480" x2="247" y2="480"/><line class="cls-9" x1="289" y1="507" x2="303" y2="507"/><line class="cls-9" x1="474" y1="480" x2="488" y2="480"/><line class="cls-9" x1="592" y1="480" x2="606" y2="480"/><line class="cls-9" x1="604" y1="395" x2="618" y2="395"/><line class="cls-9" x1="577" y1="358" x2="577" y2="374"/><line class="cls-9" x1="648" y1="395" x2="662" y2="395"/><line class="cls-9" x1="680" y1="395" x2="694" y2="395"/><line class="cls-9" x1="712" y1="395" x2="726" y2="395"/><line class="cls-9" x1="822" y1="395" x2="836" y2="395"/><line class="cls-9" x1="926" y1="395" x2="940" y2="395"/><line class="cls-9" x1="972" y1="372" x2="972" y2="358"/><line class="cls-9" x1="1024" y1="337" x2="1024" y2="323"/><line class="cls-9" x1="731" y1="371" x2="731" y2="357"/><polygon class="cls-3" points="393 480 393 457 462 458 462 480 393 480"/><line class="cls-3" x1="461" y1="470" x2="393" y2="469"/><line class="cls-3" x1="454" y1="457" x2="454" y2="480"/><line class="cls-3" x1="444" y1="457" x2="444" y2="480"/><line class="cls-3" x1="435" y1="458" x2="435" y2="481"/><line class="cls-3" x1="427" y1="458" x2="427" y2="481"/><line class="cls-3" x1="419" y1="457" x2="419" y2="480"/><line class="cls-3" x1="411" y1="458" x2="411" y2="481"/><line class="cls-3" x1="403" y1="457" x2="403" y2="480"/><line class="cls-3" x1="2" y1="327" x2="2" y2="507"/><line class="cls-3" x1="156" y1="540" x2="156" y2="648"/><text class="cls-10" transform="translate(232 439)">Empfang<tspan x="7" y="24">T3.0.02</tspan></text><text class="cls-11" transform="translate(58 430)">Erste Hilfe</text><text class="cls-12" transform="translate(58 494)">T2.0.03</text><text class="cls-13" transform="translate(158 514)">Buffet</text><text class="cls-13" transform="translate(158 607)">Buffet</text><text class="cls-14" transform="translate(70 577)">Buffet</text><text class="cls-15" transform="translate(159 435)">WC<tspan x="5" y="18">D</tspan></text><text class="cls-16" transform="translate(658 441) scale(1.01 1)">WC<tspan x="5" y="18">D</tspan></text><text class="cls-17" transform="translate(184 435)">WC<tspan x="5" y="18">H</tspan></text><text class="cls-16" transform="translate(615 441) scale(1.01 1)">WC<tspan x="5" y="18">H</tspan></text><text class="cls-18" transform="translate(304 543)">Bibliothek<tspan x="12" y="29">T3.0.04</tspan></text><text class="cls-19" transform="translate(228 541)">Bibliothek<tspan x="7" y="15">T3.0.03</tspan></text><text class="cls-20" transform="translate(361 500)">T3.0.05</text><text class="cls-21" transform="translate(470 534)">EDV 1<tspan x="-7" y="30">T3.0.06</tspan></text><text class="cls-22" transform="translate(625 534)">Sem. 1<tspan x="-3" y="29">T3.0.07</tspan></text><text class="cls-23" transform="translate(669 412)">T3.0.10</text><text class="cls-24" transform="translate(697 446)">T3.0.11</text><text class="cls-25" transform="translate(805 473)">HS 2<tspan x="-16" y="36">T4.0.01</tspan></text><text class="cls-26" transform="translate(1004 471)">HS 1<tspan x="-16" y="36">T4.0.02</tspan></text><text class="cls-27" transform="translate(1027 359)">Lager<tspan x="-9" y="29">T4.0.04</tspan></text><text class="cls-28" transform="translate(1036 323)">T4.0.05</text><text class="cls-29" transform="translate(380 196)">Hauptgebäude EG</text><text class="cls-30" transform="translate(230 339)">Haupteingang</text><text class="cls-31" transform="translate(58 452)">T2.0.02</text><text class="cls-32" transform="translate(69 604)">T2.0.07</text></svg>