<svg id="Ebene_1" data-name="Ebene 1" xmlns="http://www.w3.org/2000/svg" viewBox="0 0 1126 901"><defs><style>.cls-1,.cls-3{fill:#d9e3ea;}.cls-1,.cls-2,.cls-4{stroke:#005081;stroke-miterlimit:10;}.cls-2,.cls-4{fill:none;}.cls-4{stroke-width:3px;}.cls-5{font-size:22px;}.cls-10,.cls-5,.cls-6,.cls-7,.cls-8,.cls-9{fill:#005081;}.cls-5,.cls-6,.cls-7,.cls-8,.cls-9{font-family:OpenSans-Light, Open Sans;}.cls-6{font-size:12px;}.cls-7{font-size:18px;}.cls-8{font-size:16px;}.cls-9{font-size:9.36px;}.cls-10{font-size:37px;font-family:OpenSans, Open Sans;}</style></defs><title>pk_lab_og</title><rect class="cls-1" x="431" y="441" width="131" height="240.24"/><line class="cls-2" x1="356" y1="273" x2="274" y2="273"/><polygon class="cls-3" points="319 363 319 399 247 399 247 399 247 328 283 328 319 363"/><polygon class="cls-3" points="247 328 247 399 3 399 3 260 247 260 247 328"/><polygon class="cls-2" points="274 284 274 261 357 261 357 284 274 284"/><polyline class="cls-2" points="247 399 3 399 3 260 247 260 247 328"/><polyline class="cls-2" points="319 363 319 399 247 399 247 399 247 328 283 328"/><line class="cls-2" x1="283" y1="328" x2="319" y2="363"/><polygon class="cls-1" points="563 261 563 260 481 260 481 261 481 399 563 399 563 261"/><polygon class="cls-1" points="481 260 481 261 481 399 431 399 400 367 400 261 400 260 481 260"/><polygon class="cls-2" points="400 367 431 399 481 399 563 399 563 261 563 261 563 682 3 682 3 261 305 261 400 261 400 367"/><line class="cls-2" x1="431" y1="399" x2="432" y2="400"/><line class="cls-2" x1="347" y1="261" x2="347" y2="284"/><line class="cls-2" x1="335" y1="261" x2="335" y2="284"/><line class="cls-2" x1="325" y1="261" x2="325" y2="284"/><line class="cls-2" x1="314" y1="261" x2="314" y2="284"/><line class="cls-2" x1="305" y1="261" x2="305" y2="284"/><line class="cls-2" x1="305" y1="261" x2="305" y2="261"/><line class="cls-2" x1="295" y1="261" x2="296" y2="284"/><line class="cls-2" x1="285" y1="261" x2="285" y2="284"/><line class="cls-2" x1="319" y1="399" x2="376" y2="399"/><line class="cls-2" x1="377" y1="399" x2="377" y2="682"/><polygon class="cls-3" points="1019 260 1019 413 975 413 975 372 905 372 905 350 905 260 1019 260"/><rect class="cls-3" x="677" y="260" width="114" height="152.88"/><rect class="cls-3" x="885" y="381" width="20" height="31.98"/><rect class="cls-3" x="1072" y="365" width="54" height="48.36"/><rect class="cls-3" x="1080" y="541" width="45" height="0.78"/><rect class="cls-3" x="563" y="260" width="114" height="152.88"/><polygon class="cls-3" points="975 372 975 413 905 413 905 381 905 372 975 372"/><polygon class="cls-3" points="1126 514 1126 541 1080 541 1080 530 1080 519 1080 514 1126 514"/><polygon class="cls-3" points="905 372 905 381 885 381 885 413 855 413 855 350 905 350 905 372"/><polygon class="cls-3" points="1126 260 1126 365 1072 365 1072 413 1019 413 1019 260 1126 260"/><polygon class="cls-3" points="905 260 905 350 855 350 855 413 791 413 791 260 905 260"/><polygon class="cls-3" points="1126 260 1126 260 1019 260 905 260 791 260 677 260 563 260 563 413 562 413 562 260 1126 260"/><polyline class="cls-2" points="563 413 562 413 562 260 1126 260 1126 260"/><polyline class="cls-2" points="563 562 563 682 431 682 431 562"/><polyline class="cls-2" points="563 497 563 562 431 562 431 521"/><polyline class="cls-2" points="563 441 563 497 508 497"/><line class="cls-2" x1="508" y1="441" x2="524" y2="441"/><polyline class="cls-2" points="472 441 508 441 508 497 472 497"/><polyline class="cls-2" points="431 497 431 441 472 441 472 497"/><polyline class="cls-2" points="431 497 472 497 472 521 431 521"/><polyline class="cls-2" points="563 441 559 441 552 441 545 441 538 441 531 441 524 441 524 431 524 420 531 420 538 420 545 420 552 420 559 420 563 420"/><polyline class="cls-2" points="524 431 531 431 538 431 545 431 552 431 559 431 563 431"/><polyline class="cls-2" points="531 420 531 431 531 441"/><polyline class="cls-2" points="538 420 538 431 538 441"/><polyline class="cls-2" points="545 420 545 431 545 441"/><polyline class="cls-2" points="552 420 552 431 552 441"/><polyline class="cls-2" points="559 420 559 431 559 441"/><polyline class="cls-2" points="1041 541 1041 530 1041 519 1048 519 1056 519 1063 519 1070 519 1076 519 1080 519"/><polyline class="cls-2" points="1041 530 1048 530 1056 530 1063 530 1070 530 1076 530 1080 530"/><polyline class="cls-2" points="1048 519 1048 530 1048 541"/><polyline class="cls-2" points="1056 519 1056 530 1056 541"/><polyline class="cls-2" points="1063 519 1063 530 1063 541"/><polyline class="cls-2" points="1070 519 1070 530 1070 541"/><polyline class="cls-2" points="1076 519 1076 530 1076 541"/><polyline class="cls-2" points="1019 480 1029 480 1040 480 1040 484 1040 491 1040 498 1040 505 1040 512 1040 519 1029 519 1019 519"/><polyline class="cls-2" points="1029 519 1029 512 1029 505 1029 498 1029 491 1029 484 1029 480"/><polyline class="cls-2" points="1019 512 1029 512 1040 512"/><polyline class="cls-2" points="1019 505 1029 505 1040 505"/><polyline class="cls-2" points="1019 498 1029 498 1040 498"/><polyline class="cls-2" points="1019 491 1029 491 1040 491"/><polyline class="cls-2" points="1019 484 1029 484 1040 484"/><line class="cls-2" x1="1126" y1="413" x2="1126" y2="441"/><polyline class="cls-2" points="1019 441 563 441 563 431 563 420 563 413"/><polyline class="cls-2" points="677 413 563 413 563 260 677 260"/><polyline class="cls-2" points="791 413 677 413 677 260 791 260"/><polyline class="cls-2" points="855 413 791 413 791 260 905 260"/><polyline class="cls-2" points="905 350 905 260 1019 260"/><line class="cls-2" x1="1019" y1="413" x2="975" y2="413"/><polyline class="cls-2" points="1072 413 1019 413 1019 260 1126 260 1126 365"/><line class="cls-2" x1="1126" y1="441" x2="1126" y2="514"/><polyline class="cls-2" points="1019 441 1019 480 1019 484 1019 491 1019 498 1019 505 1019 512 1019 519 1019 541"/><polyline class="cls-2" points="1019 541 1041 541 1048 541 1056 541 1063 541 1070 541 1076 541 1080 541"/><rect class="cls-2" x="1072" y="365" width="54" height="48.36"/><polyline class="cls-2" points="905 372 975 372 975 413 905 413"/><polyline class="cls-2" points="885 413 855 413 855 350 905 350 905 372 905 381"/><rect class="cls-2" x="885" y="381" width="20" height="31.98"/><polygon class="cls-2" points="1126 541 1126 541 1080 541 1080 541 1080 530 1080 519 1080 514 1126 514 1126 541"/><line class="cls-4" x1="836" y1="413" x2="850" y2="413"/><line class="cls-4" x1="888" y1="413" x2="902" y2="413"/><line class="cls-4" x1="948" y1="413" x2="962" y2="413"/><line class="cls-4" x1="990" y1="413" x2="1004" y2="413"/><line class="cls-4" x1="1019" y1="311" x2="1019" y2="325"/><line class="cls-4" x1="905" y1="311" x2="905" y2="325"/><line class="cls-4" x1="1099" y1="413" x2="1113" y2="413"/><line class="cls-2" x1="431" y1="497" x2="431" y2="521"/><text class="cls-5" transform="translate(72 326)">E-Labor</text><text class="cls-5" transform="translate(72 351)">L1.1.05</text><text class="cls-6" transform="translate(258 365)">Schaltw.</text><text class="cls-7" transform="translate(252 386)">L1.1.04</text><text class="cls-5" transform="translate(416 316)">Büro</text><text class="cls-5" transform="translate(405 343)">L1.1.02</text><text class="cls-5" transform="translate(481 316)">Bespr. 3</text><text class="cls-5" transform="translate(488 343)">L1.1.01</text><text class="cls-5" transform="translate(591 316)">Büro 1</text><text class="cls-5" transform="translate(589 343)">VT.1.02</text><text class="cls-5" transform="translate(701 315)">Büro 2</text><text class="cls-5" transform="translate(699 343)">VT.1.03</text><text class="cls-5" transform="translate(813 316)">Büro 3</text><text class="cls-5" transform="translate(811 342)">VT.1.04</text><text class="cls-6" transform="translate(864 362)">Küche</text><text class="cls-6" transform="translate(861 377)">VT.1.07</text><text class="cls-6" transform="translate(923 386)">Haust.</text><text class="cls-8" transform="translate(914 405)">VT.1.09</text><text class="cls-5" transform="translate(927 316)">Büro 4</text><text class="cls-5" transform="translate(923 343)">VT.1.05</text><text class="cls-5" transform="translate(1039 316)">Büro 5</text><text class="cls-5" transform="translate(1036 342)">VT.1.06</text><text class="cls-5" transform="translate(445 540)">Sozialraum</text><text class="cls-5" transform="translate(464 559)">L1.1.09</text><text class="cls-5" transform="translate(457 594)">Wasser<tspan x="72" y="0">-</tspan><tspan x="14" y="26">labor</tspan></text><text class="cls-5" transform="translate(459 655)">L1.1.10</text><text class="cls-9" transform="translate(436 507)">Dusche</text><text class="cls-9" transform="translate(433 519)">L1.1.09a</text><text class="cls-9" transform="translate(433 463)">Beh.-WC</text><text class="cls-9" transform="translate(436 475)">L1.1.08</text><text class="cls-9" transform="translate(479 463)">WC-D</text><text class="cls-9" transform="translate(475 475)">L1.1.07</text><line class="cls-4" x1="498" y1="399" x2="512" y2="399"/><line class="cls-4" x1="613" y1="413" x2="627" y2="413"/><line class="cls-4" x1="726" y1="413" x2="740" y2="413"/><line class="cls-4" x1="1096" y1="514" x2="1111" y2="514"/><line class="cls-4" x1="491" y1="441" x2="505" y2="441"/><line class="cls-4" x1="454" y1="441" x2="468" y2="441"/><line class="cls-4" x1="454" y1="521" x2="468" y2="521"/><line class="cls-4" x1="431" y1="536" x2="431" y2="551"/><line class="cls-4" x1="431" y1="576" x2="431" y2="590"/><line class="cls-4" x1="404" y1="370" x2="413" y2="380"/><line class="cls-4" x1="304" y1="349" x2="314" y2="358"/><line class="cls-4" x1="247" y1="304" x2="247" y2="318"/><text class="cls-10" transform="translate(435 158)">Labortrakt 1. OG</text></svg>