<svg id="Ebene_1" data-name="Ebene 1" xmlns="http://www.w3.org/2000/svg" viewBox="0 0 1126 901"><defs><style>.cls-1,.cls-4{fill:#d9e3ea;}.cls-10,.cls-12,.cls-2,.cls-5{fill:#005081;}.cls-11,.cls-13,.cls-3{fill:none;}.cls-11,.cls-13,.cls-3,.cls-4,.cls-6,.cls-8{stroke:#005081;stroke-miterlimit:10;}.cls-5{font-size:22px;letter-spacing:0.04em;}.cls-10,.cls-5{font-family:OpenSans-Light, Open Sans;}.cls-10,.cls-6,.cls-8{font-size:13.62px;}.cls-6,.cls-8{fill:#2e3192;font-family:MyriadPro-Regular, Myriad Pro;}.cls-6{letter-spacing:0.05em;}.cls-10,.cls-7,.cls-8{letter-spacing:0.04em;}.cls-9{letter-spacing:-0.02em;}.cls-11{stroke-width:3px;}.cls-12{font-size:37px;font-family:OpenSans, Open Sans;}.cls-13{stroke-width:2px;}</style></defs><title>pk_sem_og-01</title><rect class="cls-1" x="699" y="271" width="142" height="142.02"/><path class="cls-2" d="M841,271V412H700V271H841m1-1H699V413H842V270Z"/><rect class="cls-1" x="841" y="271" width="137" height="142.02"/><path class="cls-2" d="M978,271V412H842V271H978m1-1H841V413H979V270Z"/><rect class="cls-1" x="979" y="61" width="146" height="142.02"/><path class="cls-2" d="M1125,61V202H980V61h145m1-1H979V203h147V60Z"/><rect class="cls-1" x="316" y="61" width="100" height="142.02"/><path class="cls-2" d="M416,61V202H316V61h99m1-1H315V203H417V60Z"/><rect class="cls-1" x="369" y="271" width="50" height="142.02"/><path class="cls-2" d="M419,271V412H370V271h49m1-1H369V413h51V270Z"/><rect class="cls-1" x="319" y="271" width="50" height="142.02"/><path class="cls-2" d="M368,271V412H319V271h49m1-1H318V413h51V270Z"/><rect class="cls-1" x="268" y="271" width="50" height="106.02"/><path class="cls-2" d="M317,271V376H269V271h49m1-1H268V377h51V270Z"/><rect class="cls-1" x="268" y="377" width="50" height="35.97"/><path class="cls-2" d="M317,377v35H269V377h49m1-1H268v37h51V376Z"/><rect class="cls-1" x="218" y="271" width="50" height="142.02"/><path class="cls-2" d="M267,271V412H218V271h49m1-1H217V413h51V270Z"/><rect class="cls-1" x="216" y="61" width="100" height="142.02"/><path class="cls-2" d="M315,61V202H216V61h99m1-1H215V203H316V60Z"/><rect class="cls-1" x="417" y="61" width="283" height="142.02"/><path class="cls-2" d="M700,61V202H418V61H700m1-1H417V203H701V60Z"/><rect class="cls-1" x="700" y="61" width="142" height="142.02"/><path class="cls-2" d="M842,61V202H701V61H842m1-1H700V203H843V60Z"/><rect class="cls-1" x="842" y="61" width="137" height="142.02"/><path class="cls-2" d="M979,61V202H843V61H979m1-1H842V203H980V60Z"/><rect class="cls-1" x="979" y="271" width="146" height="142.02"/><path class="cls-2" d="M1125,271V412H980V271h145m1-1H979V413h147V270Z"/><line class="cls-3" x1="218" y1="413" x2="218" y2="830"/><rect class="cls-4" x="2" y="480" width="141" height="350.26"/><line class="cls-3" x1="2" y1="622" x2="2" y2="481"/><line class="cls-3" x1="218" y1="480" x2="207" y2="480"/><path class="cls-3" d="M2,480c3-56,9-116,18-179A2123,2123,0,0,1,68,59"/><line class="cls-3" x1="68" y1="59" x2="68" y2="132"/><line class="cls-3" x1="143" y1="132" x2="68" y2="132"/><rect class="cls-4" x="143" y="87" width="73" height="44.75"/><rect class="cls-3" x="83" y="305" width="34" height="86.98" transform="translate(55 -11) rotate(9)"/><line class="cls-3" x1="107" y1="306" x2="93" y2="392"/><rect class="cls-3" x="98" y="204" width="34" height="86.98" transform="translate(39 -15) rotate(9)"/><line class="cls-3" x1="122" y1="205" x2="109" y2="290"/><line class="cls-3" x1="103" y1="212" x2="137" y2="216"/><line class="cls-3" x1="101" y1="224" x2="135" y2="229"/><line class="cls-3" x1="100" y1="235" x2="134" y2="240"/><line class="cls-3" x1="98" y1="246" x2="132" y2="251"/><line class="cls-3" x1="96" y1="255" x2="130" y2="260"/><line class="cls-3" x1="95" y1="265" x2="129" y2="270"/><line class="cls-3" x1="93" y1="276" x2="127" y2="281"/><line class="cls-3" x1="87" y1="314" x2="121" y2="319"/><line class="cls-3" x1="85" y1="326" x2="119" y2="331"/><line class="cls-3" x1="84" y1="337" x2="118" y2="342"/><line class="cls-3" x1="82" y1="348" x2="116" y2="353"/><line class="cls-3" x1="80" y1="358" x2="115" y2="362"/><line class="cls-3" x1="80" y1="367" x2="114" y2="372"/><line class="cls-3" x1="78" y1="378" x2="112" y2="383"/><text class="cls-5" transform="translate(237 124)">Lager</text><text class="cls-5" transform="translate(227 154)">ST.3.04</text><text class="cls-5" transform="translate(324 124)">Sem. 10</text><text class="cls-5" transform="translate(328 153)">ST.3.05</text><text class="cls-5" transform="translate(441 124)">Sem. 11</text><text class="cls-5" transform="translate(445 153)">ST.3.06</text><text class="cls-5" transform="translate(585 124)">Sem. 12</text><text class="cls-5" transform="translate(589 153)">ST.3.07</text><text class="cls-5" transform="translate(726 124)">Sem. 13</text><text class="cls-5" transform="translate(732 153)">ST.3.08</text><text class="cls-5" transform="translate(866 124)">Sem. 14</text><text class="cls-5" transform="translate(872 153)">ST.3.09</text><text class="cls-5" transform="translate(1005 124)">Sem. 15</text><text class="cls-5" transform="translate(1009 153)">ST.3.10</text><text class="cls-5" transform="translate(1009 339)">Sem. 16</text><text class="cls-5" transform="translate(1014 369)">ST.3.11</text><text class="cls-5" transform="translate(865 339)">Sem. 17</text><text class="cls-5" transform="translate(867 368)">ST.3.12</text><text class="cls-5" transform="translate(724 339)">Sem. 18</text><text class="cls-5" transform="translate(729 369)">ST.3.13</text><text class="cls-6" transform="translate(538 325)">S<tspan class="cls-7" x="7" y="0">em. 9</tspan></text><text class="cls-8" transform="translate(538 362)">S<tspan class="cls-9" x="7" y="0">T</tspan><tspan x="14" y="0">.2.11</tspan></text><text class="cls-5" transform="translate(6 638)">Forschungs-<tspan x="34" y="26">kolleg</tspan></text><text class="cls-5" transform="translate(34 698)">ST.3.01</text><text class="cls-10" transform="translate(376 339)">WC-H</text><text class="cls-10" transform="translate(370 362)">ST.3.17</text><text class="cls-10" transform="translate(326 339)">WC-D</text><text class="cls-10" transform="translate(319 362)">ST.3.18</text><text class="cls-10" transform="translate(275 339)">Lager</text><text class="cls-10" transform="translate(268 362)">ST.3.20</text><line class="cls-3" x1="557" y1="62" x2="557" y2="202"/><rect class="cls-1" x="418" y="271" width="281" height="142.02"/><path class="cls-2" d="M699,271V412H419V271H699m1-1H418V413H700V270Z"/><line class="cls-3" x1="556" y1="272" x2="556" y2="412"/><line class="cls-11" x1="236" y1="203" x2="253" y2="203"/><line class="cls-11" x1="387" y1="203" x2="404" y2="203"/><line class="cls-11" x1="497" y1="203" x2="514" y2="203"/><line class="cls-11" x1="647" y1="203" x2="665" y2="203"/><line class="cls-11" x1="760" y1="203" x2="778" y2="203"/><line class="cls-11" x1="723" y1="271" x2="740" y2="271"/><line class="cls-11" x1="912" y1="203" x2="930" y2="203"/><line class="cls-11" x1="1024" y1="203" x2="1042" y2="203"/><line class="cls-11" x1="1021" y1="270" x2="1039" y2="270"/><line class="cls-11" x1="912" y1="270" x2="930" y2="270"/><line class="cls-11" x1="609" y1="270" x2="626" y2="270"/><line class="cls-11" x1="463" y1="270" x2="480" y2="270"/><line class="cls-11" x1="384" y1="270" x2="402" y2="270"/><line class="cls-11" x1="345" y1="270" x2="363" y2="270"/><line class="cls-11" x1="274" y1="270" x2="292" y2="270"/><line class="cls-11" x1="318" y1="403" x2="318" y2="386"/><line class="cls-11" x1="143" y1="666" x2="143" y2="648"/><text class="cls-12" transform="translate(503 598)">Seminartrakt 1. OG</text><line class="cls-3" x1="1125" y1="204" x2="1125" y2="271"/><path class="cls-13" d="M67,481c2-47,7-97,14-149a1838,1838,0,0,1,39-202"/><text class="cls-5" transform="translate(583 339)">Sem. 19</text><text class="cls-5" transform="translate(586 369)">ST.3.14</text><text class="cls-5" transform="translate(447 339)">Sem. 20</text><text class="cls-5" transform="translate(450 369)">ST.3.15</text></svg>